<?xml version="1.0" encoding="utf-8"?>
<!-- Generator: Adobe Illustrator 23.0.5, SVG Export Plug-In . SVG Version: 6.00 Build 0)  -->
<svg version="1.1" id="scope" xmlns="http://www.w3.org/2000/svg" xmlns:xlink="http://www.w3.org/1999/xlink" x="0px" y="0px"
	 viewBox="0 0 463 463" style="enable-background:new 0 0 463 463;" xml:space="preserve">
<style type="text/css">
	.st0{fill:none;stroke:#14009E;stroke-width:2;}
	.st1{fill:#0D0D0D;}
	.st2{fill:none;stroke:#1800C1;}
	.st3{fill:none;stroke:#1800C1;stroke-width:1.9;}
	.st4{fill:none;stroke:#1800C1;stroke-width:3.5;}
	.st5{fill:url(#shadowPath0_1_);}
	.st6{fill:url(#shadowPath1_1_);}
	.st7{fill:url(#shadowPath2_1_);}
</style>
<path class="st0" d="M231,76.8h-23.7v23.4H231V76.8z"/>
<path class="st0" d="M180.1,102.1h-23.7v23.4h23.7V102.1z"/>
<path class="st0" d="M205.8,102.1h-24.2v23.4h24.2V102.1z"/>
<path class="st0" d="M231,102.1h-23.7v23.4H231V102.1z"/>
<path class="st0" d="M154.9,127.5h-24.2v23.4h24.2V127.5z"/>
<path class="st0" d="M180.1,127.5h-23.7v23.4h23.7V127.5z"/>
<path class="st0" d="M205.8,127.5h-24.2v23.4h24.2V127.5z"/>
<path class="st0" d="M231,127.5h-23.7v23.4H231V127.5z"/>
<path class="st0" d="M129.3,152.9h-23.7v23.4h23.7V152.9z"/>
<path class="st0" d="M154.9,152.9h-24.2v23.4h24.2V152.9z"/>
<path class="st0" d="M180.1,152.9h-23.7v23.4h23.7V152.9z"/>
<path class="st0" d="M205.8,152.9h-24.2v23.4h24.2V152.9z"/>
<path class="st0" d="M231,152.9h-23.7v23.4H231V152.9z"/>
<path class="st0" d="M129.3,178.3h-23.7v23.4h23.7V178.3z"/>
<path class="st0" d="M154.9,178.3h-24.2v23.4h24.2V178.3z"/>
<path class="st0" d="M180.1,178.3h-23.7v23.4h23.7V178.3z"/>
<path class="st0" d="M205.8,178.3h-24.2v23.4h24.2V178.3z"/>
<path class="st0" d="M231,178.3h-23.7v23.4H231V178.3z"/>
<path class="st0" d="M104.1,203.6H79.9V227h24.2V203.6z"/>
<path class="st0" d="M129.3,203.6h-23.7V227h23.7V203.6z"/>
<path class="st0" d="M154.9,203.6h-24.2V227h24.2V203.6z"/>
<path class="st0" d="M180.1,203.6h-23.7V227h23.7V203.6z"/>
<path class="st0" d="M205.8,203.6h-24.2V227h24.2V203.6z"/>
<path class="st0" d="M231,203.6h-23.7V227H231V203.6z"/>
<path class="st0" d="M256.2,76.8H232v23.4h24.2V76.8z"/>
<path class="st0" d="M256.2,102.1H232v23.4h24.2V102.1z"/>
<path class="st0" d="M281.4,102.1h-23.7v23.4h23.7V102.1z"/>
<path class="st0" d="M307.1,102.1h-24.2v23.4h24.2V102.1z"/>
<path class="st0" d="M256.2,127.5H232v23.4h24.2V127.5z"/>
<path class="st0" d="M281.4,127.5h-23.7v23.4h23.7V127.5z"/>
<path class="st0" d="M307.1,127.5h-24.2v23.4h24.2V127.5z"/>
<path class="st0" d="M332.3,127.5h-23.7v23.4h23.7V127.5z"/>
<path class="st0" d="M256.2,152.9H232v23.4h24.2V152.9z"/>
<path class="st0" d="M281.4,152.9h-23.7v23.4h23.7V152.9z"/>
<path class="st0" d="M332.3,152.9h-23.7v23.4h23.7V152.9z"/>
<path class="st0" d="M357.9,152.9h-24.2v23.4h24.2V152.9z"/>
<path class="st0" d="M307.1,152.9h-24.2v23.4h24.2V152.9z"/>
<path class="st0" d="M256.2,178.3H232v23.4h24.2V178.3z"/>
<path class="st0" d="M281.4,178.3h-23.7v23.4h23.7V178.3z"/>
<path class="st0" d="M307.1,178.3h-24.2v23.4h24.2V178.3z"/>
<path class="st0" d="M332.3,178.3h-23.7v23.4h23.7V178.3z"/>
<path class="st0" d="M357.9,178.3h-24.2v23.4h24.2V178.3z"/>
<path class="st0" d="M256.2,203.6H232V227h24.2V203.6z"/>
<path class="st0" d="M281.4,203.6h-23.7V227h23.7V203.6z"/>
<path class="st0" d="M307.1,203.6h-24.2V227h24.2V203.6z"/>
<path class="st0" d="M332.3,203.6h-23.7V227h23.7V203.6z"/>
<path class="st0" d="M357.9,203.6h-24.2V227h24.2V203.6z"/>
<path class="st0" d="M383.1,203.6h-23.7V227h23.7V203.6z"/>
<path class="st0" d="M104.1,228H79.9v23.4h24.2V228z"/>
<path class="st0" d="M129.3,228h-23.7v23.4h23.7V228z"/>
<path class="st0" d="M154.9,228h-24.2v23.4h24.2V228z"/>
<path class="st0" d="M180.1,228h-23.7v23.4h23.7V228z"/>
<path class="st0" d="M205.8,228h-24.2v23.4h24.2V228z"/>
<path class="st0" d="M231,228h-23.7v23.4H231V228z"/>
<path class="st0" d="M129.3,253.4h-23.7v23.4h23.7V253.4z"/>
<path class="st0" d="M154.9,253.4h-24.2v23.4h24.2V253.4z"/>
<path class="st0" d="M180.1,253.4h-23.7v23.4h23.7V253.4z"/>
<path class="st0" d="M205.8,253.4h-24.2v23.4h24.2V253.4z"/>
<path class="st0" d="M231,253.4h-23.7v23.4H231V253.4z"/>
<path class="st0" d="M129.3,278.8h-23.7v23.4h23.7V278.8z"/>
<path class="st0" d="M154.9,278.8h-24.2v23.4h24.2V278.8z"/>
<path class="st0" d="M180.1,278.8h-23.7v23.4h23.7V278.8z"/>
<path class="st0" d="M205.8,278.8h-24.2v23.4h24.2V278.8z"/>
<path class="st0" d="M231,278.8h-23.7v23.4H231V278.8z"/>
<path class="st0" d="M154.9,304.1h-24.2v23.4h24.2V304.1z"/>
<path class="st0" d="M180.1,304.1h-23.7v23.4h23.7V304.1z"/>
<path class="st0" d="M205.8,304.1h-24.2v23.4h24.2V304.1z"/>
<path class="st0" d="M231,304.1h-23.7v23.4H231V304.1z"/>
<path class="st0" d="M180.1,329.5h-23.7v23.4h23.7V329.5z"/>
<path class="st0" d="M205.8,329.5h-24.2v23.4h24.2V329.5z"/>
<path class="st0" d="M231,329.5h-23.7v23.4H231V329.5z"/>
<path class="st0" d="M231,354.9h-23.7v23.4H231V354.9z"/>
<path class="st0" d="M256.2,228H232v23.4h24.2V228z"/>
<path class="st0" d="M281.4,228h-23.7v23.4h23.7V228z"/>
<path class="st0" d="M307.1,228h-24.2v23.4h24.2V228z"/>
<path class="st0" d="M332.3,228h-23.7v23.4h23.7V228z"/>
<path class="st0" d="M357.9,228h-24.2v23.4h24.2V228z"/>
<path class="st0" d="M383.1,228h-23.7v23.4h23.7V228z"/>
<path class="st0" d="M256.2,253.4H232v23.4h24.2V253.4z"/>
<path class="st0" d="M281.4,253.4h-23.7v23.4h23.7V253.4z"/>
<path class="st0" d="M307.1,253.4h-24.2v23.4h24.2V253.4z"/>
<path class="st0" d="M332.3,253.4h-23.7v23.4h23.7V253.4z"/>
<path class="st0" d="M357.9,253.4h-24.2v23.4h24.2V253.4z"/>
<path class="st0" d="M256.2,278.8H232v23.4h24.2V278.8z"/>
<path class="st0" d="M281.4,278.8h-23.7v23.4h23.7V278.8z"/>
<path class="st0" d="M307.1,278.8h-24.2v23.4h24.2V278.8z"/>
<path class="st0" d="M332.3,278.8h-23.7v23.4h23.7V278.8z"/>
<path class="st0" d="M357.9,278.8h-24.2v23.4h24.2V278.8z"/>
<path class="st0" d="M256.2,304.1H232v23.4h24.2V304.1z"/>
<path class="st0" d="M281.4,304.1h-23.7v23.4h23.7V304.1z"/>
<path class="st0" d="M307.1,304.1h-24.2v23.4h24.2V304.1z"/>
<path class="st0" d="M332.3,304.1h-23.7v23.4h23.7V304.1z"/>
<path class="st0" d="M256.2,329.5H232v23.4h24.2V329.5z"/>
<path class="st0" d="M281.4,329.5h-23.7v23.4h23.7V329.5z"/>
<path class="st0" d="M307.1,329.5h-24.2v23.4h24.2V329.5z"/>
<path class="st0" d="M256.2,354.9H232v23.4h24.2V354.9z"/>
<g>
	<path class="st1" d="M231.1,378.7c83.5,0,151.1-67.8,151.1-151.4S314.6,76,231.1,76S80,143.8,80,227.4S147.7,378.7,231.1,378.7z"/>
	<path class="st2" d="M381.8,227.4c0,83.3-67.4,150.9-150.6,150.9S80.5,310.7,80.5,227.4S148,76.5,231.1,76.5S381.8,144,381.8,227.4
		z"/>
</g>
<path class="st3" d="M124.3,120.2c3.3-3.2,6.8-6.2,10.4-9c-3.2,4.3-4.8,6.5-7.7,11.1c-4.8,3-7,4.6-11.4,8
	C118.2,126.8,121.2,123.4,124.3,120.2L124.3,120.2z"/>
<path class="st3" d="M135.3,110.7c3.5-2.8,7.2-5.4,11-7.9c-2.8,4.7-4.1,7.2-6.6,12.1c-4.9,2.6-7.4,4-12,6.9
	C130.6,117.3,132.1,115,135.3,110.7z"/>
<path class="st3" d="M147,102.4c3.9-2.5,7.9-4.9,12-7c-2.3,5-3.4,7.6-5.5,12.9c-5.4,2.3-8,3.6-13,6.2
	C142.9,109.5,144.2,107.1,147,102.4z"/>
<path class="st3" d="M159.7,95c4-2.1,8.2-4,12.4-5.7c-1.8,5.3-2.7,8-4.4,13.7c-5.5,1.8-8.2,2.9-13.4,5.1
	C156.4,102.6,157.5,100,159.7,95z"/>
<path class="st3" d="M173,88.9c4.3-1.8,8.8-3.4,13.3-4.7c-1.4,5.5-2,8.3-3.3,14.2c-5.9,1.4-8.7,2.3-14.3,4.1
	C170.3,97,171.1,94.2,173,88.9z"/>
<path class="st3" d="M187.1,84c4.5-1.4,9-2.5,13.6-3.3c-0.9,5.7-1.4,8.6-2.2,14.7c-6,1-8.9,1.6-14.6,3
	C185.1,92.4,185.7,89.5,187.1,84z"/>
<path class="st3" d="M201.6,80.5c4.7-1,9.5-1.7,14.3-2.1c-0.5,5.8-0.7,8.8-1.1,14.9c-6.2,0.5-9.3,0.9-15.4,1.8
	C200.2,89.1,200.6,86.2,201.6,80.5z"/>
<path class="st3" d="M216.8,78.3c4.8-0.5,9.6-0.7,14.5-0.7c0,5.9,0,8.9,0,15c-6.3,0-9.4,0.1-15.5,0.6
	C216.1,87.1,216.4,84.1,216.8,78.3z"/>
<path class="st3" d="M114.8,131.2c4.4-3.3,6.7-4.9,11.5-7.9c-2.9,4.6-4.3,7-6.9,11.9c-5.1,2.6-7.6,4-12.4,6.8
	C109.4,138.3,112,134.7,114.8,131.2L114.8,131.2z"/>
<path class="st3" d="M127,122.8c4.7-2.9,7.2-4.3,12.1-6.9c-2.5,5-3.7,7.6-6,12.9c-5.4,2.3-7.9,3.4-13,6
	C122.8,129.9,124.1,127.5,127,122.8z"/>
<path class="st3" d="M139.9,115.6c5.1-2.6,7.7-3.8,13.1-6.1c-2.1,5.4-3.1,8.1-4.9,13.8c-5.8,2-8.6,3-14,5.3
	C136.3,123.3,137.4,120.6,139.9,115.6z"/>
<path class="st3" d="M153.8,109.1c5.3-2.2,8-3.2,13.5-5c-1.7,5.6-2.5,8.5-3.9,14.5c-5.9,1.6-8.8,2.5-14.4,4.3
	C150.8,117.3,151.8,114.5,153.8,109.1z"/>
<path class="st3" d="M168.2,103.8c5.7-1.8,8.6-2.7,14.4-4.1c-1.2,5.9-1.8,8.9-3,15.1c-6.3,1.2-9.3,2-15.4,3.6
	C165.8,112.4,166.6,109.5,168.2,103.8z"/>
<path class="st3" d="M183.6,99.5c5.8-1.4,8.7-2,14.7-2.9c-0.8,6-1.2,9.1-2,15.5c-6.3,0.8-9.5,1.3-15.6,2.5
	C181.8,108.4,182.4,105.4,183.6,99.5z"/>
<path class="st3" d="M199.2,96.4c6.1-1,9.2-1.3,15.5-1.8c-0.4,6.1-0.6,9.3-1,15.7c-6.6,0.4-9.9,0.8-16.4,1.6
	C198,105.6,198.4,102.5,199.2,96.4z"/>
<path class="st3" d="M215.7,94.5c6.1-0.5,9.3-0.6,15.6-0.6c0,6.2,0,9.4,0,15.8c-6.7,0-10,0.1-16.5,0.5
	C215.1,103.8,215.3,100.7,215.7,94.5z"/>
<path class="st3" d="M106.4,143c4.8-2.8,7.3-4.2,12.5-6.7c-2.6,4.9-3.8,7.5-6,12.7c-5.5,2.2-8.2,3.3-13.3,5.7
	C101.6,150.7,103.9,146.8,106.4,143L106.4,143z"/>
<path class="st3" d="M119.7,135.9c5.1-2.5,7.7-3.7,13.1-5.9c-2.2,5.3-3.2,8.1-5.1,13.6c-5.7,1.9-8.5,2.9-13.9,5
	C115.9,143.4,117.1,140.9,119.7,135.9z"/>
<path class="st3" d="M133.6,129.7c5.5-2.3,8.3-3.3,14.1-5.2c-1.8,5.7-2.7,8.6-4.3,14.5c-6.1,1.6-9.1,2.5-14.9,4.4
	C130.4,137.7,131.4,135,133.6,129.7z"/>
<path class="st3" d="M148.6,124.1c5.7-1.9,8.6-2.7,14.5-4.3c-1.5,6-2.2,9-3.4,15.2c-6.2,1.3-9.3,2-15.3,3.6
	C145.9,132.8,146.8,129.8,148.6,124.1z"/>
<path class="st3" d="M164,119.6c6.1-1.6,9.2-2.3,15.5-3.5c-1.1,6.2-1.6,9.3-2.6,15.8c-6.6,1-9.9,1.6-16.3,3
	C161.9,128.6,162.6,125.6,164,119.6z"/>
<path class="st3" d="M180.5,115.9c6.2-1.2,9.3-1.7,15.7-2.5c-0.7,6.4-1.1,9.6-1.7,16.2c-6.7,0.7-10,1.1-16.5,2.1
	C178.9,125.3,179.4,122.1,180.5,115.9z"/>
<path class="st3" d="M197.1,113.3c6.5-0.8,9.8-1.1,16.5-1.6c-0.4,6.5-0.5,9.8-0.9,16.5c-7,0.4-10.5,0.6-17.3,1.3
	C196.1,122.9,196.4,119.7,197.1,113.3z"/>
<path class="st3" d="M214.7,111.6c6.6-0.4,9.9-0.5,16.6-0.5c0,6.5,0,9.8,0,16.6c-7,0-10.5,0.1-17.4,0.4
	C214.2,121.4,214.3,118.1,214.7,111.6z"/>
<path class="st3" d="M99,155.7c5.2-2.4,7.9-3.5,13.4-5.6c-2.2,5.2-3.2,7.9-5,13.3c-5.8,1.7-8.6,2.6-14.1,4.6
	C95,163.8,96.9,159.7,99,155.7L99,155.7z"/>
<path class="st3" d="M113.3,149.7c5.4-2.1,8.2-3.1,13.9-4.9c-1.9,5.6-2.7,8.5-4.3,14.3c-6,1.5-8.9,2.3-14.6,4
	C110.1,157.7,111.1,155,113.3,149.7z"/>
<path class="st3" d="M128.1,144.6c5.9-1.9,8.9-2.7,15-4.3c-1.6,6-2.3,9-3.6,15.2c-6.4,1.3-9.5,2-15.7,3.6
	C125.4,153,126.2,150.2,128.1,144.6z"/>
<path class="st3" d="M144,139.9c6-1.6,9.1-2.3,15.4-3.6c-1.2,6.2-1.8,9.4-2.9,15.9c-6.5,1-9.7,1.6-16,2.9
	C141.8,149,142.5,145.9,144,139.9z"/>
<path class="st3" d="M160.4,136.2c6.4-1.3,9.7-1.9,16.3-2.9c-0.9,6.5-1.4,9.8-2.2,16.5c-6.9,0.8-10.3,1.3-17,2.4
	C158.6,145.6,159.2,142.4,160.4,136.2z"/>
<path class="st3" d="M177.8,133.1c6.5-1,9.8-1.4,16.5-2.1c-0.6,6.6-0.9,10-1.5,16.9c-7,0.6-10.4,0.9-17.2,1.7
	C176.4,142.9,176.8,139.6,177.8,133.1z"/>
<path class="st3" d="M195.3,130.9c6.9-0.7,10.3-1,17.4-1.3c-0.3,6.7-0.5,10.2-0.7,17.2c-7.3,0.3-10.9,0.5-18,1.1
	C194.4,141,194.7,137.6,195.3,130.9z"/>
<path class="st3" d="M213.8,129.6c6.9-0.3,10.4-0.4,17.4-0.4c0,6.8,0,10.2,0,17.2c-7.3,0-10.9,0.1-18.1,0.3
	C213.4,139.8,213.5,136.4,213.8,129.6z"/>
<path class="st3" d="M92.9,169.1c5.5-1.9,8.3-2.8,14.1-4.5c-1.8,5.5-2.6,8.3-4,14c-6,1.3-9,2-14.7,3.4
	C89.6,177.6,91.2,173.3,92.9,169.1L92.9,169.1z"/>
<path class="st3" d="M107.9,164.3c5.7-1.7,8.6-2.4,14.6-3.9c-1.5,5.9-2.2,8.9-3.4,14.9c-6.2,1.1-9.2,1.7-15.2,3
	C105.3,172.6,106.1,169.8,107.9,164.3z"/>
<path class="st3" d="M123.5,160.2c6.1-1.5,9.3-2.2,15.7-3.5c-1.3,6.2-1.9,9.4-2.9,15.8c-6.6,1-9.9,1.5-16.3,2.7
	C121.3,169.1,122,166.1,123.5,160.2z"/>
<path class="st3" d="M140.2,156.5c6.3-1.2,9.5-1.8,16.1-2.8c-1,6.5-1.5,9.8-2.3,16.5c-6.8,0.8-10.1,1.2-16.7,2.2
	C138.4,165.9,139,162.8,140.2,156.5z"/>
<path class="st3" d="M157.3,153.5c6.7-1,10.1-1.5,17.1-2.4c-0.8,6.7-1.1,10.2-1.7,17.1c-7.2,0.6-10.7,1-17.6,1.8
	C155.9,163.3,156.3,160,157.3,153.5z"/>
<path class="st3" d="M175.5,151.1c6.8-0.8,10.2-1.1,17.2-1.7c-0.5,6.9-0.8,10.4-1.2,17.5c-7.1,0.4-10.7,0.7-17.8,1.3
	C174.4,161.2,174.7,157.8,175.5,151.1z"/>
<path class="st3" d="M193.8,149.3c7.2-0.5,10.7-0.8,18.1-1c-0.3,7-0.4,10.6-0.6,17.8c-7.5,0.2-11.3,0.4-18.6,0.8
	C193.1,159.7,193.3,156.2,193.8,149.3z"/>
<path class="st3" d="M213.1,148.3c7.2-0.3,10.8-0.3,18.1-0.3c0,7,0,10.6,0,17.9c-7.5,0-11.3,0.1-18.7,0.3
	C212.7,158.8,212.8,155.2,213.1,148.3z"/>
<path class="st3" d="M88,183.1c5.7-1.4,8.7-2.1,14.7-3.3c-1.4,5.7-2,8.6-2.9,14.5c-6.2,0.9-9.2,1.3-15.1,2.3
	C85.5,192,86.6,187.5,88,183.1L88,183.1z"/>
<path class="st3" d="M103.7,179.6c6-1.2,9-1.8,15.2-2.9c-1.2,6.1-1.7,9.2-2.5,15.5c-6.4,0.8-9.5,1.2-15.6,2
	C101.7,188.2,102.3,185.3,103.7,179.6z"/>
<path class="st3" d="M119.9,176.5c6.4-1.1,9.6-1.6,16.3-2.6c-1,6.4-1.4,9.7-2.1,16.3c-6.8,0.7-10.2,1-16.7,1.8
	C118.2,185.7,118.7,182.6,119.9,176.5z"/>
<path class="st3" d="M137.2,173.8c6.5-0.9,9.9-1.4,16.7-2.1c-0.8,6.7-1.1,10.1-1.7,17.1c-6.9,0.5-10.3,0.8-17,1.5
	C135.8,183.5,136.2,180.2,137.2,173.8z"/>
<path class="st3" d="M154.9,171.5c6.9-0.8,10.5-1.1,17.6-1.7c-0.6,7-0.8,10.5-1.2,17.6c-7.3,0.4-10.9,0.7-18,1.2
	C153.8,181.6,154.1,178.2,154.9,171.5z"/>
<path class="st3" d="M173.7,169.7c7-0.6,10.6-0.8,17.9-1.2c-0.4,7.1-0.6,10.7-0.8,18.1c-7.4,0.3-11,0.5-18.2,0.8
	C172.8,180.2,173.1,176.7,173.7,169.7z"/>
<path class="st3" d="M192.6,168.4c7.4-0.4,11.1-0.6,18.7-0.8c-0.2,7.2-0.3,10.9-0.4,18.3c-7.7,0.2-11.5,0.3-19.1,0.5
	C192.1,179.1,192.2,175.5,192.6,168.4z"/>
<path class="st3" d="M212.5,167.6c7.4-0.2,11.2-0.3,18.7-0.3c0,7.3,0,10.9,0,18.4c-7.7,0-11.5,0-19.1,0.2
	C212.2,178.5,212.3,174.8,212.5,167.6z"/>
<path class="st3" d="M84.5,197.7c5.9-0.9,8.9-1.4,15.1-2.2c-0.9,6-1.3,8.9-1.8,15c-6.3,0.4-9.4,0.7-15.4,1.2
	C82.8,207,83.5,202.4,84.5,197.7L84.5,197.7z"/>
<path class="st3" d="M100.6,195.4c6.1-0.8,9.2-1.2,15.6-1.9c-0.8,6.3-1.1,9.5-1.5,16c-6.5,0.4-9.7,0.6-15.9,1
	C99.3,204.3,99.6,201.3,100.6,195.4z"/>
<path class="st3" d="M117.2,193.4c6.6-0.7,9.9-1.1,16.7-1.7c-0.7,6.6-0.9,10-1.3,16.8c-6.9,0.3-10.3,0.5-17,0.9
	C116.1,202.9,116.4,199.7,117.2,193.4z"/>
<path class="st3" d="M135,191.6c6.7-0.6,10.1-0.9,17.1-1.4c-0.5,6.9-0.7,10.4-1,17.5c-7,0.3-10.5,0.4-17.3,0.7
	C134.1,201.6,134.3,198.2,135,191.6z"/>
<path class="st3" d="M153.2,190.1c7.1-0.5,10.7-0.7,18.1-1.2c-0.4,7.2-0.5,10.7-0.8,18.1c-7.4,0.2-11.1,0.3-18.3,0.6
	C152.4,200.5,152.6,197,153.2,190.1z"/>
<path class="st3" d="M172.4,188.9c7.2-0.4,10.8-0.5,18.2-0.8c-0.3,7.3-0.4,11-0.5,18.5c-7.5,0.1-11.2,0.2-18.5,0.4
	C171.8,199.7,172,196.1,172.4,188.9z"/>
<path class="st3" d="M191.7,188c7.6-0.3,11.4-0.4,19.1-0.5c-0.1,7.4-0.2,11.2-0.3,18.8c-7.8,0.1-11.7,0.1-19.4,0.3
	C191.4,199.1,191.5,195.4,191.7,188z"/>
<path class="st3" d="M212,187.5c7.6-0.1,11.4-0.2,19.1-0.2c0,7.5,0,11.3,0,18.9c-7.8,0-11.7,0-19.4,0.1
	C211.9,198.7,211.9,194.9,212,187.5z"/>
<path class="st3" d="M82.3,212.9c6-0.5,9.1-0.7,15.4-1.1c-0.5,6.1-0.6,9.2-0.6,15.4H81.6C81.6,222.4,81.8,217.6,82.3,212.9
	L82.3,212.9z"/>
<path class="st3" d="M98.7,211.7c6.2-0.4,9.4-0.6,15.9-0.9c-0.4,6.5-0.5,9.7-0.5,16.4h-16C98.1,221,98.2,217.9,98.7,211.7z"/>
<path class="st3" d="M115.6,210.8c6.7-0.4,10.1-0.5,17-0.8c-0.3,6.8-0.4,10.3-0.4,17.2h-17.1C115.1,220.5,115.2,217.3,115.6,210.8z"
	/>
<path class="st3" d="M133.6,209.9c6.8-0.3,10.3-0.4,17.3-0.7c-0.3,7.2-0.3,10.7-0.3,17.9h-17.4C133.3,220.2,133.3,216.7,133.6,209.9
	z"/>
<path class="st3" d="M152.1,209.2c7.2-0.3,10.9-0.4,18.3-0.6c-0.2,7.3-0.3,11-0.3,18.5h-18.4C151.7,219.9,151.8,216.3,152.1,209.2z"
	/>
<path class="st3" d="M171.6,208.6c7.3-0.2,11-0.3,18.5-0.4c-0.1,7.5-0.2,11.3-0.2,18.9h-18.6C171.3,219.6,171.4,215.9,171.6,208.6z"
	/>
<path class="st3" d="M191.2,208.2c7.7-0.1,11.5-0.2,19.4-0.2c-0.1,7.6-0.1,11.4-0.1,19.2h-19.4C191.1,219.5,191.1,215.7,191.2,208.2
	z"/>
<path class="st3" d="M211.8,207.9c7.7,0,11.6-0.1,19.4-0.1v19.3h-19.4C211.7,219.4,211.7,215.5,211.8,207.9z"/>
<path class="st3" d="M231.9,77.6c4.9,0,9.9,0.2,14.8,0.7c0.4,5.8,0.7,8.8,1.1,14.9c-6.2-0.5-9.4-0.6-15.8-0.6
	C231.9,86.5,231.9,83.4,231.9,77.6z"/>
<path class="st3" d="M247.5,78.4c4.7,0.4,9.4,1.1,14.1,2.1c0.9,5.7,1.3,8.6,2.2,14.7c-6-1-9-1.3-15.1-1.8
	C248.2,87.2,248,84.2,247.5,78.4z"/>
<path class="st3" d="M262.5,80.6c4.7,0.9,9.3,2,13.9,3.4c1.4,5.5,2,8.3,3.3,14.3c-5.9-1.4-8.8-2-14.9-3
	C263.8,89.3,263.4,86.3,262.5,80.6z"/>
<path class="st3" d="M277.2,84.3c4.4,1.3,8.8,2.8,13,4.6c1.8,5.3,2.7,8.1,4.4,13.7c-5.5-1.8-8.3-2.6-14-4.1
	C279.2,92.7,278.6,89.9,277.2,84.3z"/>
<path class="st3" d="M291,89.2c4.3,1.7,8.6,3.7,12.7,5.9c2.3,5,3.4,7.6,5.5,13c-5.4-2.3-8.1-3.3-13.7-5.2
	C293.7,97.3,292.8,94.5,291,89.2z"/>
<path class="st3" d="M304.4,95.5c4,2.1,7.9,4.4,11.7,6.8c2.8,4.7,4.1,7.2,6.6,12.1c-5-2.6-7.5-3.8-12.7-6.1
	C307.9,103.1,306.7,100.5,304.4,95.5z"/>
<path class="st3" d="M316.9,102.8c3.9,2.5,7.6,5.2,11.2,8c3.2,4.3,4.8,6.5,7.7,11.1c-4.8-3-7.1-4.4-12.3-7.2
	C321,109.9,319.6,107.5,316.9,102.8z"/>
<path class="st3" d="M328.7,111.4c3.5,2.8,6.9,5.7,10.2,8.8c3.1,3.2,6,6.6,8.8,10.1c-4.3-3.3-6.6-4.8-11.2-7.8
	C333.5,117.9,332,115.7,328.7,111.4z"/>
<path class="st3" d="M231.9,93.9c6.4,0,9.6,0.1,15.9,0.6c0.4,6.1,0.6,9.3,0.9,15.7c-6.7-0.4-10-0.5-16.8-0.5
	C231.9,103.3,231.9,100.1,231.9,93.9z"/>
<path class="st3" d="M248.8,94.7c6.1,0.5,9.2,0.9,15.2,1.8c0.8,6.1,1.2,9.2,1.9,15.5c-6.3-0.8-9.5-1.1-16.1-1.6
	C249.4,103.9,249.2,100.8,248.8,94.7z"/>
<path class="st3" d="M264.9,96.6c6.1,1,9.1,1.6,15,3c1.2,5.9,1.8,8.9,2.9,15.1c-6.3-1.2-9.5-1.8-15.9-2.6
	C266.1,105.7,265.7,102.6,264.9,96.6z"/>
<path class="st3" d="M280.8,99.8c5.8,1.4,8.6,2.2,14.1,4c1.6,5.7,2.4,8.6,3.9,14.5c-6-1.5-8.9-2.3-15.1-3.5
	C282.6,108.7,282,105.7,280.8,99.8z"/>
<path class="st3" d="M295.8,104.1c5.6,1.9,8.4,2.9,13.8,5.1c2.1,5.4,3,8.1,4.9,13.8c-5.8-1.9-8.7-2.8-14.7-4.5
	C298.2,112.6,297.4,109.7,295.8,104.1z"/>
<path class="st3" d="M310.4,109.6c5.3,2.2,7.8,3.4,12.8,6c2.5,5,3.6,7.6,5.8,13c-5.4-2.2-8.1-3.3-13.7-5.2
	C313.5,117.7,312.5,114.9,310.4,109.6z"/>
<path class="st3" d="M324,116c5.1,2.6,7.6,4.1,12.3,7c2.9,4.6,4.3,7,6.8,11.9c-5.2-2.6-7.8-3.8-13.3-6.1
	C327.7,123.6,326.5,121,324,116z"/>
<path class="st3" d="M337.1,123.5c4.7,2.9,6.9,4.5,11.2,7.7c2.8,3.5,5.4,7.1,7.8,10.9c-4.7-2.8-7.1-4.1-12.2-6.7
	C341.4,130.5,340,128.1,337.1,123.5z"/>
<path class="st3" d="M231.9,111.1c6.8,0,10.2,0.1,16.9,0.5c0.4,6.5,0.5,9.8,0.8,16.5c-7-0.3-10.6-0.4-17.7-0.5
	C231.9,120.9,231.9,117.6,231.9,111.1z"/>
<path class="st3" d="M249.9,111.7c6.5,0.4,9.8,0.8,16.1,1.5c0.7,6.4,1,9.6,1.7,16.2c-6.7-0.7-10.1-0.9-16.9-1.3
	C250.4,121.5,250.2,118.2,249.9,111.7z"/>
<path class="st3" d="M267,113.4c6.5,0.8,9.7,1.4,16,2.6c1.1,6.2,1.6,9.4,2.5,15.8c-6.6-1-10-1.5-16.8-2.2
	C268.1,123,267.7,119.8,267,113.4z"/>
<path class="st3" d="M284,116.2c6.2,1.2,9.2,1.9,15.1,3.4c1.4,6,2.1,9,3.4,15.3c-6.3-1.3-9.4-1.9-15.9-2.9
	C285.6,125.5,285.1,122.3,284,116.2z"/>
<path class="st3" d="M300,119.8c6.1,1.6,9,2.5,14.8,4.4c1.8,5.7,2.7,8.6,4.2,14.5c-6.1-1.6-9.2-2.4-15.6-3.7
	C302.2,128.8,301.5,125.8,300,119.8z"/>
<path class="st3" d="M315.7,124.5c5.7,1.9,8.4,2.9,13.8,5.1c2.2,5.3,3.2,8.1,5.1,13.7c-5.7-1.9-8.6-2.7-14.6-4.3
	C318.4,133.1,317.6,130.2,315.7,124.5z"/>
<path class="st3" d="M330.4,130c5.5,2.3,8.2,3.5,13.3,6c2.5,4.9,3.7,7.5,6,12.7c-5.5-2.2-8.3-3.2-14.1-5.1
	C333.6,138.1,332.6,135.3,330.4,130z"/>
<path class="st3" d="M344.5,136.4c5.1,2.5,7.5,3.8,12.2,6.6c2.5,3.8,4.7,7.6,6.8,11.6c-5.1-2.4-7.7-3.5-13-5.6
	C348.3,143.9,347.1,141.3,344.5,136.4z"/>
<path class="st3" d="M231.9,129.2c7.2,0,10.7,0.1,17.8,0.4c0.3,6.7,0.4,10.2,0.7,17.2c-7.3-0.3-11-0.4-18.5-0.4
	C231.9,139.4,231.9,135.9,231.9,129.2z"/>
<path class="st3" d="M250.8,129.7c6.9,0.4,10.3,0.6,17,1.3c0.6,6.6,0.9,10,1.4,16.9c-7-0.5-10.5-0.8-17.7-1
	C251.2,139.8,251.1,136.4,250.8,129.7z"/>
<path class="st3" d="M268.9,131c6.9,0.7,10.2,1.1,16.9,2.1c0.9,6.5,1.4,9.8,2.1,16.5c-6.9-0.8-10.4-1.2-17.6-1.7
	C269.8,141.1,269.5,137.7,268.9,131z"/>
<path class="st3" d="M286.8,133.3c6.5,1,9.7,1.6,16,2.9c1.2,6.2,1.8,9.4,2.8,15.9c-6.6-1-9.9-1.5-16.7-2.3
	C288.2,143.1,287.7,139.8,286.8,133.3z"/>
<path class="st3" d="M303.7,136.4c6.4,1.3,9.5,2.1,15.7,3.7c1.5,6,2.3,9,3.6,15.2c-6.4-1.3-9.7-1.9-16.4-3
	C305.6,145.8,305,142.6,303.7,136.4z"/>
<path class="st3" d="M320.4,140.3c6,1.6,9,2.4,14.7,4.3c1.9,5.6,2.7,8.5,4.3,14.4c-6-1.5-9.1-2.2-15.3-3.5
	C322.7,149.3,321.9,146.2,320.4,140.3z"/>
<path class="st3" d="M335.9,144.8c5.8,1.9,8.7,2.9,14.2,5c2.2,5.2,3.2,7.9,5,13.4c-5.8-1.7-8.8-2.6-14.9-4.1
	C338.7,153.3,337.8,150.5,335.9,144.8z"/>
<path class="st3" d="M351,150.2c5.4,2.1,8,3.2,13.1,5.5c2.1,4,4,8.1,5.7,12.3c-5.4-1.9-8.1-2.8-13.8-4.5
	C354.2,158.1,353.2,155.4,351,150.2z"/>
<path class="st3" d="M231.9,147.9c7.5,0,11.2,0.1,18.5,0.3c0.2,7,0.4,10.6,0.5,17.8c-7.5-0.2-11.4-0.3-19.1-0.3
	C232,158.5,232,154.9,231.9,147.9z"/>
<path class="st3" d="M251.6,148.3c7.2,0.3,10.7,0.5,17.7,1c0.5,6.9,0.7,10.4,1.1,17.5c-7.2-0.4-10.9-0.6-18.2-0.8
	C252,158.9,251.9,155.3,251.6,148.3z"/>
<path class="st3" d="M270.4,149.5c7.1,0.6,10.7,0.9,17.6,1.7c0.8,6.7,1.1,10.2,1.7,17.1c-7.2-0.6-10.8-0.9-18.1-1.3
	C271.2,159.8,270.9,156.3,270.4,149.5z"/>
<path class="st3" d="M289.1,151.2c6.8,0.8,10.1,1.2,16.7,2.3c1,6.5,1.5,9.8,2.3,16.5c-6.8-0.8-10.2-1.1-17.2-1.7
	C290.2,161.4,289.9,158,289.1,151.2z"/>
<path class="st3" d="M306.8,153.7c6.7,1.1,10,1.6,16.4,2.9c1.3,6.2,1.8,9.4,2.8,15.8c-6.7-1-10.1-1.4-17-2.2
	C308.3,163.5,307.9,160.2,306.8,153.7z"/>
<path class="st3" d="M324.2,156.8c6.3,1.2,9.4,1.9,15.4,3.4c1.5,5.9,2.2,8.9,3.4,15c-6.2-1.1-9.4-1.6-15.9-2.6
	C326.1,166.2,325.5,163,324.2,156.8z"/>
<path class="st3" d="M340.6,160.4c6.1,1.5,9.1,2.3,15,4c1.8,5.5,2.6,8.3,4,14c-6-1.3-9.2-1.9-15.5-3.1
	C342.8,169.3,342.1,166.3,340.6,160.4z"/>
<path class="st3" d="M356.4,164.7c5.7,1.7,8.4,2.6,13.8,4.4c1.7,4.2,3.3,8.5,4.5,12.9c-5.6-1.4-8.5-2.1-14.3-3.4
	C359,172.9,358.2,170.1,356.4,164.7z"/>
<path class="st3" d="M232,167.3c7.7,0,11.5,0.1,19.1,0.3c0.2,7.2,0.3,10.9,0.4,18.3c-7.7-0.1-11.6-0.2-19.5-0.2
	C232,178.3,232,174.6,232,167.3z"/>
<path class="st3" d="M252.2,167.6c7.4,0.2,11,0.4,18.3,0.8c0.4,7.1,0.5,10.7,0.8,18.1c-7.4-0.3-11.1-0.4-18.7-0.5
	C252.5,178.5,252.4,174.8,252.2,167.6z"/>
<path class="st3" d="M291,169.8c7,0.6,10.5,0.9,17.3,1.7c0.8,6.7,1.1,10.2,1.7,17.1c-7-0.5-10.5-0.8-17.7-1.2
	C291.8,180.3,291.5,176.8,291,169.8z"/>
<path class="st3" d="M309.3,171.6c6.9,0.8,10.3,1.2,17,2.2c1,6.4,1.4,9.7,2.1,16.4c-6.8-0.7-10.3-1-17.4-1.5
	C310.4,181.8,310.1,178.4,309.3,171.6z"/>
<path class="st3" d="M327.3,173.9c6.5,0.9,9.7,1.5,16,2.5c1.2,6.1,1.7,9.2,2.5,15.5c-6.4-0.7-9.7-1.1-16.4-1.7
	C328.7,183.7,328.3,180.4,327.3,173.9z"/>
<path class="st3" d="M344.3,176.7c6.4,1.1,9.5,1.7,15.5,3c1.4,5.7,1.9,8.6,2.9,14.6c-6.2-0.9-9.4-1.3-15.9-2.1
	C346,185.9,345.4,182.8,344.3,176.7z"/>
<path class="st3" d="M360.7,179.8c6,1.2,8.8,1.9,14.4,3.3c1.3,4.4,2.5,8.9,3.3,13.5c-5.7-0.9-8.7-1.4-14.8-2.3
	C362.7,188.4,362.1,185.5,360.7,179.8z"/>
<path class="st3" d="M271.7,168.4c7.4,0.4,11,0.7,18.2,1.3c0.6,7,0.8,10.5,1.2,17.6c-7.3-0.4-11-0.6-18.6-0.9
	C272.2,179.2,272.1,175.6,271.7,168.4z"/>
<path class="st3" d="M232,187.3c7.9,0,11.8,0,19.5,0.2c0.1,7.4,0.2,11.2,0.3,18.8c-7.8-0.1-11.8-0.1-19.8-0.1
	C232,198.6,232,194.8,232,187.3z"/>
<path class="st3" d="M252.7,187.5c7.6,0.1,11.3,0.3,18.7,0.5c0.3,7.3,0.4,11,0.5,18.5c-7.5-0.1-11.3-0.2-18.9-0.3
	C252.9,198.7,252.8,194.9,252.7,187.5z"/>
<path class="st3" d="M272.6,188.1c7.5,0.3,11.3,0.4,18.6,0.8c0.4,7.2,0.5,10.8,0.8,18.1c-7.4-0.2-11.2-0.3-18.9-0.4
	C272.9,199.1,272.8,195.4,272.6,188.1z"/>
<path class="st3" d="M292.3,189c7.1,0.4,10.7,0.6,17.7,1.1c0.5,6.9,0.7,10.5,1,17.6c-7.1-0.3-10.6-0.4-17.9-0.6
	C292.9,199.7,292.7,196.1,292.3,189z"/>
<path class="st3" d="M311.1,190.2c7.2,0.5,10.6,0.8,17.4,1.4c0.7,6.7,0.9,10,1.3,16.9c-6.9-0.3-10.5-0.5-17.7-0.8
	C311.8,200.6,311.6,197.1,311.1,190.2z"/>
<path class="st3" d="M329.6,191.7c6.7,0.6,10,1,16.4,1.7c0.8,6.3,1.1,9.5,1.5,16c-6.5-0.4-9.8-0.6-16.6-0.9
	C330.5,201.7,330.2,198.3,329.6,191.7z"/>
<path class="st3" d="M347,193.5c6.5,0.7,9.7,1.1,16,2c0.9,6,1.3,8.9,1.8,15c-6.3-0.4-9.5-0.6-16.2-1
	C348.1,203,347.8,199.8,347,193.5z"/>
<path class="st3" d="M363.9,195.6c6.1,0.8,9,1.3,14.8,2.2c0.9,4.6,1.6,9.3,2,13.9c-5.9-0.5-8.9-0.7-15-1.1
	C365.2,204.5,364.8,201.5,363.9,195.6z"/>
<path class="st3" d="M232,207.9c8,0,11.9,0,19.8,0.1c0.1,7.6,0.1,11.5,0.1,19.2H232V207.9z"/>
<path class="st3" d="M253,207.9c7.7,0.1,11.5,0.1,18.9,0.2c0.1,7.5,0.2,11.3,0.2,19H253C253.1,219.4,253,215.5,253,207.9z"/>
<path class="st3" d="M273.1,208.2c7.7,0.1,11.4,0.2,18.9,0.4c0.2,7.3,0.2,11.1,0.3,18.5h-18.9C273.3,219.5,273.2,215.7,273.1,208.2z
	"/>
<path class="st3" d="M293.1,208.6c7.3,0.2,10.9,0.3,17.9,0.5c0.3,7.2,0.3,10.7,0.3,18h-18C293.4,219.7,293.3,216,293.1,208.6z"/>
<path class="st3" d="M312.2,209.2c7.1,0.3,10.7,0.4,17.7,0.7c0.3,6.8,0.4,10.3,0.4,17.3h-17.8C312.5,219.9,312.4,216.3,312.2,209.2z
	"/>
<path class="st3" d="M330.9,209.9c6.8,0.3,10.1,0.5,16.7,0.8c0.4,6.5,0.5,9.8,0.5,16.4h-16.7C331.3,220.2,331.3,216.8,330.9,209.9z"
	/>
<path class="st3" d="M348.6,210.8c6.6,0.4,9.9,0.5,16.2,1c0.5,6.1,0.6,9.2,0.6,15.4h-16.3C349.1,220.6,349,217.3,348.6,210.8z"/>
<path class="st3" d="M365.8,211.8c6.2,0.4,9.2,0.6,15.1,1c0.5,4.8,0.7,9.5,0.7,14.3h-15.1C366.4,221,366.2,217.9,365.8,211.8z"/>
<path class="st3" d="M81.6,227.8h15.5c0,6.2,0.1,9.3,0.6,15.4c-6.3-0.4-9.4-0.6-15.4-1.1C81.8,237.4,81.6,232.6,81.6,227.8
	L81.6,227.8z"/>
<path class="st3" d="M98.1,227.9h16c0,6.6,0.1,9.9,0.5,16.4c-6.5-0.3-9.7-0.5-15.9-0.9C98.2,237.2,98.1,234.1,98.1,227.9z"/>
<path class="st3" d="M115.1,227.9h17.1c0,7,0.1,10.4,0.4,17.2c-6.9-0.3-10.3-0.5-17-0.8C115.2,237.8,115.1,234.5,115.1,227.9z"/>
<path class="st3" d="M133.3,227.9h17.4c0,7.2,0.1,10.8,0.3,17.9c-7.1-0.2-10.5-0.4-17.3-0.7C133.3,238.3,133.3,234.9,133.3,227.9z"
	/>
<path class="st3" d="M151.7,227.9h18.4c0,7.5,0,11.2,0.3,18.5c-7.4-0.2-11.1-0.3-18.3-0.6C151.8,238.8,151.7,235.2,151.7,227.9z"/>
<path class="st3" d="M171.3,227.9h18.6c0,7.6,0,11.4,0.2,18.9c-7.5-0.1-11.2-0.2-18.5-0.4C171.4,239.1,171.3,235.4,171.3,227.9z"/>
<path class="st3" d="M191.1,227.9h19.4c0,7.7,0,11.6,0.1,19.2c-7.8,0-11.7-0.1-19.4-0.2C191.1,239.4,191.1,235.6,191.1,227.9z"/>
<path class="st3" d="M211.7,227.9h19.4v19.2c-7.8,0-11.7,0-19.4-0.1C211.7,239.5,211.7,235.7,211.7,227.9z"/>
<path class="st3" d="M82.4,243.4c6,0.5,9.1,0.7,15.4,1.2c0.5,6.1,0.9,9.1,1.8,15c-6.2-0.8-9.2-1.3-15.1-2.2
	C83.5,252.7,82.8,248.1,82.4,243.4L82.4,243.4z"/>
<path class="st3" d="M98.8,244.6c6.2,0.4,9.4,0.6,15.9,1c0.4,6.5,0.7,9.7,1.5,16c-6.4-0.7-9.5-1.1-15.6-1.9
	C99.6,253.7,99.3,250.8,98.8,244.6z"/>
<path class="st3" d="M115.7,245.7c6.6,0.4,10,0.6,17,0.9c0.4,6.8,0.6,10.2,1.3,16.8c-6.8-0.6-10.2-1-16.7-1.7
	C116.4,255.4,116.1,252.2,115.7,245.7z"/>
<path class="st3" d="M133.7,246.6c6.8,0.3,10.3,0.5,17.3,0.7c0.3,7.1,0.5,10.6,1,17.5c-6.9-0.5-10.4-0.8-17.1-1.4
	C134.3,256.8,134.1,253.4,133.7,246.6z"/>
<path class="st3" d="M152.1,247.4c7.2,0.3,10.9,0.4,18.3,0.6c0.2,7.3,0.4,10.9,0.8,18.1c-7.3-0.4-11-0.6-18.1-1.2
	C152.6,258,152.4,254.5,152.1,247.4z"/>
<path class="st3" d="M171.6,248c7.3,0.2,11,0.3,18.5,0.4c0.1,7.5,0.3,11.2,0.5,18.5c-7.4-0.3-11-0.4-18.2-0.8
	C172,259,171.8,255.4,171.6,248z"/>
<path class="st3" d="M191.2,248.5c7.7,0.1,11.5,0.2,19.4,0.3c0.1,7.6,0.1,11.4,0.3,18.8c-7.7-0.1-11.6-0.2-19.1-0.5
	C191.5,259.7,191.4,256,191.2,248.5z"/>
<path class="st3" d="M211.8,248.8c7.7,0,11.5,0.1,19.4,0.1c0,7.6,0,11.4,0,18.9c-7.7,0-11.5,0-19.1-0.2
	C211.9,260.1,211.9,256.4,211.8,248.8z"/>
<path class="st3" d="M84.7,258.5c5.9,1,8.9,1.4,15.1,2.3c1,5.9,1.5,8.8,2.9,14.5c-6-1.3-9-1.9-14.7-3.3
	C86.7,267.5,85.6,263,84.7,258.5L84.7,258.5z"/>
<path class="st3" d="M100.7,260.9c6.1,0.8,9.2,1.2,15.6,2c0.8,6.3,1.3,9.4,2.5,15.5c-6.2-1.1-9.3-1.7-15.2-2.9
	C102.3,269.7,101.7,266.8,100.7,260.9z"/>
<path class="st3" d="M117.4,263c6.5,0.8,9.9,1.1,16.7,1.8c0.7,6.6,1.1,9.9,2.1,16.3c-6.7-1-9.9-1.5-16.3-2.6
	C118.7,272.5,118.2,269.3,117.4,263z"/>
<path class="st3" d="M135.1,264.9c6.7,0.6,10.1,0.9,17,1.5c0.6,6.9,0.9,10.3,1.7,17.1c-6.8-0.8-10.1-1.2-16.7-2.1
	C136.2,274.8,135.8,271.6,135.1,264.9z"/>
<path class="st3" d="M153.3,266.5c7.2,0.5,10.7,0.8,18,1.2c0.4,7.1,0.7,10.7,1.2,17.6c-7.2-0.6-10.7-1-17.6-1.7
	C154.1,276.8,153.8,273.4,153.3,266.5z"/>
<path class="st3" d="M172.4,267.7c7.1,0.4,10.8,0.6,18.2,0.8c0.3,7.3,0.5,10.9,0.8,18.1c-7.2-0.4-10.8-0.7-17.9-1.2
	C173.1,278.4,172.8,274.9,172.4,267.7z"/>
<path class="st3" d="M191.8,268.6c7.5,0.3,11.4,0.4,19.1,0.5c0.1,7.4,0.2,11.1,0.4,18.3c-7.6-0.2-11.3-0.4-18.7-0.8
	C192.2,279.5,192.1,275.9,191.8,268.6z"/>
<path class="st3" d="M212.1,269.2c7.6,0.1,11.4,0.2,19.1,0.2c0,7.5,0,11.1,0,18.4c-7.6,0-11.3,0-18.7-0.3
	C212.3,280.2,212.2,276.6,212.1,269.2z"/>
<path class="st3" d="M88.3,273.1c5.7,1.4,8.6,2.1,14.7,3.4c1.4,5.7,2.2,8.5,4,14c-5.8-1.7-8.6-2.6-14.1-4.5
	C91.2,281.8,89.6,277.5,88.3,273.1L88.3,273.1z"/>
<path class="st3" d="M103.9,276.7c6,1.3,9,1.9,15.2,3c1.2,6.1,1.9,9.1,3.4,14.9c-6-1.5-8.9-2.3-14.6-3.9
	C106.1,285.2,105.3,282.4,103.9,276.7z"/>
<path class="st3" d="M120.1,279.9c6.4,1.2,9.6,1.7,16.3,2.7c1,6.4,1.6,9.5,2.9,15.8c-6.4-1.3-9.5-2-15.7-3.5
	C122,289,121.3,286,120.1,279.9z"/>
<path class="st3" d="M137.4,282.7c6.5,1,9.9,1.4,16.7,2.2c0.8,6.7,1.3,10,2.3,16.5c-6.6-1-9.8-1.6-16.1-2.8
	C139,292.3,138.4,289.1,137.4,282.7z"/>
<path class="st3" d="M155.1,285c6.9,0.8,10.5,1.2,17.6,1.8c0.6,6.9,0.9,10.4,1.7,17.1c-6.9-0.8-10.3-1.3-17.1-2.3
	C156.3,295,155.9,291.7,155.1,285z"/>
<path class="st3" d="M173.8,286.9c7,0.6,10.6,0.9,17.8,1.3c0.4,7.1,0.6,10.6,1.2,17.5c-7-0.5-10.4-0.9-17.2-1.7
	C174.7,297.2,174.4,293.8,173.8,286.9z"/>
<path class="st3" d="M192.7,288.2c7.4,0.4,11.1,0.6,18.6,0.8c0.2,7.2,0.3,10.7,0.6,17.8c-7.3-0.3-10.9-0.5-18.1-1
	C193.3,298.8,193.1,295.3,192.7,288.2z"/>
<path class="st3" d="M212.5,289c7.4,0.2,11.1,0.3,18.7,0.3c0,7.2,0,10.8,0,17.9c-7.3,0-11-0.1-18.1-0.3
	C212.8,299.8,212.7,296.2,212.5,289z"/>
<path class="st3" d="M93.3,287.1c5.5,1.9,8.3,2.8,14.1,4.6c1.8,5.4,2.8,8.1,5,13.3c-5.5-2.1-8.2-3.3-13.4-5.6
	C96.9,295.4,95,291.3,93.3,287.1L93.3,287.1z"/>
<path class="st3" d="M108.3,291.9c5.7,1.7,8.6,2.5,14.6,4c1.6,5.9,2.4,8.7,4.3,14.3c-5.7-1.8-8.5-2.8-13.9-4.9
	C111.1,300.1,110.1,297.4,108.3,291.9z"/>
<path class="st3" d="M123.8,296.1c6.1,1.5,9.3,2.2,15.7,3.6c1.3,6.2,2,9.2,3.6,15.2c-6.1-1.6-9.1-2.5-15-4.4
	C126.2,304.9,125.4,302,123.8,296.1z"/>
<path class="st3" d="M140.5,299.9c6.3,1.3,9.5,1.9,16,2.9c1,6.5,1.6,9.7,2.9,15.9c-6.3-1.3-9.3-2-15.4-3.6
	C142.5,309.2,141.8,306.1,140.5,299.9z"/>
<path class="st3" d="M157.6,302.9c6.7,1.1,10.1,1.5,17,2.4c0.8,6.7,1.2,10,2.2,16.5c-6.6-1-9.9-1.6-16.3-2.9
	C159.2,312.6,158.6,309.4,157.6,302.9z"/>
<path class="st3" d="M175.6,305.4c6.8,0.8,10.2,1.2,17.2,1.7c0.5,6.9,0.8,10.2,1.5,16.9c-6.7-0.7-10-1.1-16.5-2.1
	C176.8,315.5,176.4,312.1,175.6,305.4z"/>
<path class="st3" d="M193.9,307.2c7.2,0.5,10.7,0.8,18,1.1c0.3,7,0.4,10.4,0.7,17.2c-7-0.4-10.5-0.6-17.4-1.3
	C194.7,317.5,194.4,314.1,193.9,307.2z"/>
<path class="st3" d="M213.1,308.3c7.2,0.3,10.7,0.3,18.1,0.3c0,7,0,10.5,0,17.2c-7,0-10.5-0.1-17.4-0.4
	C213.5,318.7,213.4,315.3,213.1,308.3z"/>
<path class="st3" d="M99.6,300.4c5.2,2.4,7.8,3.6,13.3,5.7c2.2,5.2,3.4,7.7,6,12.7c-5.2-2.6-7.7-3.9-12.5-6.7
	C103.9,308.3,101.6,304.4,99.6,300.4L99.6,300.4z"/>
<path class="st3" d="M113.7,306.4c5.4,2.1,8.2,3.1,13.9,5c1.9,5.6,2.9,8.3,5.1,13.6c-5.4-2.2-8-3.4-13.1-5.9
	C117.1,314.2,115.9,311.6,113.7,306.4z"/>
<path class="st3" d="M128.5,311.7c5.8,1.9,8.8,2.8,14.9,4.4c1.6,6,2.4,8.8,4.3,14.5c-5.8-1.9-8.6-3-14.1-5.2
	C131.4,320.1,130.4,317.3,128.5,311.7z"/>
<path class="st3" d="M144.4,316.3c6,1.6,9.1,2.3,15.3,3.6c1.3,6.2,2,9.3,3.4,15.2c-6-1.6-8.8-2.4-14.5-4.3
	C146.8,325.2,145.9,322.3,144.4,316.3z"/>
<path class="st3" d="M160.7,320.2c6.4,1.3,9.6,1.9,16.3,3c1,6.5,1.5,9.6,2.6,15.8c-6.3-1.2-9.4-1.9-15.5-3.5
	C162.6,329.5,161.9,326.4,160.7,320.2z"/>
<path class="st3" d="M178,323.3c6.5,1,9.8,1.4,16.5,2.1c0.6,6.6,1,9.9,1.7,16.2c-6.4-0.8-9.5-1.3-15.7-2.5
	C179.4,333,178.9,329.8,178,323.3z"/>
<path class="st3" d="M195.5,325.5c6.8,0.7,10.3,1,17.3,1.3c0.3,6.7,0.5,10,0.9,16.5c-6.7-0.4-10-0.8-16.5-1.6
	C196.4,335.4,196.1,332.2,195.5,325.5z"/>
<path class="st3" d="M213.8,326.9c6.9,0.3,10.3,0.4,17.4,0.4c0,6.8,0,10.1,0,16.6c-6.7,0-10-0.1-16.6-0.5
	C214.3,337,214.2,333.6,213.8,326.9z"/>
<path class="st3" d="M107,313c4.8,2.9,7.3,4.2,12.4,6.8c2.6,4.9,4,7.3,6.9,11.9c-4.8-3-7.1-4.6-11.5-7.9
	C112,320.4,109.4,316.8,107,313z"/>
<path class="st3" d="M120.2,320.2c5.1,2.5,7.7,3.7,13,6c2.2,5.3,3.4,7.9,6,12.9c-5-2.6-7.4-4-12.1-6.9
	C124.1,327.6,122.8,325.2,120.2,320.2z"/>
<path class="st3" d="M134.1,326.5c5.5,2.3,8.3,3.3,14,5.3c1.8,5.6,2.8,8.4,4.9,13.8c-5.4-2.3-8-3.5-13.1-6.1
	C137.4,334.4,136.3,331.9,134.1,326.5z"/>
<path class="st3" d="M149,332.1c5.6,1.9,8.5,2.8,14.4,4.3c1.5,6,2.3,8.8,3.9,14.5c-5.5-1.8-8.2-2.8-13.5-5
	C151.8,340.6,150.8,337.8,149,332.1z"/>
<path class="st3" d="M164.4,336.7c6,1.6,9.1,2.3,15.4,3.6c1.1,6.2,1.7,9.2,3,15.1c-5.9-1.4-8.8-2.3-14.4-4.1
	C166.6,345.6,165.8,342.7,164.4,336.7z"/>
<path class="st3" d="M180.7,340.5c6.1,1.2,9.3,1.7,15.6,2.5c0.8,6.3,1.2,9.4,2,15.5c-6-1-8.9-1.6-14.7-2.9
	C182.4,349.7,181.8,346.6,180.7,340.5z"/>
<path class="st3" d="M197.3,343.1c6.5,0.8,9.8,1.2,16.4,1.6c0.4,6.4,0.6,9.6,1,15.7c-6.3-0.5-9.4-0.9-15.5-1.8
	C198.4,352.6,198,349.5,197.3,343.1z"/>
<path class="st3" d="M214.7,344.8c6.5,0.4,9.8,0.5,16.5,0.5c0,6.5,0,9.6,0,15.8c-6.3,0-9.4-0.1-15.6-0.6
	C215.3,354.4,215.1,351.2,214.7,344.8z"/>
<path class="st3" d="M115.5,324.8c4.4,3.3,6.7,4.9,11.4,8c2.9,4.6,4.5,6.8,7.7,11.1c-3.6-2.8-7.1-5.8-10.4-9
	C121.2,331.6,118.2,328.3,115.5,324.8L115.5,324.8z"/>
<path class="st3" d="M127.7,333.2c4.6,2.9,7.1,4.3,12,6.9c2.5,5,3.8,7.4,6.6,12.1c-3.8-2.4-7.5-5.1-11-7.9
	C132.1,340,130.6,337.8,127.7,333.2z"/>
<path class="st3" d="M140.4,340.6c5.1,2.6,7.7,3.9,13,6.2c2.1,5.3,3.2,7.9,5.5,12.9c-4.1-2.1-8.1-4.4-12-7
	C144.2,348,142.9,345.6,140.4,340.6z"/>
<path class="st3" d="M154.3,347.1c5.3,2.2,7.9,3.2,13.4,5.1c1.7,5.6,2.6,8.3,4.4,13.7c-4.2-1.7-8.4-3.6-12.4-5.7
	C157.5,355,156.4,352.4,154.3,347.1z"/>
<path class="st3" d="M168.6,352.4c5.6,1.9,8.5,2.7,14.3,4.1c1.3,5.9,1.9,8.7,3.3,14.2c-4.5-1.3-9-2.9-13.3-4.7
	C171.1,360.8,170.3,358.1,168.6,352.4z"/>
<path class="st3" d="M183.9,356.8c5.7,1.4,8.7,2,14.6,3c0.8,6,1.3,8.9,2.2,14.7c-4.6-0.9-9.1-2-13.6-3.3
	C185.7,365.5,185.1,362.7,183.9,356.8z"/>
<path class="st3" d="M199.4,359.9c6.1,1,9.2,1.3,15.4,1.8c0.4,6.1,0.6,9.1,1.1,14.9c-4.8-0.4-9.6-1.1-14.3-2.1
	C200.6,368.9,200.2,365.9,199.4,359.9z"/>
<path class="st3" d="M215.8,361.8c6.1,0.5,9.2,0.6,15.5,0.6c0,6.1,0,9.2,0,15c-4.8,0-9.7-0.2-14.5-0.7
	C216.4,371,216.1,368,215.8,361.8z"/>
<path class="st3" d="M232,227.9h19.9c0,7.7,0,11.6-0.1,19.2c-7.8,0-11.8,0.1-19.8,0.1V227.9z"/>
<path class="st3" d="M253.1,227.9h19.1c0,7.7,0,11.4-0.2,19c-7.5,0.1-11.3,0.2-18.9,0.2C253,239.5,253.1,235.7,253.1,227.9z"/>
<path class="st3" d="M273.3,227.9h18.9c0,7.5,0,11.2-0.3,18.5c-7.4,0.2-11.2,0.3-18.9,0.4C273.2,239.4,273.3,235.6,273.3,227.9z"/>
<path class="st3" d="M293.4,227.9h18c0,7.2-0.1,10.8-0.3,18c-7.1,0.3-10.7,0.4-17.9,0.5C293.3,239.1,293.4,235.4,293.4,227.9z"/>
<path class="st3" d="M312.5,227.9h17.8c0,7-0.1,10.4-0.4,17.3c-6.9,0.3-10.5,0.4-17.7,0.7C312.4,238.7,312.5,235.2,312.5,227.9z"/>
<path class="st3" d="M331.4,227.9H348c0,6.6-0.1,9.9-0.5,16.4c-6.5,0.3-9.9,0.5-16.7,0.8C331.3,238.3,331.3,234.8,331.4,227.9z"/>
<path class="st3" d="M349.1,227.9h16.3c0,6.2-0.1,9.3-0.6,15.4c-6.3,0.4-9.5,0.6-16.2,1C349,237.8,349.1,234.5,349.1,227.9z"/>
<path class="st3" d="M366.4,227.9h15.1c0,4.8-0.2,9.5-0.7,14.3c-5.9,0.4-8.9,0.7-15.1,1C366.2,237.1,366.4,234.1,366.4,227.9z"/>
<path class="st3" d="M232,248.9c8,0,11.9,0,19.8-0.1c-0.1,7.6-0.1,11.4-0.3,18.8c-7.7,0.1-11.6,0.2-19.5,0.2
	C232,260.3,232,256.5,232,248.9z"/>
<path class="st3" d="M252.9,248.8c7.7-0.1,11.5-0.1,18.9-0.3c-0.1,7.5-0.3,11.2-0.5,18.5c-7.4,0.3-11.1,0.4-18.7,0.5
	C252.8,260.1,252.9,256.4,252.9,248.8z"/>
<path class="st3" d="M273.1,248.5c7.6-0.1,11.4-0.2,18.9-0.4c-0.2,7.3-0.4,11-0.8,18.1c-7.3,0.4-11.1,0.6-18.6,0.8
	C272.8,259.7,272.9,256,273.1,248.5z"/>
<path class="st3" d="M293.1,248c7.3-0.2,10.9-0.3,17.9-0.6c-0.3,7.1-0.5,10.6-1,17.6c-7,0.5-10.5,0.7-17.7,1.1
	C292.7,258.9,292.9,255.3,293.1,248z"/>
<path class="st3" d="M312.1,247.4c7.2-0.3,10.7-0.4,17.7-0.8c-0.4,6.8-0.6,10.2-1.3,16.9c-6.9,0.6-10.3,0.9-17.4,1.4
	C311.6,257.9,311.8,254.5,312.1,247.4z"/>
<path class="st3" d="M330.9,246.6c6.8-0.3,10.1-0.5,16.6-0.9c-0.4,6.5-0.7,9.7-1.5,16c-6.4,0.7-9.7,1.1-16.4,1.7
	C330.2,256.7,330.5,253.4,330.9,246.6z"/>
<path class="st3" d="M348.5,245.6c6.6-0.4,9.9-0.6,16.2-1c-0.5,6.1-0.9,9.1-1.8,15c-6.2,0.8-9.4,1.2-16,2
	C347.8,255.3,348.1,252.1,348.5,245.6z"/>
<path class="st3" d="M365.6,244.5c6.2-0.4,9.2-0.7,15-1.1c-0.4,4.7-1,9.3-1.9,13.9c-5.8,0.9-8.7,1.3-14.8,2.2
	C364.8,253.6,365.2,250.6,365.6,244.5z"/>
<path class="st3" d="M232,269.3c7.9,0,11.8,0,19.5-0.2c-0.1,7.4-0.2,11.1-0.4,18.3c-7.6,0.2-11.4,0.3-19.1,0.3
	C232,280.5,232,276.8,232,269.3z"/>
<path class="st3" d="M252.7,269.1c7.5-0.1,11.3-0.3,18.7-0.5c-0.3,7.3-0.4,10.9-0.8,18.1c-7.2,0.4-10.9,0.6-18.3,0.8
	C252.4,280.2,252.5,276.5,252.7,269.1z"/>
<path class="st3" d="M272.5,268.6c7.5-0.3,11.2-0.5,18.6-0.9c-0.4,7.2-0.7,10.7-1.2,17.6c-7.2,0.6-10.8,0.9-18.2,1.3
	C272.1,279.5,272.2,275.9,272.5,268.6z"/>
<path class="st3" d="M292.2,267.6c7.1-0.4,10.7-0.7,17.7-1.2c-0.5,6.9-0.9,10.3-1.7,17.1c-6.8,0.8-10.2,1.1-17.3,1.7
	C291.5,278.3,291.8,274.8,292.2,267.6z"/>
<path class="st3" d="M311,266.4c7.1-0.5,10.6-0.8,17.4-1.5c-0.7,6.6-1.1,9.9-2.1,16.4c-6.7,1-10.1,1.4-17,2.2
	C310.1,276.7,310.4,273.3,311,266.4z"/>
<path class="st3" d="M329.4,264.8c6.7-0.7,10-1,16.4-1.7c-0.8,6.3-1.3,9.4-2.5,15.5c-6.2,1.1-9.4,1.6-16,2.5
	C328.3,274.7,328.7,271.4,329.4,264.8z"/>
<path class="st3" d="M346.8,262.9c6.5-0.8,9.7-1.2,15.9-2c-1,6-1.5,8.8-2.9,14.6c-6.1,1.3-9.2,1.8-15.5,3
	C345.4,272.3,346,269.2,346.8,262.9z"/>
<path class="st3" d="M363.7,260.7c6.1-0.9,9-1.3,14.8-2.3c-0.9,4.5-2,9-3.3,13.5c-5.6,1.4-8.5,2-14.4,3.3
	C362.1,269.5,362.7,266.6,363.7,260.7z"/>
<path class="st3" d="M232,289.3c7.7,0,11.5-0.1,19.1-0.3c-0.2,7.2-0.3,10.7-0.5,17.8c-7.3,0.3-11,0.3-18.5,0.3
	C232,300.1,232,296.5,232,289.3z"/>
<path class="st3" d="M252.2,289c7.4-0.2,11-0.4,18.2-0.8c-0.4,7.1-0.6,10.6-1.1,17.5c-7,0.5-10.5,0.7-17.7,1
	C251.9,299.8,252,296.2,252.2,289z"/>
<path class="st3" d="M271.6,288.1c7.4-0.4,11-0.7,18.1-1.3c-0.6,6.9-0.9,10.4-1.7,17.1c-6.9,0.8-10.5,1.2-17.6,1.7
	C270.9,298.7,271.2,295.2,271.6,288.1z"/>
<path class="st3" d="M290.8,286.7c7-0.6,10.5-1,17.2-1.7c-0.8,6.7-1.3,10-2.3,16.5c-6.6,1-9.9,1.5-16.7,2.3
	C289.9,297.1,290.2,293.7,290.8,286.7z"/>
<path class="st3" d="M309.1,284.9c6.9-0.8,10.3-1.3,17-2.2c-1,6.4-1.6,9.6-2.8,15.8c-6.4,1.3-9.7,1.9-16.4,2.9
	C307.9,294.9,308.3,291.6,309.1,284.9z"/>
<path class="st3" d="M327.1,282.5c6.5-1,9.7-1.5,15.9-2.6c-1.2,6.1-1.9,9.1-3.4,15c-6,1.5-9.1,2.1-15.4,3.4
	C325.5,292.1,326.1,288.9,327.1,282.5z"/>
<path class="st3" d="M344,279.7c6.3-1.2,9.5-1.8,15.5-3.1c-1.4,5.7-2.2,8.5-4,14c-5.8,1.7-8.8,2.5-15,4
	C342.1,288.8,342.8,285.8,344,279.7z"/>
<path class="st3" d="M360.4,276.4c5.9-1.3,8.8-1.9,14.3-3.4c-1.3,4.4-2.8,8.7-4.5,12.9c-5.4,1.8-8.1,2.7-13.8,4.4
	C358.2,284.9,359,282.1,360.4,276.4z"/>
<path class="st3" d="M231.9,308.7c7.5,0,11.2-0.1,18.5-0.4c-0.3,7-0.4,10.4-0.7,17.2c-7,0.3-10.6,0.4-17.8,0.4
	C231.9,319.1,231.9,315.7,231.9,308.7z"/>
<path class="st3" d="M251.5,308.3c7.2-0.3,10.7-0.5,17.7-1c-0.5,6.9-0.8,10.3-1.4,16.9c-6.7,0.7-10.1,0.9-17,1.3
	C251.1,318.7,251.2,315.2,251.5,308.3z"/>
<path class="st3" d="M270.3,307.1c7.2-0.6,10.6-0.9,17.6-1.7c-0.8,6.7-1.2,10-2.1,16.5c-6.6,1-10,1.4-16.9,2.1
	C269.5,317.4,269.8,314,270.3,307.1z"/>
<path class="st3" d="M288.9,305.3c6.8-0.8,10.1-1.3,16.7-2.4c-1,6.5-1.6,9.7-2.8,15.9c-6.3,1.3-9.5,1.9-16,2.9
	C287.7,315.2,288.2,312,288.9,305.3z"/>
<path class="st3" d="M306.6,302.8c6.7-1.1,9.9-1.7,16.4-3c-1.3,6.2-2,9.3-3.6,15.2c-6.1,1.6-9.3,2.4-15.7,3.7
	C305,312.4,305.6,309.2,306.6,302.8z"/>
<path class="st3" d="M323.9,299.6c6.3-1.3,9.3-2,15.3-3.5c-1.5,5.9-2.4,8.7-4.3,14.4c-5.7,1.8-8.7,2.7-14.7,4.3
	C321.9,308.8,322.7,305.8,323.9,299.6z"/>
<path class="st3" d="M340.2,295.9c6.1-1.5,9.1-2.4,14.9-4.1c-1.8,5.5-2.8,8.2-5,13.4c-5.5,2.1-8.3,3.1-14.2,5
	C337.8,304.6,338.7,301.7,340.2,295.9z"/>
<path class="st3" d="M356.1,291.5c5.7-1.7,8.4-2.6,13.8-4.5c-1.7,4.2-3.6,8.3-5.7,12.3c-5.1,2.3-7.7,3.4-13.1,5.5
	C353.2,299.6,354.2,297,356.1,291.5z"/>
<path class="st3" d="M231.9,327.4c7.2,0,10.7-0.1,17.7-0.5c-0.3,6.7-0.5,10-0.8,16.5c-6.7,0.4-10.1,0.5-16.9,0.5
	C231.9,337.4,231.9,334.1,231.9,327.4z"/>
<path class="st3" d="M250.7,326.8c6.9-0.4,10.2-0.6,16.9-1.3c-0.6,6.6-1,9.9-1.7,16.2c-6.4,0.8-9.6,1.1-16.1,1.5
	C250.2,336.9,250.4,333.6,250.7,326.8z"/>
<path class="st3" d="M268.7,325.4c6.8-0.7,10.2-1.2,16.8-2.2c-0.9,6.5-1.4,9.6-2.5,15.8c-6.3,1.2-9.5,1.7-16,2.6
	C267.7,335.3,268.1,332.1,268.7,325.4z"/>
<path class="st3" d="M286.6,323.1c6.5-1,9.7-1.6,15.9-2.9c-1.3,6.2-1.9,9.3-3.4,15.3c-6,1.5-9,2.2-15.1,3.4
	C285.1,332.7,285.6,329.5,286.6,323.1z"/>
<path class="st3" d="M303.5,320c6.4-1.3,9.5-2.1,15.6-3.7c-1.6,6-2.4,8.9-4.2,14.5c-5.8,1.9-8.8,2.8-14.8,4.4
	C301.5,329.3,302.2,326.2,303.5,320z"/>
<path class="st3" d="M320,316c6-1.6,8.9-2.5,14.6-4.3c-1.9,5.6-2.9,8.3-5.1,13.7c-5.4,2.2-8.2,3.2-13.8,5.1
	C317.6,324.9,318.4,321.9,320,316z"/>
<path class="st3" d="M335.5,311.4c5.8-1.9,8.6-2.9,14.1-5.1c-2.2,5.2-3.4,7.8-6,12.7c-5.2,2.5-7.9,3.8-13.3,6
	C332.6,319.7,333.6,317,335.5,311.4z"/>
<path class="st3" d="M350.5,306c5.4-2.1,8-3.2,13-5.6c-2.1,4-4.3,7.9-6.8,11.6c-4.8,2.8-7.2,4.1-12.2,6.6
	C347.1,313.7,348.3,311.2,350.5,306z"/>
<path class="st3" d="M231.9,345.3c6.8,0,10.2-0.1,16.8-0.5c-0.4,6.4-0.5,9.6-0.9,15.7c-6.3,0.5-9.5,0.6-15.9,0.6
	C231.9,354.9,231.9,351.8,231.9,345.3z"/>
<path class="st3" d="M249.8,344.7c6.5-0.4,9.7-0.8,16.1-1.6c-0.7,6.3-1.1,9.4-1.9,15.5c-6,0.9-9,1.3-15.2,1.8
	C249.2,354.3,249.4,351.1,249.8,344.7z"/>
<path class="st3" d="M266.8,343c6.5-0.8,9.7-1.4,15.9-2.6c-1.1,6.2-1.7,9.2-2.9,15.1c-6,1.4-8.9,2-15,3
	C265.7,352.4,266.1,349.3,266.8,343z"/>
<path class="st3" d="M283.7,340.2c6.1-1.2,9.1-1.9,15.1-3.5c-1.5,6-2.2,8.8-3.9,14.5c-5.5,1.8-8.3,2.6-14.1,4
	C282,349.4,282.6,346.4,283.7,340.2z"/>
<path class="st3" d="M299.7,336.5c6-1.6,9-2.5,14.7-4.5c-1.8,5.7-2.8,8.4-4.9,13.8c-5.4,2.2-8.2,3.3-13.8,5.1
	C297.4,345.3,298.2,342.4,299.7,336.5z"/>
<path class="st3" d="M315.3,331.7c5.6-1.9,8.3-3,13.7-5.2c-2.2,5.3-3.4,7.9-5.8,13c-5,2.6-7.6,3.8-12.8,6
	C312.5,340.1,313.5,337.4,315.3,331.7z"/>
<path class="st3" d="M329.9,326.2c5.5-2.3,8.1-3.6,13.3-6.1c-2.6,4.9-3.9,7.3-6.8,11.9c-4.8,3-7.2,4.4-12.3,7
	C326.5,334.1,327.7,331.5,329.9,326.2z"/>
<path class="st3" d="M344,319.7c5-2.5,7.5-3.9,12.2-6.7c-2.4,3.8-5,7.4-7.8,10.9c-4.3,3.2-6.6,4.8-11.2,7.7
	C340,327,341.4,324.7,344,319.7z"/>
<path class="st3" d="M231.9,362.5c6.4,0,9.5-0.1,15.8-0.6c-0.4,6.1-0.6,9.1-1.1,14.9c-4.9,0.5-9.8,0.7-14.8,0.7
	C231.9,371.6,231.9,368.6,231.9,362.5z"/>
<path class="st3" d="M248.7,361.7c6.1-0.5,9.1-0.9,15.1-1.8c-0.8,6-1.3,9-2.2,14.7c-4.6,0.9-9.3,1.6-14.1,2.1
	C248,370.8,248.2,367.9,248.7,361.7z"/>
<path class="st3" d="M264.7,359.8c6.1-1,9-1.6,14.9-3c-1.2,5.9-1.9,8.7-3.3,14.3c-4.6,1.4-9.2,2.5-13.9,3.4
	C263.4,368.7,263.8,365.8,264.7,359.8z"/>
<path class="st3" d="M280.5,356.5c5.7-1.4,8.5-2.2,14-4.1c-1.7,5.6-2.5,8.3-4.4,13.7c-4.3,1.8-8.6,3.3-13,4.6
	C278.6,365.2,279.2,362.3,280.5,356.5z"/>
<path class="st3" d="M295.4,352.2c5.6-1.9,8.3-2.9,13.7-5.2c-2.1,5.4-3.2,7.9-5.5,13c-4.1,2.2-8.3,4.1-12.7,5.9
	C292.8,360.5,293.7,357.8,295.4,352.2z"/>
<path class="st3" d="M310,346.6c5.2-2.3,7.8-3.5,12.7-6.1c-2.5,5-3.8,7.4-6.6,12.1c-3.8,2.5-7.7,4.8-11.7,6.8
	C306.7,354.5,307.9,351.9,310,346.6z"/>
<path class="st3" d="M323.5,340.1c5.1-2.7,7.5-4.1,12.3-7.2c-2.9,4.6-4.5,6.8-7.7,11.1c-3.6,2.9-7.3,5.6-11.2,8
	C319.6,347.6,321,345.1,323.5,340.1z"/>
<path class="st3" d="M336.5,332.6c4.6-3,6.9-4.5,11.2-7.8c-2.7,3.5-5.7,6.9-8.8,10.1c-3.2,3.1-6.6,6.1-10.2,8.9
	C332,339.4,333.5,337.2,336.5,332.6z"/>
<circle class="st4" cx="231" cy="227" r="151.3"/>
<linearGradient id="shadowPath0_1_" gradientUnits="userSpaceOnUse" x1="78" y1="237" x2="231" y2="237" gradientTransform="matrix(1 0 0 -1 0 464)">
	<stop  offset="0" style="stop-color:#000000"/>
	<stop  offset="1.000000e-04" style="stop-color:#000000;stop-opacity:0.65"/>
	<stop  offset="1" style="stop-color:#000000;stop-opacity:0.27"/>
</linearGradient>
<path id="shadowPath0" class="st5" d="M78,227c0-86,70-153,152.4-153c30.9,0,82.6,62.1,82.6,153s-50.6,153-82,153
	C152,380,78,318,78,227z"/>
<linearGradient id="shadowPath1_1_" gradientUnits="userSpaceOnUse" x1="78" y1="237" x2="231" y2="237" gradientTransform="matrix(1 0 0 -1 0 464)">
	<stop  offset="0" style="stop-color:#000000"/>
	<stop  offset="1.000000e-04" style="stop-color:#000000;stop-opacity:0.65"/>
	<stop  offset="1" style="stop-color:#000000;stop-opacity:0.27"/>
</linearGradient>
<path id="shadowPath1" class="st6" d="M231,227c0,84.5,0,59,0,153c-84.5,0-153-68.5-153-153S146.5,74,231,74
	C231,138,231,142.5,231,227z"/>
<linearGradient id="shadowPath2_1_" gradientUnits="userSpaceOnUse" x1="78" y1="237" x2="231" y2="237" gradientTransform="matrix(1 0 0 -1 0 464)">
	<stop  offset="0" style="stop-color:#000000"/>
	<stop  offset="1.000000e-04" style="stop-color:#000000;stop-opacity:0.65"/>
	<stop  offset="1" style="stop-color:#000000;stop-opacity:0.27"/>
</linearGradient>
<path id="shadowPath2" class="st7" d="M151.5,227c0,84.5,52,153,79.5,153c-84.5,0-153-68.5-153-153S146.5,74,231,74
	C200,74,151.5,142.5,151.5,227z"/>
</svg>
