<svg xmlns="http://www.w3.org/2000/svg" viewBox="0 0 57.24 70.09"><defs><style>.cls-1{fill:#fff;}</style></defs><title>Logo_S_stroked</title><g id="Слой_2" data-name="Слой 2"><g id="Best"><path class="cls-1" d="M54.74,31.55V38H2.51v-6.4H54.74m2.5-2.5H0v11.4H57.24V29.05Z"/><path class="cls-1" d="M54.68,49.76v1.42A16.43,16.43,0,0,1,38.27,67.59H18.9A16.42,16.42,0,0,1,2.5,51.18V49.76h8.38v.05A10.84,10.84,0,0,0,21.71,60.64H35.46A10.84,10.84,0,0,0,46.29,49.81v-.05h8.39m2.5-2.5H43.79v2.55a8.36,8.36,0,0,1-8.33,8.33H21.71a8.36,8.36,0,0,1-8.33-8.33V47.26H0v3.92A19,19,0,0,0,18.9,70.09H38.27A19,19,0,0,0,57.18,51.18V47.26Z"/><path class="cls-1" d="M38.27,2.5A16.42,16.42,0,0,1,54.68,18.9v.84h-8.4A10.85,10.85,0,0,0,35.46,9.44H21.71A10.84,10.84,0,0,0,10.9,19.74H2.5V18.9A16.42,16.42,0,0,1,18.9,2.5H38.27m0-2.5H18.9A19,19,0,0,0,0,18.9v3.34H13.38v-2a8.36,8.36,0,0,1,8.33-8.33H35.46a8.36,8.36,0,0,1,8.33,8.33v2H57.18V18.9A19,19,0,0,0,38.27,0Z"/></g></g></svg>