<svg xmlns="http://www.w3.org/2000/svg" viewBox="0 0 324.06 70.09"><defs><style>.cls-1{fill:#fff;}</style></defs><title>Logo_full</title><g id="Слой_2" data-name="Слой 2"><g id="Best"><path class="cls-1" d="M79.25,66.72a8.82,8.82,0,0,1-2.64-6.65V.82h34q9.28,0,14.91,4.4a14.28,14.28,0,0,1,5.62,11.83v4.89a12.55,12.55,0,0,1-1.62,6.16A13,13,0,0,1,125,32.89V33a16.23,16.23,0,0,1,7.58,5.38,13.2,13.2,0,0,1,2.88,8.31v5.08a15.61,15.61,0,0,1-5.82,12.76q-5.82,4.74-15.69,4.74H86.1A9.48,9.48,0,0,1,79.25,66.72Zm31.39-37.54a6.77,6.77,0,0,0,5.08-2,7.31,7.31,0,0,0,2-5.33V18.52a5.26,5.26,0,0,0-2.06-4.35,8.58,8.58,0,0,0-5.47-1.61h-20V29.18ZM113,57.53a11.13,11.13,0,0,0,6.65-1.71A5.63,5.63,0,0,0,122,51v-4.3a5.77,5.77,0,0,0-2.06-4.6,8.11,8.11,0,0,0-5.47-1.76H90.11V57.53Z"/><path class="cls-1" d="M183,53.32H157.37l-6.06,15.94H137.23L164,.82h6.06a8.47,8.47,0,0,1,8.6,5.87L203,69.26H189ZM161,42h18.38l-9.1-24.63h-.09Z"/><path class="cls-1" d="M211.43,64q-6.06-6-6.06-16.77h13.3q0,5.09,2.59,8a9.17,9.17,0,0,0,7.18,2.89H239.3a12.38,12.38,0,0,0,7-1.81A5.57,5.57,0,0,0,249,51.47V48.14q0-4.78-7-6l-18-3q-8.8-1.47-13.35-5.62a13.74,13.74,0,0,1-4.54-10.61V17.44a15.47,15.47,0,0,1,2.78-9.14,17.86,17.86,0,0,1,7.92-6.11A30.6,30.6,0,0,1,228.64,0h11.05a23.3,23.3,0,0,1,11.24,2.64,18.83,18.83,0,0,1,7.58,7.38,22,22,0,0,1,2.69,11H247.9a9.49,9.49,0,0,0-2.25-6.6,7.65,7.65,0,0,0-6-2.49H228.64a11.23,11.23,0,0,0-6.6,1.76,5.47,5.47,0,0,0-2.49,4.69v2.64q0,4.89,6.74,6.06l17.89,3.13q8.9,1.56,13.59,5.53A12.74,12.74,0,0,1,262.47,46v6.45a15.34,15.34,0,0,1-2.89,9.19,18.5,18.5,0,0,1-8.06,6.21,30.56,30.56,0,0,1-12,2.2H228.25Q217.5,70,211.43,64Z"/><path class="cls-1" d="M274.49,66.72a8.82,8.82,0,0,1-2.64-6.65V.82h52.21V12.56H285.34V28.39h35.79V40.13H285.34v17.4h38.72V69.26H281.33A9.47,9.47,0,0,1,274.49,66.72Z"/><path class="cls-1" d="M54.74,31.55V38H2.51v-6.4H54.74m2.5-2.5H0v11.4H57.24V29.05Z"/><path class="cls-1" d="M54.68,49.76v1.42A16.43,16.43,0,0,1,38.27,67.59H18.9A16.42,16.42,0,0,1,2.5,51.18V49.76h8.38v.05A10.84,10.84,0,0,0,21.71,60.64H35.46A10.84,10.84,0,0,0,46.29,49.81v-.05h8.39m2.5-2.5H43.79v2.55a8.36,8.36,0,0,1-8.33,8.33H21.71a8.36,8.36,0,0,1-8.33-8.33V47.26H0v3.92A19,19,0,0,0,18.9,70.09H38.27A19,19,0,0,0,57.18,51.18V47.26Z"/><path class="cls-1" d="M38.27,2.5A16.42,16.42,0,0,1,54.68,18.9v.84h-8.4A10.85,10.85,0,0,0,35.46,9.44H21.71A10.84,10.84,0,0,0,10.9,19.74H2.5V18.9A16.42,16.42,0,0,1,18.9,2.5H38.27m0-2.5H18.9A19,19,0,0,0,0,18.9v3.34H13.38v-2a8.36,8.36,0,0,1,8.33-8.33H35.46a8.36,8.36,0,0,1,8.33,8.33v2H57.18V18.9A19,19,0,0,0,38.27,0Z"/></g></g></svg>