<svg id="Слой_1" data-name="Слой 1" xmlns="http://www.w3.org/2000/svg" viewBox="0 0 783 183.8"><defs><style>.cls-1{fill:#0d0d0d;}.cls-2{fill:#fff;}</style></defs><title>Sbase-hero-baner</title>
<path  class="cls-1" d="M66.2,181.8c-17.6,0-31.4-4.9-41.3-14.6C15,157.3,10,143.5,10,125.9H42.6c0,8.3,2.1,14.9,6.2,19.7,4.3,4.6,10.2,7,17.8,7H93.2c7,0,12.7-1.4,17-4.3,4.5-3,6.7-7,6.7-12v-8.2c0-7.8-5.8-12.7-17.3-14.6l-44-7.5c-14.4-2.4-25.4-7-32.9-13.7-7.4-6.9-11-15.6-11-26.2V52.7a37.68,37.68,0,0,1,6.7-22.3C23,23.8,29.5,18.8,37.8,15.3,46.3,11.8,56,10,67.1,10H94.2c10.4,0,19.6,2.2,27.6,6.5a45.06,45.06,0,0,1,18.5,18.2c4.5,7.7,6.7,16.6,6.7,26.9H114.4c0-6.7-1.8-12.1-5.5-16.1-3.7-4.2-8.6-6.2-14.6-6.2H67.1c-6.7,0-12.2,1.4-16.3,4.3a13.5,13.5,0,0,0-6,11.5v6.5c0,8,5.5,13,16.6,14.9l43.9,7.7c14.6,2.6,25.7,7.1,33.4,13.7,7.7,6.4,11.5,14.7,11.5,25v15.8a37.37,37.37,0,0,1-7.2,22.6c-4.6,6.6-11.2,11.7-19.7,15.4-8.5,3.5-18.3,5.3-29.5,5.3H66.2Zm130.3-1.9c-6.9,0-12.5-2.1-16.8-6.2s-6.5-9.6-6.5-16.3V11.9h83.5c15.2,0,27.4,3.6,36.5,10.8,9.3,7.2,13.9,16.9,13.9,29v12A30.33,30.33,0,0,1,303,78.8a31.85,31.85,0,0,1-11,11.8v.2A39,39,0,0,1,310.5,104a32.18,32.18,0,0,1,7.2,20.4V137c0,13.1-4.8,23.6-14.4,31.4-9.4,7.7-22.2,11.5-38.4,11.5Zm60.3-98.4a17,17,0,0,0,12.5-4.8q4.8-5.1,4.8-13.2V55.3a12.77,12.77,0,0,0-5-10.6c-3.4-2.7-7.8-4.1-13.4-4.1H206.5V81.4h50.3Zm5.7,69.6c7,0,12.5-1.4,16.3-4.1a14.34,14.34,0,0,0,5.8-12V124.4a14.43,14.43,0,0,0-5-11.3c-3.4-2.9-7.8-4.3-13.4-4.3H206.4V151h56.1Zm172.1-10.3H371.7l-14.9,39.1H322.2L388,11.9h14.9c10.4,0,17.4,4.8,21.1,14.4l59.8,153.6H449.2Zm-54-27.8h45.1L403.4,52.5h-.2Zm165.1,68.8c-17.6,0-31.4-4.9-41.3-14.6-9.9-9.9-14.9-23.7-14.9-41.3h32.6c0,8.3,2.1,14.9,6.2,19.7,4.3,4.6,10.2,7,17.8,7h26.6c7,0,12.7-1.4,17-4.3,4.5-3,6.7-7,6.7-12v-8.2c0-7.8-5.8-12.7-17.3-14.6l-44.2-7.4c-14.4-2.4-25.4-7-32.9-13.7-7.4-6.9-11-15.6-11-26.2V52.7a37.68,37.68,0,0,1,6.7-22.3c4.6-6.6,11.1-11.6,19.4-15.1,8.5-3.5,18.2-5.3,29.3-5.3h27.1c10.4,0,19.6,2.2,27.6,6.5a45.06,45.06,0,0,1,18.5,18.2c4.5,7.7,6.7,16.6,6.7,26.9H593.7c0-6.7-1.8-12.1-5.5-16.1-3.7-4.2-8.6-6.2-14.6-6.2H546.5c-6.7,0-12.2,1.4-16.3,4.3a13.5,13.5,0,0,0-6,11.5v6.5c0,8,5.5,13,16.6,14.9l43.9,7.7c14.6,2.6,25.7,7.1,33.4,13.7,7.7,6.4,11.5,14.7,11.5,25v15.8a37.37,37.37,0,0,1-7.2,22.6c-4.6,6.6-11.2,11.7-19.7,15.4-8.5,3.5-18.3,5.3-29.5,5.3H545.7Zm130.4-1.9c-6.9,0-12.5-2.1-16.8-6.2s-6.5-9.6-6.5-16.3V11.9H781V40.7H686V79.6h87.8v28.8H686v42.7h95v28.8Z"/>
<path  class="cls-2" d="M24.9,167.2l-1.4,1.4h0ZM10,125.9v-2H8v2Zm32.6,0h2v-2h-2Zm6.3,19.7-1.5,1.3h0Zm61.4,2.6,1.1,1.7h0ZM99.8,113.4l-.3,2h0ZM55.6,106l.3-2h0ZM22.7,92.3l-1.4,1.5h0ZM18.4,30.4l-1.6-1.2h0ZM37.8,15.3,37,13.5h0Zm84,1.2.9-1.8Zm18.5,18.2-1.8,1h0ZM147,61.6v2h2v-2Zm-32.6,0h-2v2h2Zm-5.5-16.1-1.5,1.3h0ZM50.8,43.6,49.7,42h0ZM61.4,76.5l.3-2h0Zm43.9,7.7.3-2h0Zm33.3,13.6-1.3,1.5h0Zm4.4,63.4-1.6-1.2h0Zm-19.7,15.4.8,1.8h0Zm-57.1,3.2c-17.2,0-30.4-4.8-39.9-14.1l-2.8,2.9c10.4,10.2,24.7,15.2,42.7,15.2Zm-39.9-14C16.8,156.3,12,143.1,12,125.9H8c0,18,5.1,32.3,15.5,42.7ZM10,127.9H42.6v-4H10Zm30.6-2c0,8.6,2.2,15.7,6.7,21l3-2.6c-3.8-4.3-5.8-10.4-5.8-18.4ZM47.4,147c4.8,5.1,11.3,7.6,19.2,7.6v-4c-7.1,0-12.4-2.2-16.3-6.3Zm19.2,7.6H93.2v-4H66.6Zm26.7,0c7.3,0,13.4-1.5,18.1-4.7l-2.2-3.3c-3.9,2.6-9.1,4-15.9,4Zm18.1-4.7c5-3.4,7.6-8,7.6-13.7h-4c0,4.2-1.9,7.6-5.8,10.3Zm7.6-13.7V128h-4v8.2Zm0-8.1a14.16,14.16,0,0,0-5-11.1c-3.3-2.8-8-4.6-13.9-5.5l-.7,3.9c5.6.9,9.5,2.5,12,4.7a9.93,9.93,0,0,1,3.6,8Zm-18.9-16.6L55.9,104l-.7,3.9,44.2,7.4ZM55.9,104C41.7,101.6,31.2,97.2,24,90.8l-2.7,3c7.9,7.1,19.3,11.7,33.9,14.2ZM24.1,90.9c-6.9-6.5-10.4-14.7-10.4-24.7h-4q0,16.65,11.7,27.6ZM13.7,66.2V52.7h-4V66.1h4Zm0-13.5a35.68,35.68,0,0,1,6.4-21.2l-3.3-2.3A39.79,39.79,0,0,0,9.7,52.7ZM20,31.6q6.6-9.3,18.6-14.4L37,13.5A46.12,46.12,0,0,0,16.7,29.3ZM38.6,17.1Q50.9,12,67.1,12V8q-16.95,0-30,5.4ZM67.1,12H94.2V8H67.1Zm27.1,0c10.1,0,19,2.1,26.7,6.2l1.9-3.5C114.5,10.2,104.9,8,94.2,8Zm26.7,6.2a43,43,0,0,1,17.7,17.4l3.5-1.9a46.51,46.51,0,0,0-19.3-19Zm17.7,17.5c4.3,7.3,6.4,15.9,6.4,25.9h4c0-10.5-2.3-19.9-7-27.9ZM147,59.6H114.4v4H147Zm-30.6,2c0-7.1-2-13-6-17.4l-2.9,2.7c3.3,3.5,5,8.4,5,14.7Zm-6-17.4c-4.1-4.6-9.5-6.9-16.1-6.9v4c5.6,0,9.9,1.9,13.1,5.6ZM94.2,37.3H67.1v4H94.2Zm-27.1,0c-7,0-12.9,1.5-17.5,4.7l2.3,3.3c3.7-2.6,8.7-4,15.2-4ZM49.6,42a15.44,15.44,0,0,0-6.8,13.1h4A11.57,11.57,0,0,1,52,45.2ZM42.8,55.1v6.5h4V55.1Zm0,6.5a14.53,14.53,0,0,0,4.8,11.2c3.1,2.8,7.7,4.6,13.4,5.6l.7-3.9c-5.3-.9-9.1-2.5-11.4-4.7a10.58,10.58,0,0,1-3.5-8.2ZM61,78.5l43.9,7.7.7-3.9L61.7,74.6Zm43.9,7.6c14.4,2.5,25.1,7,32.4,13.2l2.6-3c-8.1-6.9-19.6-11.5-34.3-14.1Zm32.5,13.3q10.8,9,10.8,23.4h4c0-10.8-4.1-19.7-12.2-26.5Zm10.8,23.4v15.8h4V122.8Zm0,15.8a35.46,35.46,0,0,1-6.8,21.4l3.2,2.4a39,39,0,0,0,7.6-23.7h-4ZM141.3,160c-4.4,6.2-10.6,11.1-18.8,14.7l1.6,3.7c8.8-3.8,15.6-9.1,20.5-16Zm-18.8,14.7q-12.3,5.1-28.8,5.1v4q17.1,0,30.3-5.4Zm-28.7,5.1H66.2v4H93.8Zm85.9-6.1-1.4,1.4ZM173.3,11.9v-2h-2v2Zm120,10.8-1.2,1.6h0Zm9.8,56.2-1.7-1h0Zm-11,11.7L291,88.9l-.9.6v1.1Zm0,.3h-2v1.4l1.3.5Zm18.4,13.2-1.6,1.2h0Zm-7.2,64.3,1.3,1.6h0Zm-34-91.7,1.4,1.4h0ZM269,44.8l-1.3,1.6h0Zm-62.6-4.1v-2h-2v2Zm0,40.8h-2v2h2ZM278.9,147l1.2,1.6h0Zm.7-33.8-1.3,1.5Zm-73.2-4.3v-2h-2v2Zm0,42.2h-2v2h2Zm-9.9,26.8c-6.4,0-11.5-1.9-15.4-5.7l-2.8,2.9c4.7,4.6,10.9,6.8,18.2,6.8Zm-15.4-5.7c-3.9-3.7-5.9-8.6-5.9-14.9h-4c0,7.2,2.3,13.2,7.1,17.8Zm-5.8-14.8V11.9h-4V157.3h4Zm-2-143.5h83.5v-4H173.3v4Zm83.5,0c14.9,0,26.6,3.5,35.2,10.4l2.5-3.1C284.9,13.6,272.3,10,256.8,10ZM292,24.3c8.8,6.8,13.1,15.9,13.1,27.5h4q0-19.2-14.7-30.6Zm13.2,27.5v12h4v-12Zm0,12a28.7,28.7,0,0,1-3.8,14.1l3.5,2a32.13,32.13,0,0,0,4.3-16.1Zm-3.9,14.1a29.31,29.31,0,0,1-10.3,11l2.1,3.4a32.6,32.6,0,0,0,11.7-12.5ZM290.1,90.6v.2h4v-.2Zm1.3,2.2A37.7,37.7,0,0,1,309,105.3l3.2-2.4A41.69,41.69,0,0,0,292.8,89ZM309,105.3a30.25,30.25,0,0,1,6.8,19.2h4a34.29,34.29,0,0,0-7.6-21.6Zm6.7,19.2V137h4V124.5Zm0,12.5c0,12.6-4.6,22.5-13.7,29.9l2.5,3.1c10.1-8.2,15.1-19.3,15.1-33Zm-13.6,29.8c-9,7.3-21.3,11.1-37.1,11.1v4c16.5,0,29.8-3.9,39.7-12Zm-37.2,11.1H196.5v4h68.4Zm-8.1-94.4a18.92,18.92,0,0,0,13.9-5.4l-2.8-2.8c-2.8,2.8-6.4,4.2-11.1,4.2Zm13.9-5.4c3.6-3.8,5.4-8.7,5.4-14.6h-4c0,5-1.5,8.9-4.2,11.8Zm5.4-14.6V55.3h-4v8.2Zm0-8.1a14.58,14.58,0,0,0-5.8-12.2l-2.4,3.2a10.78,10.78,0,0,1,4.3,9Zm-5.8-12.2c-3.8-3.1-8.8-4.5-14.7-4.5v4c5.3,0,9.3,1.3,12.2,3.6Zm-14.7-4.5H206.4v4h49.2Zm-51.2,2V81.5h4V40.7Zm2,42.8h50.4v-4H206.4Zm56.1,69.6c7.3,0,13.2-1.4,17.5-4.4l-2.3-3.3c-3.4,2.4-8.3,3.7-15.2,3.7Zm17.6-4.5a16.15,16.15,0,0,0,6.6-13.6h-4a12.27,12.27,0,0,1-5,10.4Zm6.5-13.6V124.4h-4V135Zm0-10.5a16.21,16.21,0,0,0-5.7-12.8l-2.6,3a12.19,12.19,0,0,1,4.3,9.8Zm-5.7-12.8c-3.8-3.3-8.8-4.8-14.7-4.8v4c5.3,0,9.2,1.3,12.1,3.8Zm-14.8-4.8H206.3v4h59.8Zm-61.7,2v42.2h4V108.9Zm2,44.2h56.2v-4H206.4v4Zm228.2-12.3,1.9-.7-.5-1.3h-1.4Zm-62.9,0v-2h-1.4l-.5,1.3Zm-14.9,39.1v2h1.4l.5-1.3Zm-34.6,0-1.9-.7-1.1,2.7h2.9v-2ZM388,11.9v-2h-1.4l-.5,1.3Zm36,14.4-1.9.7h0Zm59.8,153.6v2h2.9l-1.1-2.7Zm-34.6,0-1.9.7.5,1.3h1.4ZM380.6,113l-1.9-.7-1,2.7h2.9Zm45.1,0v2h2.9l-1-2.7ZM403.4,52.5l1.9-.7-.5-1.3h-1.4Zm-.3,0v-2h-1.4l-.5,1.3Zm31.5,86.3H371.7v4h62.9Zm-64.8,1.3-14.9,39.1,3.7,1.4,14.9-39.1Zm-13,37.8H322.2v4h34.6Zm-32.7,2.7,65.8-168-3.7-1.5-65.8,168ZM388,13.9h14.9v-4H388Zm14.9,0c4.9,0,8.8,1.1,12,3.3a20.16,20.16,0,0,1,7.3,9.9l3.7-1.4c-2-5.1-4.9-9.1-8.8-11.7s-8.7-3.9-14.2-3.9ZM422.1,27l59.8,153.6,3.7-1.5L425.9,25.6Zm61.7,150.9H449.2v4h34.6Zm-32.7,1.3-14.6-39.1-3.7,1.4,14.6,39.1ZM380.6,115h45.1v-4H380.6Zm46.9-2.7L405.2,51.8l-3.8,1.4,22.3,60.5ZM403.4,50.5h-.2v4h.2Zm-2.2,1.3-22.6,60.5,3.7,1.4L405,53.2ZM504.4,167.2l-1.4,1.4h0Zm-14.9-41.3v-2h-2v2Zm32.7,0h2v-2h-2Zm6.2,19.7-1.5,1.3h0Zm61.5,2.6,1.1,1.7h0Zm-10.6-34.8-.3,2h0ZM535.1,106l.3-2h0ZM502.3,92.3l-1.4,1.5h0Zm-4.4-61.9-1.6-1.2h0Zm19.5-15.1-.8-1.8h0Zm84,1.2.9-1.8Zm18.5,18.2-1.8,1h0Zm6.7,26.9v2h2v-2Zm-32.7,0h-2v2h2Zm-5.5-16.1-1.5,1.3h0Zm-58.1-1.9L529.2,42h0Zm10.6,32.9.3-2h0Zm43.9,7.7.3-2h0Zm33.4,13.6-1.3,1.5h0Zm4.3,63.4-1.6-1.2h0Zm-19.7,15.4.8,1.8h0Zm-57.1,3.2c-17.2,0-30.4-4.8-39.9-14.1l-2.8,2.9c10.4,10.2,24.7,15.2,42.7,15.2Zm-39.9-14c-9.5-9.5-14.3-22.7-14.3-39.9h-4c0,18,5.1,32.3,15.5,42.7Zm-16.3-37.9h32.6v-4H489.5v4Zm30.7-2c0,8.6,2.2,15.7,6.7,21l3-2.6c-3.8-4.3-5.8-10.4-5.8-18.4Zm6.7,21.1c4.8,5.1,11.3,7.6,19.2,7.6v-4c-7.1,0-12.4-2.2-16.3-6.3Zm19.3,7.6h26.6v-4H546.2Zm26.6,0c7.3,0,13.4-1.5,18.1-4.7l-2.2-3.3c-3.9,2.6-9.1,4-15.9,4v4Zm18.2-4.7c5-3.4,7.6-8,7.6-13.7h-4c0,4.2-1.9,7.6-5.8,10.3Zm7.6-13.7V128h-4v8.2Zm0-8.1a14.16,14.16,0,0,0-5-11.1c-3.3-2.8-8-4.6-13.9-5.5l-.7,3.9c5.6.9,9.5,2.5,12,4.7a9.93,9.93,0,0,1,3.6,8Zm-19-16.6-44.2-7.4-.7,3.9,44.2,7.4ZM535.5,104c-14.2-2.4-24.7-6.8-31.9-13.2l-2.7,3c7.9,7.1,19.3,11.7,33.9,14.2ZM503.6,90.9c-6.9-6.5-10.4-14.7-10.4-24.7h-4q0,16.65,11.7,27.6ZM493.2,66.2V52.7h-4V66.1h4Zm0-13.5a35.68,35.68,0,0,1,6.4-21.2l-3.3-2.3a40.28,40.28,0,0,0-7.1,23.5Zm6.4-21.1q6.6-9.3,18.6-14.4l-1.6-3.7a46.12,46.12,0,0,0-20.3,15.8Zm18.5-14.5Q530.4,12,546.6,12V8q-17,0-30,5.4ZM546.7,12h27.1V8H546.7Zm27.1,0c10.1,0,19,2.1,26.7,6.2l1.9-3.5C594,10.2,584.5,8,573.8,8Zm26.6,6.2a43,43,0,0,1,17.7,17.4l3.5-1.9a46.51,46.51,0,0,0-19.3-19Zm17.7,17.5c4.3,7.3,6.4,15.9,6.4,25.9h4c0-10.5-2.3-19.9-7-27.9Zm8.5,23.9H594v4h32.6Zm-30.7,2c0-7.1-2-13-6-17.4L587,46.9c3.3,3.5,5,8.4,5,14.7Zm-6-17.4c-4.1-4.6-9.5-6.9-16.1-6.9v4c5.6,0,9.9,1.9,13.1,5.6Zm-16.1-6.9H546.7v4h27.1Zm-27.1,0c-7,0-12.9,1.5-17.5,4.7l2.3,3.3c3.7-2.6,8.7-4,15.2-4ZM529.2,42a15.44,15.44,0,0,0-6.8,13.1h4a11.57,11.57,0,0,1,5.2-9.9Zm-6.9,13.1v6.5h4V55.1Zm0,6.5a14.53,14.53,0,0,0,4.8,11.2c3.1,2.8,7.7,4.6,13.4,5.6l.7-3.9c-5.3-.9-9.1-2.5-11.4-4.7a10.58,10.58,0,0,1-3.5-8.2Zm18.2,16.9,43.9,7.7.7-3.9-43.9-7.7Zm44,7.6c14.4,2.5,25.1,7,32.4,13.2l2.6-3c-8-6.9-19.6-11.5-34.3-14.1Zm32.4,13.3q10.8,9,10.8,23.4h4c0-10.8-4.1-19.7-12.2-26.5Zm10.8,23.4v15.8h4V122.8Zm0,15.8a35.46,35.46,0,0,1-6.8,21.4l3.2,2.4a39,39,0,0,0,7.6-23.7h-4ZM620.9,160c-4.4,6.2-10.6,11.1-18.8,14.7l1.6,3.7c8.8-3.8,15.6-9.1,20.5-16ZM602,174.7q-12.3,5.1-28.8,5.1v4q17.1,0,30.3-5.4Zm-28.7,5.1H545.7v4h27.6Zm86-6.1-1.4,1.4ZM652.8,11.9v-2h-2v2Zm128.2,0h2v-2h-2Zm0,28.8v2h2v-2Zm-95.1,0v-2h-2v2Zm0,38.9h-2v2h2Zm87.9,0h2v-2h-2Zm0,28.8v2h2v-2Zm-87.9,0v-2h-2v2Zm0,42.7h-2v2h2Zm95.1,0h2v-2h-2Zm0,28.8v2h2v-2Zm-104.9-2c-6.4,0-11.5-1.9-15.4-5.7l-2.8,2.9c4.7,4.6,10.9,6.8,18.2,6.8Zm-15.4-5.7c-3.9-3.7-5.9-8.6-5.9-14.9h-4c0,7.2,2.3,13.2,7.1,17.8Zm-5.9-14.8V11.9h-4V157.3h4Zm-2-143.5H781v-4H652.8Zm126.2-2V40.7h4V11.9Zm2,26.8H686v4h95Zm-97.1,2V79.6h4V40.7Zm2,40.9h87.8v-4H685.9Zm85.9-2v28.8h4V79.6Zm2,26.8H686v4h87.8Zm-89.9,2v42.7h4V108.4Zm2,44.7h95v-4h-95Zm93.1-2v28.8h4V151.1Zm2,26.8H676.1v4H781Z"/>
<path id = "path3" class="cls-2" d="M56.2,171.8c-17.6,0-31.4-4.9-41.3-14.6C5,147.3,0,133.5,0,115.9H32.6c0,8.3,2.1,14.9,6.2,19.7,4.3,4.6,10.2,7,17.8,7H83.2c7,0,12.7-1.4,17-4.3,4.5-3,6.7-7,6.7-12v-8.2c0-7.8-5.8-12.7-17.3-14.6L45.6,96c-14.4-2.4-25.4-7-32.9-13.7-7.4-6.9-11-15.6-11-26.2V42.7A37.68,37.68,0,0,1,8.4,20.4C13,13.8,19.5,8.8,27.8,5.3,36.3,1.8,46.1,0,57.1,0H84.2c10.4,0,19.6,2.2,27.6,6.5a45.06,45.06,0,0,1,18.5,18.2c4.5,7.7,6.7,16.6,6.7,26.9H104.4c0-6.7-1.8-12.1-5.5-16.1-3.7-4.2-8.6-6.2-14.6-6.2H57.1c-6.7,0-12.2,1.4-16.3,4.3a13.5,13.5,0,0,0-6,11.5v6.5c0,8,5.5,13,16.6,14.9l43.9,7.7c14.6,2.6,25.7,7.1,33.4,13.7,7.7,6.4,11.5,14.7,11.5,25v15.8a37.37,37.37,0,0,1-7.2,22.6c-4.6,6.6-11.2,11.7-19.7,15.4-8.5,3.5-18.3,5.3-29.5,5.3H56.2Zm130.3-1.9c-6.9,0-12.5-2.1-16.8-6.2s-6.5-9.6-6.5-16.3V1.9h83.5c15.2,0,27.4,3.6,36.5,10.8,9.3,7.2,13.9,16.9,13.9,29v12A30.33,30.33,0,0,1,293,68.8a31.85,31.85,0,0,1-11,11.8v.2A39,39,0,0,1,300.5,94a32.18,32.18,0,0,1,7.2,20.4V127c0,13.1-4.8,23.6-14.4,31.4-9.4,7.7-22.2,11.5-38.4,11.5Zm60.3-98.4a17,17,0,0,0,12.5-4.8q4.8-5.1,4.8-13.2V45.3a12.77,12.77,0,0,0-5-10.6c-3.4-2.7-7.8-4.1-13.4-4.1H196.5V71.4h50.3Zm5.7,69.6c7,0,12.5-1.4,16.3-4.1a14.34,14.34,0,0,0,5.8-12V114.4a14.43,14.43,0,0,0-5-11.3c-3.4-2.9-7.8-4.3-13.4-4.3H196.4V141h56.1Zm172.1-10.3H361.7l-14.9,39.1H312.2L378,1.9h14.9c10.4,0,17.4,4.8,21.1,14.4l59.8,153.6H439.2Zm-54-27.8h45.1L393.4,42.5h-.2Zm165.1,68.8c-17.6,0-31.4-4.9-41.3-14.6-9.9-9.9-14.9-23.7-14.9-41.3h32.6c0,8.3,2.1,14.9,6.2,19.7,4.3,4.6,10.2,7,17.8,7h26.6c7,0,12.7-1.4,17-4.3,4.5-3,6.7-7,6.7-12v-8.2c0-7.8-5.8-12.7-17.3-14.6l-44-7.5c-14.4-2.4-25.4-7-32.9-13.7-7.4-6.9-11-15.6-11-26.2V42.7a37.68,37.68,0,0,1,6.7-22.3c4.6-6.6,11.1-11.6,19.4-15.1C515.8,1.8,525.5,0,536.6,0h27.1c10.4,0,19.6,2.2,27.6,6.5a45.06,45.06,0,0,1,18.5,18.2c4.5,7.7,6.7,16.6,6.7,26.9H583.9c0-6.7-1.8-12.1-5.5-16.1-3.7-4.2-8.6-6.2-14.6-6.2H536.7c-6.7,0-12.2,1.4-16.3,4.3a13.5,13.5,0,0,0-6,11.5v6.5c0,8,5.5,13,16.6,14.9l43.9,7.7c14.6,2.6,25.7,7.1,33.4,13.7,7.7,6.4,11.5,14.7,11.5,25v15.8a37.37,37.37,0,0,1-7.2,22.6c-4.6,6.6-11.2,11.7-19.7,15.4-8.5,3.5-18.3,5.3-29.5,5.3H535.7Zm130.4-1.9c-6.9,0-12.5-2.1-16.8-6.2s-6.5-9.6-6.5-16.3V1.9H771V30.7H676V69.6h87.8V98.4H676v42.7h95v28.8Z"/>
</svg>