<svg width="772" height="172" viewBox="0 0 772 172" fill="none" xmlns="http://www.w3.org/2000/svg">
<path id = "mainPath" d="M56.9128 171.92C39.3128 171.92 25.5528 167.04 15.6328 157.28C5.71281 147.36 0.752813 133.6 0.752813 116H33.3928C33.3928 124.32 35.4728 130.88 39.6328 135.68C43.9528 140.32 49.8728 142.64 57.3928 142.64H84.0328C91.0728 142.64 96.7528 141.2 101.073 138.32C105.553 135.28 107.793 131.28 107.793 126.32V118.16C107.793 110.32 102.033 105.44 90.5128 103.52L46.3528 96.08C31.9528 93.68 20.9928 89.12 13.4728 82.4C6.11281 75.52 2.43281 66.8 2.43281 56.24V42.8C2.43281 34.32 4.67281 26.88 9.15281 20.48C13.7928 13.92 20.2728 8.87999 28.5928 5.35999C37.0728 1.84 46.8328 0.079999 57.8728 0.079999H84.9928C95.3928 0.079999 104.593 2.24 112.593 6.55999C120.593 10.88 126.753 16.96 131.073 24.8C135.553 32.48 137.793 41.44 137.793 51.68H105.153C105.153 44.96 103.313 39.6 99.6328 35.6C95.9528 31.44 91.0728 29.36 84.9928 29.36H57.8728C51.1528 29.36 45.7128 30.8 41.5528 33.68C37.5528 36.56 35.5528 40.4 35.5528 45.2V51.68C35.5528 59.68 41.0728 64.64 52.1128 66.56L96.0328 74.24C110.593 76.8 121.713 81.36 129.393 87.92C137.073 94.32 140.913 102.64 140.913 112.88V128.72C140.913 137.2 138.513 144.72 133.713 151.28C129.073 157.84 122.513 162.96 114.033 166.64C105.553 170.16 95.7128 171.92 84.5128 171.92H56.9128ZM187.293 170C180.413 170 174.813 167.92 170.493 163.76C166.173 159.6 164.013 154.16 164.013 147.44V1.99999L247.533 1.99999C262.733 1.99999 274.893 5.59999 284.013 12.8C293.293 20 297.933 29.68 297.933 41.84V53.84C297.933 59.12 296.573 64.16 293.853 68.96C291.293 73.76 287.613 77.68 282.813 80.72V80.96C290.493 83.68 296.653 88.08 301.293 94.16C306.093 100.24 308.493 107.04 308.493 114.56V127.04C308.493 140.16 303.693 150.64 294.093 158.48C284.653 166.16 271.853 170 255.693 170H187.293ZM247.533 71.6C252.653 71.6 256.813 70 260.013 66.8C263.213 63.44 264.813 59.04 264.813 53.6V45.44C264.813 40.96 263.133 37.44 259.773 34.88C256.413 32.16 251.933 30.8 246.333 30.8H197.133V71.6H247.533ZM253.293 141.2C260.333 141.2 265.773 139.84 269.613 137.12C273.453 134.24 275.373 130.24 275.373 125.12V114.56C275.373 109.92 273.693 106.16 270.333 103.28C266.973 100.4 262.493 98.96 256.893 98.96H197.133V141.2H253.293ZM425.303 130.88L362.423 130.88L347.543 170H312.983L378.743 1.99999H393.623C404.023 1.99999 411.063 6.79999 414.743 16.4L474.503 170H439.943L425.303 130.88ZM371.303 103.04H416.423L394.103 42.56H393.863L371.303 103.04ZM536.444 171.92C518.844 171.92 505.084 167.04 495.164 157.28C485.244 147.36 480.284 133.6 480.284 116H512.924C512.924 124.32 515.004 130.88 519.164 135.68C523.484 140.32 529.404 142.64 536.924 142.64H563.564C570.604 142.64 576.284 141.2 580.604 138.32C585.084 135.28 587.324 131.28 587.324 126.32V118.16C587.324 110.32 581.564 105.44 570.044 103.52L525.884 96.08C511.484 93.68 500.524 89.12 493.004 82.4C485.644 75.52 481.964 66.8 481.964 56.24V42.8C481.964 34.32 484.204 26.88 488.684 20.48C493.324 13.92 499.804 8.87999 508.124 5.35999C516.604 1.84 526.364 0.079999 537.404 0.079999H564.524C574.924 0.079999 584.124 2.24 592.124 6.55999C600.124 10.88 606.284 16.96 610.604 24.8C615.084 32.48 617.324 41.44 617.324 51.68H584.684C584.684 44.96 582.844 39.6 579.164 35.6C575.484 31.44 570.604 29.36 564.524 29.36L537.404 29.36C530.684 29.36 525.244 30.8 521.084 33.68C517.084 36.56 515.084 40.4 515.084 45.2V51.68C515.084 59.68 520.604 64.64 531.644 66.56L575.564 74.24C590.124 76.8 601.244 81.36 608.924 87.92C616.604 94.32 620.444 102.64 620.444 112.88V128.72C620.444 137.2 618.044 144.72 613.244 151.28C608.604 157.84 602.044 162.96 593.564 166.64C585.084 170.16 575.244 171.92 564.044 171.92H536.444ZM666.824 170C659.944 170 654.344 167.92 650.024 163.76C645.704 159.6 643.544 154.16 643.544 147.44V1.99999L771.704 1.99999V30.8H676.664V69.68H764.504V98.48H676.664V141.2H771.704V170H666.824Z" fill="white"/>
</svg>
