<svg width="100%" height="100%" viewBox="0 0 285 308" fill="none" xmlns="http://www.w3.org/2000/svg">
<g filter="url(#filter0_d)">
<path d="M154.068 223.381C194.432 223.381 227.153 190.605 227.153 150.174C227.153 109.743 194.432 76.9674 154.068 76.9674C113.704 76.9674 80.9819 109.743 80.9819 150.174C80.9819 190.605 113.704 223.381 154.068 223.381Z" fill="#1800C1"/>
<path d="M226.653 150.174C226.653 190.33 194.155 222.881 154.068 222.881C113.98 222.881 81.4819 190.33 81.4819 150.174C81.4819 110.019 113.98 77.4674 154.068 77.4674C194.155 77.4674 226.653 110.019 226.653 150.174Z" stroke="#1800C1"/>
</g>
<path d="M102.372 98.357C103.968 96.8179 105.644 95.3634 107.392 93.9995C105.824 96.0745 105.086 97.1466 103.657 99.3714C101.351 100.835 100.262 101.608 98.1352 103.222C99.4649 101.53 100.879 99.9065 102.372 98.357V98.357Z" stroke="white" stroke-opacity="0.7"/>
<path d="M107.715 93.746C109.418 92.3876 111.19 91.1179 113.023 89.9419C111.68 92.2013 111.04 93.4002 109.819 95.7864C107.427 97.0487 106.262 97.7231 104.014 99.1468C105.421 96.9392 106.147 95.8326 107.715 93.746Z" stroke="white" stroke-opacity="0.7"/>
<path d="M113.369 89.717C115.239 88.4899 117.173 87.3625 119.162 86.3394C118.049 88.7659 117.513 90.0225 116.499 92.5989C113.911 93.7056 112.649 94.3281 110.199 95.5846C111.404 93.1638 112.038 91.9879 113.369 89.717Z" stroke="white" stroke-opacity="0.7"/>
<path d="M119.531 86.1492C121.483 85.1187 123.487 84.1913 125.537 83.371C124.643 85.9359 124.211 87.2616 123.398 89.9764C120.741 90.8698 119.438 91.3597 116.897 92.4318C117.899 89.8438 118.43 88.5873 119.531 86.1492Z" stroke="white" stroke-opacity="0.7"/>
<path d="M125.929 83.2154C128.03 82.3437 130.177 81.5876 132.361 80.9502C131.692 83.6304 131.37 84.9849 130.759 87.838C127.929 88.5354 126.54 88.9389 123.842 89.8381C124.62 87.1406 125.041 85.7861 125.929 83.2154Z" stroke="white" stroke-opacity="0.7"/>
<path d="M132.77 80.8291C134.928 80.1723 137.12 79.6316 139.335 79.2095C138.886 81.9704 138.667 83.3883 138.257 86.299C135.376 86.7659 133.975 87.0541 131.197 87.7285C131.796 84.8926 132.113 83.5151 132.77 80.8291Z" stroke="white" stroke-opacity="0.7"/>
<path d="M139.756 79.1287C142.041 78.6613 144.35 78.3227 146.673 78.1143C146.448 80.9213 146.338 82.368 146.137 85.3306C143.116 85.5727 141.624 85.7571 138.69 86.224C139.11 83.3075 139.318 81.8896 139.756 79.1287Z" stroke="white" stroke-opacity="0.7"/>
<path d="M147.134 78.074C149.456 77.8345 151.791 77.7229 154.125 77.7397C154.125 80.5697 154.125 82.0222 154.125 84.9964C151.099 84.9964 149.601 85.0656 146.632 85.2903C146.817 82.3277 146.921 80.881 147.134 78.074Z" stroke="white" stroke-opacity="0.7"/>
<path d="M97.7951 103.66C99.9393 102.057 101.052 101.297 103.357 99.8499C101.951 102.086 101.282 103.239 100.031 105.614C97.5473 106.87 96.3426 107.533 94.0198 108.916C95.1843 107.099 96.4445 105.344 97.7951 103.66V103.66Z" stroke="white" stroke-opacity="0.7"/>
<path d="M103.715 99.6251C105.98 98.2187 107.173 97.5501 109.559 96.2993C108.355 98.7259 107.778 99.9767 106.677 102.536C104.089 103.625 102.833 104.202 100.389 105.418C101.657 103.037 102.32 101.873 103.715 99.6251Z" stroke="white" stroke-opacity="0.7"/>
<path d="M109.94 96.1034C112.407 94.8412 113.68 94.2475 116.28 93.1523C115.277 95.7461 114.799 97.0775 113.905 99.8096C111.121 100.755 109.761 101.268 107.115 102.369C108.176 99.8211 108.746 98.5416 109.94 96.1034Z" stroke="white" stroke-opacity="0.7"/>
<path d="M116.683 92.9852C119.242 91.9246 120.551 91.4405 123.225 90.5586C122.418 93.2849 122.038 94.6913 121.317 97.5559C118.47 98.3225 117.069 98.7433 114.337 99.6597C115.219 96.9392 115.692 95.5847 116.683 92.9852Z" stroke="white" stroke-opacity="0.7"/>
<path d="M123.646 90.4204C126.384 89.5327 127.784 89.135 130.632 88.4434C130.055 91.2849 129.738 92.7432 129.202 95.7231C126.176 96.2995 124.689 96.6684 121.767 97.4523C122.476 94.5588 122.862 93.1582 123.646 90.4204Z" stroke="white" stroke-opacity="0.7"/>
<path d="M131.07 88.3393C133.865 87.6707 135.289 87.3883 138.171 86.9214C137.768 89.8437 137.595 91.3423 137.214 94.4144C134.154 94.8179 132.643 95.0657 129.669 95.6421C130.2 92.6449 130.476 91.1751 131.07 88.3393Z" stroke="white" stroke-opacity="0.7"/>
<path d="M138.626 86.8465C141.583 86.3854 143.082 86.2067 146.119 85.9646C145.918 88.933 145.825 90.4604 145.641 93.5729C142.425 93.7804 140.834 93.936 137.704 94.3395C138.05 91.2731 138.234 89.7745 138.626 86.8465Z" stroke="white" stroke-opacity="0.7"/>
<path d="M146.586 85.9243C149.56 85.6995 151.07 85.6419 154.114 85.6361C154.114 88.6276 154.114 90.1607 154.114 93.2905C150.892 93.2905 149.295 93.3424 146.142 93.5384C146.304 90.4259 146.396 88.8985 146.586 85.9243Z" stroke="white" stroke-opacity="0.7"/>
<path d="M93.7143 109.383C96.0544 108.017 97.2648 107.36 99.7664 106.127C98.5271 108.513 97.945 109.741 96.8844 112.254C94.2273 113.297 92.9362 113.85 90.4404 115.009C91.4334 113.078 92.5262 111.2 93.7143 109.383V109.383Z" stroke="white" stroke-opacity="0.7"/>
<path d="M100.153 105.931C102.608 104.732 103.876 104.161 106.493 103.089C105.426 105.666 104.931 106.986 104.009 109.689C101.259 110.594 99.9162 111.072 97.3052 112.092C98.3484 109.568 98.9248 108.334 100.153 105.931Z" stroke="white" stroke-opacity="0.7"/>
<path d="M106.885 102.922C109.548 101.833 110.919 101.331 113.715 100.392C112.827 103.135 112.418 104.542 111.652 107.412C108.695 108.202 107.248 108.628 104.429 109.545C105.34 106.83 105.836 105.504 106.885 102.922Z" stroke="white" stroke-opacity="0.7"/>
<path d="M114.147 100.248C116.897 99.3427 118.303 98.9277 121.168 98.1726C120.453 101.055 120.124 102.524 119.508 105.533C116.487 106.173 115.006 106.524 112.107 107.291C112.862 104.432 113.271 103.003 114.147 100.248Z" stroke="white" stroke-opacity="0.7"/>
<path d="M121.617 98.0515C124.551 97.2907 126.044 96.9506 129.11 96.3627C128.58 99.3541 128.332 100.882 127.871 104.006C124.672 104.501 123.098 104.789 120.009 105.435C120.591 102.42 120.92 100.939 121.617 98.0515Z" stroke="white" stroke-opacity="0.7"/>
<path d="M129.56 96.2705C132.546 95.6941 134.061 95.4578 137.139 95.0601C136.782 98.1322 136.615 99.7 136.304 102.905C133.076 103.239 131.479 103.446 128.344 103.925C128.793 100.801 129.035 99.2446 129.56 96.2705Z" stroke="white" stroke-opacity="0.7"/>
<path d="M137.623 94.9968C140.771 94.5991 142.367 94.4492 145.601 94.236C145.422 97.36 145.336 98.9566 145.18 102.207C141.796 102.386 140.119 102.513 136.817 102.847C137.116 99.6482 137.272 98.092 137.623 94.9968Z" stroke="white" stroke-opacity="0.7"/>
<path d="M146.096 94.207C149.266 94.0167 150.869 93.9649 154.102 93.9591C154.102 97.1004 154.102 98.7028 154.102 101.971C150.713 101.971 149.036 102.017 145.71 102.184C145.854 98.9276 145.918 97.331 146.096 94.207Z" stroke="white" stroke-opacity="0.7"/>
<path d="M90.1753 115.504C92.6826 114.352 93.9795 113.821 96.6481 112.79C95.5876 115.314 95.1034 116.611 94.2215 119.245C91.4203 120.087 90.0543 120.525 87.4144 121.453C88.228 119.422 89.1496 117.437 90.1753 115.504V115.504Z" stroke="white" stroke-opacity="0.7"/>
<path d="M97.0631 112.634C99.6857 111.631 101.034 111.159 103.795 110.265C102.89 112.98 102.47 114.363 101.715 117.182C98.8326 117.908 97.4032 118.294 94.6538 119.107C95.5299 116.467 96.0083 115.17 97.0631 112.634Z" stroke="white" stroke-opacity="0.7"/>
<path d="M104.233 110.127C107.069 109.222 108.522 108.801 111.484 108.023C110.729 110.905 110.383 112.375 109.755 115.372C106.66 116.006 105.144 116.346 102.176 117.101C102.919 114.231 103.334 112.847 104.233 110.127Z" stroke="white" stroke-opacity="0.7"/>
<path d="M111.945 107.89C114.856 107.135 116.349 106.79 119.375 106.161C118.799 109.176 118.493 110.715 117.986 113.85C114.827 114.357 113.271 114.64 110.228 115.257C110.856 112.271 111.196 110.772 111.945 107.89Z" stroke="white" stroke-opacity="0.7"/>
<path d="M119.853 106.081C122.96 105.447 124.539 105.164 127.75 104.668C127.295 107.798 127.087 109.395 126.707 112.64C123.364 113.043 121.715 113.274 118.482 113.793C118.983 110.646 119.26 109.101 119.853 106.081Z" stroke="white" stroke-opacity="0.7"/>
<path d="M128.246 104.593C131.398 104.121 132.995 103.919 136.24 103.591C135.935 106.801 135.79 108.432 135.537 111.758C132.165 112.029 130.505 112.196 127.225 112.582C127.594 109.331 127.802 107.729 128.246 104.593Z" stroke="white" stroke-opacity="0.7"/>
<path d="M136.753 103.539C140.067 103.205 141.75 103.078 145.151 102.905C144.995 106.167 144.926 107.827 144.799 111.205C141.266 111.349 139.52 111.453 136.073 111.718C136.321 108.386 136.453 106.738 136.753 103.539Z" stroke="white" stroke-opacity="0.7"/>
<path d="M145.676 102.882C149.007 102.72 150.696 102.674 154.097 102.674C154.097 105.954 154.097 107.625 154.097 111.014C150.563 111.014 148.817 111.055 145.353 111.182C145.468 107.804 145.531 106.161 145.676 102.882Z" stroke="white" stroke-opacity="0.7"/>
<path d="M87.2012 121.977C89.8525 121.067 91.2359 120.634 94.0313 119.816C93.1668 122.462 92.7748 123.816 92.0947 126.565C89.1782 127.194 87.7603 127.528 85.0051 128.225C85.6272 126.106 86.3602 124.02 87.2012 121.977V121.977Z" stroke="white" stroke-opacity="0.7"/>
<path d="M94.4693 119.689C97.2302 118.888 98.6481 118.507 101.553 117.798C100.81 120.634 100.475 122.081 99.8874 125.021C96.8844 125.568 95.4146 125.856 92.55 126.467C93.2244 123.706 93.6048 122.346 94.4693 119.689Z" stroke="white" stroke-opacity="0.7"/>
<path d="M102.009 117.689C104.983 116.969 106.51 116.634 109.617 116.012C109 119.015 108.718 120.548 108.234 123.655C105.017 124.127 103.444 124.387 100.366 124.94C100.96 121.989 101.271 120.536 102.009 117.689Z" stroke="white" stroke-opacity="0.7"/>
<path d="M110.101 115.914C113.15 115.337 114.712 115.038 117.876 114.536C117.381 117.677 117.156 119.28 116.77 122.525C113.496 122.905 111.888 123.101 108.7 123.58C109.213 120.461 109.484 118.928 110.101 115.914Z" stroke="white" stroke-opacity="0.7"/>
<path d="M118.378 114.461C121.623 113.954 123.271 113.729 126.626 113.308C126.251 116.565 126.084 118.219 125.796 121.574C122.338 121.873 120.608 122.046 117.283 122.433C117.675 119.211 117.888 117.608 118.378 114.461Z" stroke="white" stroke-opacity="0.7"/>
<path d="M127.145 113.28C130.436 112.899 132.102 112.738 135.485 112.473C135.237 115.81 135.122 117.505 134.909 120.94C131.45 121.142 129.721 121.268 126.315 121.557C126.614 118.196 126.782 116.536 127.145 113.28Z" stroke="white" stroke-opacity="0.7"/>
<path d="M136.021 112.432C139.479 112.167 141.209 112.069 144.771 111.931C144.65 115.314 144.592 117.038 144.494 120.525C140.845 120.629 139.041 120.709 135.479 120.911C135.67 117.47 135.779 115.77 136.021 112.432Z" stroke="white" stroke-opacity="0.7"/>
<path d="M145.341 111.925C148.8 111.798 150.569 111.764 154.114 111.764C154.114 115.164 154.114 116.893 154.114 120.409C150.471 120.409 148.661 120.438 145.088 120.536C145.151 117.02 145.203 115.297 145.341 111.925Z" stroke="white" stroke-opacity="0.7"/>
<path d="M84.8207 128.767C87.5816 128.093 89.0053 127.77 91.9275 127.153C91.2647 129.914 90.9823 131.321 90.5154 134.168C87.5124 134.589 86.0484 134.813 83.2126 135.28C83.6316 133.082 84.1684 130.908 84.8207 128.767V128.767Z" stroke="white" stroke-opacity="0.7"/>
<path d="M92.406 127.061C95.2879 126.485 96.7519 126.185 99.7664 125.655C99.19 128.6 98.9537 130.099 98.5502 133.148C95.4608 133.517 93.9391 133.724 90.9996 134.116C91.4664 131.246 91.7373 129.833 92.406 127.061Z" stroke="white" stroke-opacity="0.7"/>
<path d="M100.245 125.568C103.328 125.032 104.908 124.784 108.13 124.318C107.657 127.436 107.455 129.015 107.121 132.22C103.818 132.543 102.204 132.71 99.0516 133.079C99.4378 130.029 99.6799 128.525 100.245 125.568Z" stroke="white" stroke-opacity="0.7"/>
<path d="M108.631 124.248C111.79 123.799 113.404 123.591 116.701 123.216C116.32 126.473 116.159 128.121 115.888 131.465C112.533 131.724 110.885 131.862 107.646 132.173C107.957 128.957 108.159 127.372 108.631 124.248Z" stroke="white" stroke-opacity="0.7"/>
<path d="M117.202 123.159C120.562 122.784 122.268 122.617 125.733 122.323C125.45 125.689 125.323 127.395 125.156 130.854C121.611 131.055 119.865 131.171 116.43 131.43C116.666 128.064 116.827 126.421 117.202 123.159Z" stroke="white" stroke-opacity="0.7"/>
<path d="M126.269 122.3C129.669 122.018 131.393 121.897 134.914 121.724C134.724 125.182 134.643 126.911 134.505 130.456C130.937 130.588 129.179 130.675 125.704 130.865C125.871 127.361 125.992 125.649 126.269 122.3Z" stroke="white" stroke-opacity="0.7"/>
<path d="M135.439 121.649C139.007 121.453 140.817 121.372 144.471 121.274C144.379 124.767 144.338 126.542 144.269 130.127C140.54 130.202 138.69 130.254 135.047 130.387C135.174 126.848 135.254 125.095 135.439 121.649Z" stroke="white" stroke-opacity="0.7"/>
<path d="M145.036 121.257C148.621 121.159 150.431 121.136 154.085 121.136C154.085 124.646 154.085 126.427 154.085 130.035C150.362 130.035 148.511 130.035 144.863 130.122C144.909 126.531 144.949 124.756 145.036 121.257Z" stroke="white" stroke-opacity="0.7"/>
<path d="M83.1204 135.845C85.9677 135.401 87.4317 135.188 90.4405 134.779C89.9909 137.661 89.8122 139.09 89.5759 142.024C86.521 142.237 85.034 142.353 82.1405 142.6C82.3452 140.333 82.6723 138.078 83.1204 135.845V135.845Z" stroke="white" stroke-opacity="0.7"/>
<path d="M90.9074 134.721C93.8585 134.324 95.3744 134.145 98.4638 133.787C98.0776 136.837 97.9278 138.399 97.7203 141.505C94.5847 141.69 93.0458 141.788 90.0486 141.995C90.2849 139.044 90.4578 137.586 90.9074 134.721Z" stroke="white" stroke-opacity="0.7"/>
<path d="M98.9537 133.736C102.124 133.378 103.743 133.217 107.023 132.911C106.7 136.122 106.574 137.753 106.401 141.044C103.052 141.2 101.409 141.286 98.1929 141.476C98.4234 138.341 98.5733 136.79 98.9537 133.736Z" stroke="white" stroke-opacity="0.7"/>
<path d="M107.559 132.859C110.804 132.565 112.458 132.427 115.819 132.185C115.559 135.534 115.461 137.228 115.323 140.658C111.917 140.791 110.239 140.86 106.948 141.015C107.121 137.718 107.242 136.081 107.559 132.859Z" stroke="white" stroke-opacity="0.7"/>
<path d="M116.349 132.145C119.807 131.897 121.537 131.787 125.081 131.568C124.891 135.027 124.816 136.756 124.712 140.324C121.116 140.427 119.346 140.485 115.859 140.618C115.997 137.205 116.095 135.505 116.349 132.145Z" stroke="white" stroke-opacity="0.7"/>
<path d="M125.635 131.563C129.093 131.378 130.88 131.297 134.447 131.165C134.321 134.71 134.269 136.502 134.2 140.128C130.58 140.197 128.793 140.237 125.266 140.335C125.369 136.785 125.444 135.032 125.635 131.563Z" stroke="white" stroke-opacity="0.7"/>
<path d="M135.012 131.148C138.667 131.015 140.517 130.963 144.235 130.9C144.165 134.491 144.142 136.312 144.108 139.984C140.321 140.018 138.448 140.047 134.747 140.116C134.839 136.491 134.891 134.692 135.012 131.148Z" stroke="white" stroke-opacity="0.7"/>
<path d="M144.834 130.888C148.494 130.825 150.35 130.807 154.056 130.807C154.056 134.421 154.056 136.249 154.056 139.937C150.281 139.937 148.408 139.937 144.696 139.978C144.765 136.306 144.765 134.485 144.834 130.888Z" stroke="white" stroke-opacity="0.7"/>
<path d="M82.0829 143.171C84.9648 142.952 86.4692 142.848 89.524 142.652C89.2992 145.598 89.2416 147.085 89.2358 150.093H81.7428C81.7312 147.782 81.8447 145.471 82.0829 143.171V143.171Z" stroke="white" stroke-opacity="0.7"/>
<path d="M90.0082 142.624C93.0112 142.433 94.5501 142.341 97.6914 142.174C97.5012 145.304 97.4493 146.889 97.4436 150.082H89.7258C89.7143 147.085 89.7777 145.58 90.0082 142.624Z" stroke="white" stroke-opacity="0.7"/>
<path d="M98.1756 142.145C101.398 141.972 103.04 141.891 106.395 141.747C106.233 145.044 106.193 146.71 106.187 150.076H97.9335C97.9393 146.877 97.9854 145.286 98.1756 142.145Z" stroke="white" stroke-opacity="0.7"/>
<path d="M106.914 141.724C110.205 141.58 111.882 141.511 115.294 141.396C115.162 144.854 115.133 146.583 115.127 150.07H106.723C106.723 146.704 106.758 145.027 106.914 141.724Z" stroke="white" stroke-opacity="0.7"/>
<path d="M115.83 141.379C119.289 141.258 121.093 141.2 124.689 141.108C124.597 144.652 124.568 146.451 124.568 150.059H115.669C115.669 146.56 115.703 144.82 115.83 141.379Z" stroke="white" stroke-opacity="0.7"/>
<path d="M125.248 141.096C128.776 141.004 130.568 140.964 134.188 140.9C134.125 144.531 134.107 146.364 134.102 150.059H125.127C125.127 146.439 125.168 144.647 125.248 141.096Z" stroke="white" stroke-opacity="0.7"/>
<path d="M134.759 140.889C138.459 140.831 140.338 140.802 144.125 140.773C144.09 144.451 144.085 146.307 144.079 150.053H134.678C134.678 146.358 134.695 144.526 134.759 140.889Z" stroke="white" stroke-opacity="0.7"/>
<path d="M144.707 140.744C148.419 140.744 150.298 140.704 154.074 140.704V150.03H144.673C144.673 146.306 144.678 144.445 144.707 140.744Z" stroke="white" stroke-opacity="0.7"/>
<path d="M154.425 77.7397C156.81 77.724 159.194 77.8394 161.566 78.0855C161.78 80.8983 161.883 82.3393 162.079 85.3019C159.059 85.0656 157.526 85.0022 154.437 84.9964C154.431 82.0222 154.431 80.5698 154.425 77.7397Z" stroke="white" stroke-opacity="0.7"/>
<path d="M161.999 78.1317C164.281 78.3391 166.549 78.672 168.794 79.1289C169.232 81.8897 169.44 83.3077 169.838 86.2242C166.956 85.7631 165.503 85.5844 162.546 85.3423C162.339 82.3797 162.229 80.9387 161.999 78.1317Z" stroke="white" stroke-opacity="0.7"/>
<path d="M169.215 79.2095C171.478 79.6424 173.715 80.1965 175.918 80.8695C176.581 83.5497 176.898 84.9042 177.498 87.7861C174.668 87.0944 173.221 86.8005 170.293 86.3221C169.884 83.3883 169.665 81.9531 169.215 79.2095Z" stroke="white" stroke-opacity="0.7"/>
<path d="M176.328 80.9906C178.464 81.6197 180.565 82.3624 182.622 83.2155C183.51 85.7861 183.93 87.1118 184.731 89.8381C182.069 88.9563 180.697 88.5643 177.936 87.8726C177.325 85.0484 177.002 83.6823 176.328 80.9906Z" stroke="white" stroke-opacity="0.7"/>
<path d="M183.014 83.371C185.107 84.2077 187.155 85.1563 189.147 86.2126C190.253 88.6449 190.784 89.9014 191.792 92.4894C189.198 91.3885 187.873 90.887 185.158 89.9764C184.34 87.2616 183.907 85.9359 183.014 83.371Z" stroke="white" stroke-opacity="0.7"/>
<path d="M189.51 86.4086C191.457 87.4108 193.35 88.5152 195.181 89.717C196.513 91.988 197.147 93.1753 198.351 95.5846C195.954 94.3339 194.714 93.746 192.19 92.6566C191.17 90.0801 190.634 88.8294 189.51 86.4086Z" stroke="white" stroke-opacity="0.7"/>
<path d="M195.527 89.9419C197.401 91.1415 199.21 92.4402 200.945 93.8325C202.501 95.9133 203.251 96.9911 204.657 99.2217C202.352 97.7635 201.199 97.0776 198.732 95.7634C197.51 93.3714 196.87 92.2013 195.527 89.9419Z" stroke="white" stroke-opacity="0.7"/>
<path d="M201.251 94.0859C202.96 95.4242 204.599 96.8498 206.162 98.357C207.654 99.9065 209.068 101.53 210.398 103.222C208.311 101.642 207.228 100.882 204.991 99.4463C203.585 97.2272 202.836 96.1552 201.251 94.0859Z" stroke="white" stroke-opacity="0.7"/>
<path d="M154.437 85.6361C157.543 85.6361 159.082 85.7053 162.126 85.9358C162.316 88.91 162.408 90.4374 162.581 93.5499C159.365 93.3482 157.734 93.2905 154.442 93.2905C154.442 90.1607 154.442 88.6276 154.437 85.6361Z" stroke="white" stroke-opacity="0.7"/>
<path d="M162.592 85.9878C165.561 86.2299 167.031 86.4086 169.924 86.8581C170.316 89.7862 170.5 91.2848 170.852 94.3512C167.786 93.9592 166.241 93.8036 163.082 93.5961C162.898 90.4721 162.8 88.9447 162.592 85.9878Z" stroke="white" stroke-opacity="0.7"/>
<path d="M170.379 86.9214C173.325 87.394 174.777 87.688 177.63 88.3739C178.207 91.2155 178.506 92.6737 179.037 95.6594C176.005 95.083 174.466 94.8121 171.336 94.4029C170.973 91.3423 170.783 89.8437 170.379 86.9214Z" stroke="white" stroke-opacity="0.7"/>
<path d="M178.068 88.4778C180.852 89.1579 182.224 89.5499 184.904 90.4202C185.7 93.158 186.057 94.5587 186.783 97.4348C183.901 96.6855 182.466 96.3455 179.504 95.7518C178.962 92.7776 178.674 91.3194 178.068 88.4778Z" stroke="white" stroke-opacity="0.7"/>
<path d="M185.325 90.5586C188.057 91.4578 189.394 91.9592 192 93.0428C192.997 95.6366 193.469 96.9738 194.357 99.7116C191.573 98.7721 190.144 98.3398 187.233 97.5559C186.512 94.6913 186.132 93.2849 185.325 90.5586Z" stroke="white" stroke-opacity="0.7"/>
<path d="M192.403 93.2097C194.951 94.2818 196.196 94.8639 198.611 96.0916C199.804 98.5298 200.375 99.7805 201.435 102.357C198.841 101.279 197.51 100.778 194.789 99.8439C193.89 97.1291 193.412 95.7862 192.403 93.2097Z" stroke="white" stroke-opacity="0.7"/>
<path d="M198.991 96.2993C201.452 97.5789 202.646 98.259 204.957 99.7C206.357 101.942 207.02 103.101 208.265 105.464C205.77 104.213 204.484 103.625 201.844 102.513C200.772 99.9767 200.196 98.7259 198.991 96.2993Z" stroke="white" stroke-opacity="0.7"/>
<path d="M205.314 99.9248C207.568 101.343 208.657 102.092 210.755 103.66C212.106 105.344 213.366 107.099 214.531 108.916C212.26 107.562 211.072 106.911 208.646 105.683C207.395 103.308 206.726 102.155 205.314 99.9248Z" stroke="white" stroke-opacity="0.7"/>
<path d="M154.448 93.9591C157.751 93.9591 159.388 94.0167 162.621 94.2185C162.794 97.3425 162.875 98.9391 163.019 102.19C159.63 102.023 157.912 101.977 154.454 101.971C154.454 98.7028 154.448 97.1004 154.448 93.9591Z" stroke="white" stroke-opacity="0.7"/>
<path d="M163.123 94.2474C166.281 94.4549 167.843 94.6106 170.927 94.9967C171.273 98.0746 171.434 99.6482 171.734 102.847C168.5 102.524 166.858 102.392 163.544 102.219C163.388 98.968 163.301 97.3714 163.123 94.2474Z" stroke="white" stroke-opacity="0.7"/>
<path d="M171.411 95.0601C174.552 95.4635 176.103 95.7171 179.152 96.2993C179.677 99.2965 179.919 100.83 180.374 103.954C177.175 103.458 175.544 103.245 172.247 102.905C171.936 99.7 171.769 98.1322 171.411 95.0601Z" stroke="white" stroke-opacity="0.7"/>
<path d="M179.619 96.3916C182.599 96.968 184.063 97.3081 186.933 98.0516C187.631 100.934 187.959 102.421 188.564 105.435C185.538 104.801 183.999 104.524 180.87 104.029C180.409 100.91 180.155 99.383 179.619 96.3916Z" stroke="white" stroke-opacity="0.7"/>
<path d="M187.383 98.1726C190.311 98.945 191.746 99.3715 194.547 100.299C195.423 103.043 195.838 104.455 196.599 107.331C193.637 106.542 192.126 106.179 189.043 105.533C188.426 102.524 188.097 101.049 187.383 98.1726Z" stroke="white" stroke-opacity="0.7"/>
<path d="M194.98 100.443C197.717 101.36 199.055 101.856 201.666 102.922C202.715 105.504 203.21 106.83 204.121 109.545C201.36 108.645 199.948 108.225 197.055 107.452C196.288 104.588 195.867 103.181 194.98 100.443Z" stroke="white" stroke-opacity="0.7"/>
<path d="M202.075 103.089C204.732 104.179 206.023 104.767 208.53 105.971C209.758 108.363 210.335 109.597 211.412 112.115C208.749 111.072 207.378 110.582 204.571 109.66C203.637 106.986 203.135 105.666 202.075 103.089Z" stroke="white" stroke-opacity="0.7"/>
<path d="M208.917 106.19C211.361 107.406 212.548 108.046 214.836 109.383C216.028 111.2 217.125 113.078 218.122 115.009C215.678 113.856 214.41 113.331 211.816 112.306C210.738 109.798 210.156 108.571 208.917 106.19Z" stroke="white" stroke-opacity="0.7"/>
<path d="M154.454 102.703C157.912 102.703 159.641 102.749 163.054 102.916C163.198 106.178 163.267 107.844 163.388 111.222C159.855 111.084 158.068 111.049 154.46 111.043C154.46 107.625 154.46 105.954 154.454 102.703Z" stroke="white" stroke-opacity="0.7"/>
<path d="M163.578 102.916C166.904 103.089 168.552 103.216 171.797 103.539C172.097 106.749 172.23 108.386 172.477 111.718C169.1 111.458 167.394 111.354 163.935 111.21C163.786 107.838 163.734 106.161 163.578 102.916Z" stroke="white" stroke-opacity="0.7"/>
<path d="M172.31 103.591C175.625 103.925 177.256 104.132 180.472 104.622C180.922 107.752 181.129 109.354 181.504 112.599C178.155 112.208 176.455 112.023 173.013 111.758C172.76 108.432 172.616 106.801 172.31 103.591Z" stroke="white" stroke-opacity="0.7"/>
<path d="M180.968 104.697C184.109 105.181 185.659 105.458 188.697 106.081C189.273 109.101 189.567 110.646 190.069 113.787C186.899 113.285 185.291 113.055 181.999 112.663C181.654 109.418 181.429 107.827 180.968 104.697Z" stroke="white" stroke-opacity="0.7"/>
<path d="M189.175 106.161C192.271 106.801 193.787 107.153 196.761 107.931C197.51 110.813 197.856 112.288 198.49 115.291C195.383 114.657 193.798 114.369 190.57 113.85C190.057 110.732 189.781 109.193 189.175 106.161Z" stroke="white" stroke-opacity="0.7"/>
<path d="M197.216 108.063C200.098 108.83 201.545 109.216 204.317 110.127C205.216 112.847 205.631 114.242 206.38 117.078C203.499 116.363 201.994 116.023 198.962 115.401C198.328 112.409 197.977 110.94 197.216 108.063Z" stroke="white" stroke-opacity="0.7"/>
<path d="M204.755 110.265C207.579 111.176 208.951 111.66 211.631 112.686C212.68 115.216 213.164 116.513 214.046 119.165C211.239 118.329 209.793 117.931 206.836 117.193C206.081 114.363 205.66 112.98 204.755 110.265Z" stroke="white" stroke-opacity="0.7"/>
<path d="M212.041 112.847C214.652 113.856 215.92 114.386 218.381 115.505C219.407 117.437 220.328 119.422 221.142 121.453C218.554 120.548 217.222 120.116 214.484 119.291C213.591 116.657 213.101 115.384 212.041 112.847Z" stroke="white" stroke-opacity="0.7"/>
<path d="M154.46 111.746C158.079 111.746 159.872 111.781 163.417 111.914C163.532 115.303 163.59 117.026 163.682 120.513C160.033 120.41 158.189 120.386 154.46 120.381C154.465 116.876 154.465 115.147 154.46 111.746Z" stroke="white" stroke-opacity="0.7"/>
<path d="M163.964 111.925C167.423 112.064 169.152 112.161 172.529 112.421C172.771 115.758 172.881 117.458 173.071 120.9C169.584 120.704 167.814 120.623 164.247 120.519C164.149 117.043 164.091 115.32 163.964 111.925Z" stroke="white" stroke-opacity="0.7"/>
<path d="M173.065 112.502C176.524 112.773 178.253 112.94 181.579 113.326C181.947 116.583 182.115 118.243 182.403 121.603C178.945 121.303 177.181 121.176 173.624 120.969C173.428 117.505 173.313 115.81 173.065 112.502Z" stroke="white" stroke-opacity="0.7"/>
<path d="M182.097 113.36C185.377 113.747 186.997 113.937 190.167 114.461C190.657 117.608 190.876 119.211 191.262 122.462C187.982 122.087 186.311 121.914 182.927 121.62C182.639 118.266 182.472 116.611 182.097 113.36Z" stroke="white" stroke-opacity="0.7"/>
<path d="M190.674 114.536C193.908 115.049 195.498 115.332 198.617 115.948C199.228 118.957 199.504 120.49 199.988 123.603C196.766 123.13 195.124 122.917 191.781 122.525C191.395 119.28 191.17 117.689 190.674 114.536Z" stroke="white" stroke-opacity="0.7"/>
<path d="M199.095 116.046C202.138 116.623 203.625 116.986 206.542 117.689C207.28 120.536 207.608 121.989 208.185 124.94C205.17 124.398 203.631 124.144 200.484 123.678C199.994 120.571 199.717 119.043 199.095 116.046Z" stroke="white" stroke-opacity="0.7"/>
<path d="M207.014 117.798C209.983 118.525 211.43 118.911 214.248 119.729C215.107 122.386 215.493 123.764 216.173 126.502C213.251 125.874 211.747 125.58 208.68 125.021C208.075 122.081 207.741 120.634 207.014 117.798Z" stroke="white" stroke-opacity="0.7"/>
<path d="M214.663 119.856C217.413 120.663 218.75 121.09 221.349 121.977C222.19 124.02 222.923 126.106 223.545 128.225C220.848 127.54 219.459 127.217 216.629 126.6C215.925 123.851 215.533 122.502 214.663 119.856Z" stroke="white" stroke-opacity="0.7"/>
<path d="M154.465 121.147C158.195 121.147 160.045 121.176 163.688 121.274C163.78 124.773 163.814 126.542 163.884 130.133C160.149 130.064 158.258 130.047 154.454 130.047C154.471 126.427 154.471 124.646 154.465 121.147Z" stroke="white" stroke-opacity="0.7"/>
<path d="M164.27 121.28C167.843 121.378 169.613 121.453 173.112 121.649C173.296 125.107 173.377 126.836 173.509 130.387C169.936 130.254 168.126 130.202 164.477 130.133C164.408 126.548 164.362 124.773 164.27 121.28Z" stroke="white" stroke-opacity="0.7"/>
<path d="M182.996 122.34C186.391 122.629 188.063 122.79 191.348 123.159C191.723 126.421 191.884 128.075 192.149 131.424C188.783 131.176 187.077 131.061 183.607 130.848C183.383 127.407 183.285 125.701 182.996 122.34Z" stroke="white" stroke-opacity="0.7"/>
<path d="M191.867 123.216C195.216 123.603 196.864 123.793 200.086 124.271C200.559 127.389 200.761 128.98 201.095 132.191C197.787 131.874 196.104 131.73 192.68 131.465C192.409 128.121 192.247 126.473 191.867 123.216Z" stroke="white" stroke-opacity="0.7"/>
<path d="M200.588 124.34C203.741 124.796 205.285 125.044 208.306 125.568C208.882 128.525 209.113 130.029 209.51 133.061C206.415 132.704 204.83 132.537 201.602 132.22C201.251 129.038 201.066 127.453 200.588 124.34Z" stroke="white" stroke-opacity="0.7"/>
<path d="M208.784 125.655C211.862 126.196 213.366 126.485 216.277 127.09C216.934 129.862 217.217 131.269 217.683 134.128C214.675 133.707 213.13 133.511 209.977 133.136C209.597 130.099 209.355 128.6 208.784 125.655Z" stroke="white" stroke-opacity="0.7"/>
<path d="M216.75 127.188C219.632 127.764 221.003 128.104 223.707 128.767C224.359 130.908 224.896 133.082 225.315 135.28C222.537 134.825 221.107 134.606 218.168 134.191C217.701 131.344 217.418 129.943 216.75 127.188Z" stroke="white" stroke-opacity="0.7"/>
<path d="M173.665 121.678C177.233 121.879 178.991 122 182.461 122.294C182.743 125.66 182.864 127.372 183.037 130.831C179.492 130.635 177.694 130.548 174.051 130.41C173.936 126.871 173.855 125.124 173.665 121.678Z" stroke="white" stroke-opacity="0.7"/>
<path d="M154.471 130.807C158.281 130.807 160.172 130.807 163.912 130.888C163.976 134.485 163.999 136.306 164.033 139.984C160.247 139.949 158.333 139.937 154.477 139.937C154.471 136.249 154.471 134.404 154.471 130.807Z" stroke="white" stroke-opacity="0.7"/>
<path d="M164.489 130.9C168.149 130.969 169.959 131.021 173.538 131.148C173.659 134.692 173.711 136.491 173.78 140.116C170.155 140.047 168.322 140.024 164.616 139.989C164.581 136.312 164.558 134.496 164.489 130.9Z" stroke="white" stroke-opacity="0.7"/>
<path d="M174.103 131.165C177.746 131.297 179.55 131.378 183.1 131.574C183.29 135.032 183.365 136.796 183.469 140.341C179.873 140.237 178.045 140.197 174.351 140.128C174.282 136.502 174.23 134.71 174.103 131.165Z" stroke="white" stroke-opacity="0.7"/>
<path d="M183.654 131.603C187.112 131.793 188.841 131.903 192.201 132.145C192.455 135.505 192.553 137.206 192.691 140.641C189.279 140.514 187.544 140.456 184.046 140.353C183.919 136.814 183.844 135.061 183.654 131.603Z" stroke="white" stroke-opacity="0.7"/>
<path d="M192.732 132.185C196.19 132.433 197.85 132.571 201.164 132.877C201.481 136.099 201.602 137.73 201.775 141.027C198.421 140.865 196.709 140.791 193.227 140.658C193.089 137.228 192.991 135.557 192.732 132.185Z" stroke="white" stroke-opacity="0.7"/>
<path d="M201.671 132.923C204.905 133.223 206.49 133.39 209.597 133.736C209.977 136.791 210.127 138.347 210.329 141.477C207.182 141.292 205.574 141.206 202.294 141.05C202.121 137.759 201.994 136.133 201.671 132.923Z" stroke="white" stroke-opacity="0.7"/>
<path d="M210.087 133.787C213.245 134.145 214.79 134.335 217.804 134.739C218.248 137.62 218.421 139.061 218.663 142.001C215.603 141.793 214.052 141.69 210.83 141.505C210.623 138.381 210.473 136.837 210.087 133.787Z" stroke="white" stroke-opacity="0.7"/>
<path d="M218.266 134.802C221.205 135.2 222.64 135.407 225.43 135.845C225.877 138.072 226.205 140.321 226.41 142.583C223.58 142.353 222.122 142.243 219.136 142.036C218.894 139.102 218.721 137.655 218.266 134.802Z" stroke="white" stroke-opacity="0.7"/>
<path d="M154.477 140.744C158.333 140.744 160.241 140.744 164.039 140.785C164.068 144.468 164.08 146.324 164.08 150.07H154.477V140.744Z" stroke="white" stroke-opacity="0.7"/>
<path d="M164.627 140.773C168.328 140.808 170.166 140.831 173.792 140.889C173.855 144.526 173.872 146.358 173.872 150.059H164.65C164.667 146.312 164.656 144.451 164.627 140.773Z" stroke="white" stroke-opacity="0.7"/>
<path d="M174.362 140.9C178.063 140.964 179.89 141.004 183.492 141.096C183.584 144.647 183.607 146.445 183.613 150.059H174.449C174.443 146.364 174.426 144.531 174.362 140.9Z" stroke="white" stroke-opacity="0.7"/>
<path d="M184.046 141.113C187.567 141.206 189.302 141.257 192.72 141.378C192.847 144.837 192.882 146.566 192.882 150.065H184.172C184.167 146.451 184.144 144.658 184.046 141.113Z" stroke="white" stroke-opacity="0.7"/>
<path d="M193.256 141.396C196.714 141.517 198.444 141.586 201.81 141.73C201.971 145.033 202.011 146.704 202.017 150.076H193.423C193.417 146.566 193.389 144.831 193.256 141.396Z" stroke="white" stroke-opacity="0.7"/>
<path d="M202.329 141.753C205.608 141.897 207.222 141.978 210.398 142.145C210.588 145.286 210.634 146.877 210.64 150.082H202.571C202.53 146.716 202.49 145.05 202.329 141.753Z" stroke="white" stroke-opacity="0.7"/>
<path d="M210.87 142.174C214.081 142.347 215.649 142.439 218.715 142.635C218.934 145.586 218.992 147.079 218.998 150.093H211.118C211.113 146.889 211.049 145.304 210.87 142.174Z" stroke="white" stroke-opacity="0.7"/>
<path d="M219.188 142.664C222.173 142.854 223.632 142.958 226.468 143.171C226.703 145.469 226.81 147.778 226.79 150.088H219.476C219.47 147.085 219.407 145.603 219.188 142.664Z" stroke="white" stroke-opacity="0.7"/>
<path d="M81.7542 150.405H89.2472C89.2472 153.414 89.3106 154.901 89.5354 157.846C86.4806 157.65 84.9877 157.546 82.0943 157.327C81.8561 155.028 81.7426 152.717 81.7542 150.405V150.405Z" stroke="white" stroke-opacity="0.7"/>
<path d="M89.7143 150.416H97.4321C97.4321 153.609 97.4897 155.195 97.6799 158.324C94.5386 158.157 92.9997 158.065 89.9967 157.875C89.7777 154.929 89.7143 153.425 89.7143 150.416Z" stroke="white" stroke-opacity="0.7"/>
<path d="M97.9335 150.428H106.187C106.187 153.794 106.233 155.459 106.395 158.756C103.04 158.612 101.398 158.532 98.1756 158.359C97.9854 155.223 97.9393 153.632 97.9335 150.428Z" stroke="white" stroke-opacity="0.7"/>
<path d="M106.723 150.433H115.139C115.139 153.938 115.173 155.673 115.306 159.108C111.894 158.993 110.216 158.924 106.925 158.78C106.758 155.483 106.723 153.805 106.723 150.433Z" stroke="white" stroke-opacity="0.7"/>
<path d="M115.669 150.445H124.591C124.591 154.053 124.591 155.851 124.712 159.396C121.116 159.304 119.34 159.246 115.853 159.125C115.703 155.69 115.669 153.949 115.669 150.445Z" stroke="white" stroke-opacity="0.7"/>
<path d="M125.127 150.451H134.102C134.102 154.145 134.102 155.978 134.188 159.61C130.568 159.546 128.776 159.506 125.248 159.414C125.168 155.863 125.127 154.071 125.127 150.451Z" stroke="white" stroke-opacity="0.7"/>
<path d="M134.678 150.451H144.079C144.079 154.197 144.079 156.053 144.125 159.731C140.338 159.731 138.459 159.673 134.759 159.615C134.695 155.984 134.678 154.151 134.678 150.451Z" stroke="white" stroke-opacity="0.7"/>
<path d="M144.673 150.457H154.074V159.765C150.298 159.765 148.419 159.765 144.707 159.725C144.678 156.065 144.673 154.203 144.673 150.457Z" stroke="white" stroke-opacity="0.7"/>
<path d="M82.1405 157.927C85.0224 158.157 86.521 158.272 89.5759 158.503C89.8122 161.437 89.9909 162.889 90.4405 165.748C87.4317 165.339 85.9677 165.126 83.1204 164.682C82.6723 162.449 82.3452 160.194 82.1405 157.927V157.927Z" stroke="white" stroke-opacity="0.7"/>
<path d="M90.0486 158.515C93.0458 158.722 94.5847 158.82 97.7203 159.004C97.9278 162.128 98.0776 163.673 98.4638 166.722C95.3744 166.371 93.8527 166.186 90.9074 165.789C90.4578 162.924 90.2849 161.494 90.0486 158.515Z" stroke="white" stroke-opacity="0.7"/>
<path d="M98.2216 159.033C101.438 159.223 103.081 159.31 106.429 159.465C106.602 162.757 106.729 164.388 107.052 167.598C103.743 167.293 102.124 167.131 98.9824 166.774C98.5732 163.719 98.4234 162.169 98.2216 159.033Z" stroke="white" stroke-opacity="0.7"/>
<path d="M106.948 159.494C110.239 159.65 111.917 159.719 115.323 159.851C115.461 163.281 115.559 164.976 115.819 168.324C112.458 168.082 110.804 167.944 107.559 167.65C107.242 164.428 107.121 162.791 106.948 159.494Z" stroke="white" stroke-opacity="0.7"/>
<path d="M115.859 159.869C119.346 160.001 121.116 160.059 124.712 160.163C124.816 163.702 124.891 165.454 125.081 168.918C121.537 168.722 119.784 168.613 116.349 168.342C116.095 165.005 115.997 163.304 115.859 159.869Z" stroke="white" stroke-opacity="0.7"/>
<path d="M125.266 160.174C128.793 160.272 130.58 160.313 134.2 160.382C134.269 164.007 134.321 165.8 134.447 169.345C130.88 169.212 129.11 169.131 125.635 168.947C125.444 165.477 125.369 163.725 125.266 160.174Z" stroke="white" stroke-opacity="0.7"/>
<path d="M134.77 160.393C138.471 160.463 140.344 160.491 144.131 160.526C144.165 164.198 144.188 166.019 144.258 169.61C140.517 169.546 138.667 169.495 135.035 169.362C134.891 165.817 134.839 164.019 134.77 160.393Z" stroke="white" stroke-opacity="0.7"/>
<path d="M144.713 160.532C148.425 160.532 150.298 160.572 154.073 160.572C154.073 164.261 154.073 166.088 154.073 169.702C150.344 169.702 148.488 169.702 144.851 169.621C144.765 166.025 144.765 164.203 144.713 160.532Z" stroke="white" stroke-opacity="0.7"/>
<path d="M83.2357 165.229C86.0715 165.696 87.5355 165.921 90.5385 166.342C91.0053 169.189 91.2878 170.596 91.9506 173.357C89.0283 172.74 87.6047 172.417 84.8438 171.743C84.1914 169.602 83.6546 167.428 83.2357 165.229V165.229Z" stroke="white" stroke-opacity="0.7"/>
<path d="M90.9996 166.405C93.9507 166.814 95.4608 166.982 98.5502 167.373C98.9537 170.411 99.1958 171.91 99.7664 174.866C96.7519 174.336 95.2764 174.054 92.406 173.46C91.7373 170.676 91.4664 169.264 90.9996 166.405Z" stroke="white" stroke-opacity="0.7"/>
<path d="M99.0402 167.431C102.205 167.8 103.818 167.967 107.11 168.29C107.444 171.495 107.646 173.074 108.118 176.192C104.896 175.725 103.317 175.478 100.233 174.941C99.6799 171.985 99.4379 170.48 99.0402 167.431Z" stroke="white" stroke-opacity="0.7"/>
<path d="M107.628 168.336C110.868 168.647 112.516 168.786 115.871 169.045C116.142 172.388 116.303 174.037 116.683 177.293C113.404 176.919 111.79 176.717 108.614 176.261C108.159 173.137 107.957 171.552 107.628 168.336Z" stroke="white" stroke-opacity="0.7"/>
<path d="M116.401 169.085C119.859 169.339 121.588 169.454 125.127 169.662C125.323 173.12 125.45 174.849 125.704 178.192C122.245 177.898 120.516 177.731 117.173 177.357C116.827 174.088 116.666 172.446 116.401 169.085Z" stroke="white" stroke-opacity="0.7"/>
<path d="M125.675 169.691C129.133 169.881 130.909 169.967 134.476 170.1C134.615 173.639 134.695 175.385 134.886 178.832C131.393 178.636 129.669 178.515 126.24 178.256C125.992 174.861 125.871 173.149 125.675 169.691Z" stroke="white" stroke-opacity="0.7"/>
<path d="M135.041 170.14C138.69 170.273 140.54 170.325 144.263 170.4C144.332 173.985 144.373 175.76 144.465 179.253C140.811 179.155 139.001 179.074 135.433 178.878C135.254 175.414 135.174 173.662 135.041 170.14Z" stroke="white" stroke-opacity="0.7"/>
<path d="M144.846 170.388C148.506 170.457 150.356 170.474 154.068 170.474C154.068 174.082 154.068 175.863 154.068 179.374C150.413 179.374 148.604 179.374 145.018 179.253C144.949 175.754 144.909 173.979 144.846 170.388Z" stroke="white" stroke-opacity="0.7"/>
<path d="M85.0051 172.284C87.7603 172.982 89.1782 173.316 92.0947 173.944C92.7748 176.694 93.1668 178.048 94.0313 180.694C91.2186 179.875 89.8525 179.443 87.2012 178.532C86.3602 176.49 85.6272 174.404 85.0051 172.284V172.284Z" stroke="white" stroke-opacity="0.7"/>
<path d="M92.55 174.042C95.4319 174.653 96.8844 174.942 99.8874 175.489C100.464 178.429 100.81 179.875 101.553 182.711C98.6712 182.002 97.2302 181.622 94.4693 180.821C93.6048 178.164 93.2244 176.803 92.55 174.042Z" stroke="white" stroke-opacity="0.7"/>
<path d="M100.383 175.57C103.461 176.146 105.035 176.382 108.251 176.855C108.735 179.962 109.017 181.466 109.634 184.498C106.527 183.875 105.023 183.541 102.026 182.821C101.271 179.973 100.96 178.521 100.383 175.57Z" stroke="white" stroke-opacity="0.7"/>
<path d="M108.729 176.93C111.888 177.391 113.496 177.604 116.799 177.985C117.185 181.23 117.41 182.832 117.905 185.973C114.735 185.472 113.179 185.195 110.13 184.596C109.484 181.581 109.213 180.048 108.729 176.93Z" stroke="white" stroke-opacity="0.7"/>
<path d="M117.283 178.048C120.632 178.434 122.338 178.625 125.796 178.907C126.084 182.262 126.251 183.916 126.626 187.172C123.271 186.78 121.623 186.556 118.378 186.048C117.888 182.901 117.675 181.299 117.283 178.048Z" stroke="white" stroke-opacity="0.7"/>
<path d="M126.32 178.953C129.71 179.241 131.433 179.368 134.914 179.57C135.11 183.028 135.226 184.699 135.491 188.037C132.107 187.772 130.442 187.61 127.15 187.23C126.782 183.973 126.614 182.313 126.32 178.953Z" stroke="white" stroke-opacity="0.7"/>
<path d="M135.479 179.599C139.041 179.8 140.845 179.881 144.494 179.985C144.592 183.472 144.65 185.172 144.771 188.579C141.232 188.44 139.479 188.342 136.021 188.077C135.779 184.74 135.67 183.04 135.479 179.599Z" stroke="white" stroke-opacity="0.7"/>
<path d="M145.059 180.002C148.632 180.1 150.442 180.123 154.085 180.129C154.085 183.633 154.085 185.363 154.085 188.775C150.54 188.775 148.788 188.74 145.312 188.613C145.203 185.213 145.151 183.489 145.059 180.002Z" stroke="white" stroke-opacity="0.7"/>
<path d="M87.4144 179.057C90.0543 179.985 91.4491 180.423 94.2215 181.264C95.1034 183.898 95.5876 185.195 96.6481 187.72C93.9795 186.688 92.6826 186.146 90.1753 185.005C89.1496 183.073 88.228 181.087 87.4144 179.057V179.057Z" stroke="white" stroke-opacity="0.7"/>
<path d="M94.6538 181.391C97.4032 182.204 98.8211 182.59 101.715 183.316C102.47 186.146 102.867 187.53 103.795 190.233C101.034 189.34 99.6857 188.867 97.0631 187.864C96.0083 185.339 95.5299 184.043 94.6538 181.391Z" stroke="white" stroke-opacity="0.7"/>
<path d="M102.17 183.432C105.133 184.164 106.654 184.504 109.749 185.161C110.383 188.158 110.729 189.628 111.479 192.51C108.516 191.732 107.063 191.311 104.228 190.406C103.334 187.662 102.919 186.279 102.17 183.432Z" stroke="white" stroke-opacity="0.7"/>
<path d="M110.228 185.236C113.271 185.852 114.839 186.135 117.986 186.642C118.493 189.778 118.77 191.316 119.375 194.331C116.349 193.703 114.856 193.357 111.945 192.602C111.196 189.737 110.856 188.239 110.228 185.236Z" stroke="white" stroke-opacity="0.7"/>
<path d="M118.482 186.723C121.715 187.236 123.364 187.466 126.707 187.875C127.087 191.12 127.283 192.717 127.75 195.847C124.539 195.351 122.96 195.069 119.853 194.435C119.26 191.409 118.983 189.864 118.482 186.723Z" stroke="white" stroke-opacity="0.7"/>
<path d="M127.225 187.927C130.505 188.314 132.165 188.504 135.537 188.752C135.79 192.077 135.935 193.709 136.24 196.919C132.995 196.59 131.398 196.389 128.246 195.916C127.802 192.781 127.594 191.178 127.225 187.927Z" stroke="white" stroke-opacity="0.7"/>
<path d="M136.073 188.792C139.531 189.057 141.26 189.161 144.799 189.305C144.926 192.682 144.995 194.342 145.151 197.605C141.75 197.432 140.067 197.305 136.753 196.971C136.453 193.772 136.321 192.123 136.073 188.792Z" stroke="white" stroke-opacity="0.7"/>
<path d="M145.341 189.328C148.8 189.455 150.529 189.489 154.085 189.495C154.085 192.884 154.085 194.556 154.085 197.835C150.684 197.835 148.996 197.789 145.664 197.628C145.531 194.348 145.468 192.706 145.341 189.328Z" stroke="white" stroke-opacity="0.7"/>
<path d="M90.429 185.501C92.9247 186.654 94.2158 187.23 96.873 188.256C97.945 190.769 98.5272 191.997 99.7549 194.383C97.2534 193.149 96.043 192.492 93.7028 191.126C92.5147 189.309 91.422 187.432 90.429 185.501V185.501Z" stroke="white" stroke-opacity="0.7"/>
<path d="M97.288 188.417C99.899 189.438 101.242 189.916 103.991 190.821C104.914 193.524 105.409 194.856 106.476 197.421C103.876 196.348 102.608 195.778 100.135 194.579C98.9249 192.175 98.3485 190.942 97.288 188.417Z" stroke="white" stroke-opacity="0.7"/>
<path d="M104.418 190.965C107.236 191.881 108.683 192.308 111.64 193.098C112.406 195.98 112.793 197.374 113.703 200.118C110.908 199.178 109.536 198.677 106.873 197.588C105.836 195.005 105.34 193.68 104.418 190.965Z" stroke="white" stroke-opacity="0.7"/>
<path d="M112.107 193.196C114.989 193.962 116.487 194.314 119.508 194.925C120.124 197.934 120.453 199.409 121.168 202.285C118.286 201.53 116.897 201.133 114.147 200.21C113.271 197.507 112.862 196.078 112.107 193.196Z" stroke="white" stroke-opacity="0.7"/>
<path d="M119.98 195.075C123.07 195.72 124.643 196.008 127.842 196.504C128.303 199.628 128.551 201.155 129.081 204.147C126.038 203.571 124.545 203.219 121.588 202.458C120.92 199.57 120.591 198.089 119.98 195.075Z" stroke="white" stroke-opacity="0.7"/>
<path d="M128.344 196.585C131.479 197.063 133.076 197.271 136.304 197.605C136.615 200.81 136.782 202.377 137.139 205.45C134.061 205.052 132.528 204.81 129.56 204.239C129.035 201.265 128.793 199.709 128.344 196.585Z" stroke="white" stroke-opacity="0.7"/>
<path d="M136.817 197.662C140.119 197.997 141.796 198.124 145.18 198.302C145.336 201.553 145.422 203.15 145.601 206.274C142.367 206.06 140.771 205.911 137.623 205.513C137.272 202.418 137.116 200.861 136.817 197.662Z" stroke="white" stroke-opacity="0.7"/>
<path d="M145.704 198.325C149.03 198.493 150.707 198.533 154.097 198.539C154.097 201.807 154.097 203.409 154.097 206.55C150.863 206.55 149.261 206.493 146.091 206.303C145.918 203.179 145.854 201.582 145.704 198.325Z" stroke="white" stroke-opacity="0.7"/>
<path d="M94.0428 191.593C96.3484 192.977 97.5703 193.639 100.055 194.896C101.305 197.271 101.974 198.423 103.38 200.66C101.075 199.213 99.9623 198.452 97.8182 196.85C96.4675 195.166 95.2073 193.411 94.0428 191.593Z" stroke="white" stroke-opacity="0.7"/>
<path d="M100.418 195.086C102.862 196.308 104.118 196.884 106.706 197.968C107.778 200.527 108.355 201.778 109.588 204.204C107.179 202.954 106.009 202.285 103.743 200.879C102.32 198.637 101.657 197.472 100.418 195.086Z" stroke="white" stroke-opacity="0.7"/>
<path d="M107.115 198.141C109.761 199.242 111.121 199.755 113.905 200.7C114.799 203.432 115.277 204.764 116.28 207.357C113.68 206.262 112.407 205.669 109.94 204.406C108.746 201.968 108.176 200.717 107.115 198.141Z" stroke="white" stroke-opacity="0.7"/>
<path d="M114.337 200.85C117.069 201.766 118.47 202.187 121.317 202.954C122.038 205.836 122.418 207.225 123.225 209.951C120.551 209.069 119.242 208.585 116.683 207.525C115.692 204.925 115.219 203.571 114.337 200.85Z" stroke="white" stroke-opacity="0.7"/>
<path d="M121.767 203.075C124.689 203.841 126.176 204.187 129.202 204.804C129.738 207.784 130.027 209.242 130.632 212.084C127.784 211.392 126.384 210.994 123.646 210.107C122.862 207.351 122.476 205.951 121.767 203.075Z" stroke="white" stroke-opacity="0.7"/>
<path d="M129.669 204.879C132.643 205.455 134.154 205.703 137.214 206.106C137.577 209.167 137.791 210.666 138.171 213.6C135.289 213.133 133.865 212.85 131.07 212.182C130.476 209.334 130.2 207.864 129.669 204.879Z" stroke="white" stroke-opacity="0.7"/>
<path d="M137.698 206.17C140.828 206.573 142.419 206.746 145.635 206.937C145.82 210.049 145.912 211.576 146.114 214.545C143.082 214.303 141.583 214.124 138.621 213.663C138.234 210.735 138.05 209.236 137.698 206.17Z" stroke="white" stroke-opacity="0.7"/>
<path d="M146.137 206.971C149.289 207.167 150.886 207.219 154.108 207.219C154.108 210.349 154.108 211.882 154.108 214.874C151.065 214.874 149.555 214.81 146.58 214.585C146.396 211.64 146.304 210.084 146.137 206.971Z" stroke="white" stroke-opacity="0.7"/>
<path d="M98.1352 197.288C100.262 198.902 101.369 199.674 103.657 201.138C105.081 203.363 105.824 204.435 107.392 206.51C105.644 205.146 103.968 203.692 102.372 202.153C100.879 200.603 99.4649 198.98 98.1352 197.288V197.288Z" stroke="white" stroke-opacity="0.7"/>
<path d="M104.014 201.363C106.262 202.787 107.427 203.461 109.819 204.723C111.04 207.138 111.68 208.308 113.023 210.568C111.19 209.392 109.418 208.122 107.715 206.764C106.147 204.677 105.421 203.599 104.014 201.363Z" stroke="white" stroke-opacity="0.7"/>
<path d="M110.182 204.925C112.631 206.205 113.894 206.804 116.482 207.911C117.496 210.487 118.032 211.744 119.145 214.17C117.156 213.147 115.222 212.02 113.352 210.793C112.038 208.522 111.404 207.346 110.182 204.925Z" stroke="white" stroke-opacity="0.7"/>
<path d="M116.897 208.078C119.438 209.15 120.741 209.64 123.398 210.533C124.211 213.248 124.643 214.568 125.537 217.139C123.487 216.318 121.483 215.391 119.531 214.36C118.43 211.922 117.899 210.666 116.897 208.078Z" stroke="white" stroke-opacity="0.7"/>
<path d="M123.819 210.672C126.54 211.571 127.929 211.974 130.736 212.672C131.347 215.502 131.669 216.879 132.338 219.559C130.154 218.922 128.007 218.166 125.905 217.294C125.041 214.724 124.62 213.398 123.819 210.672Z" stroke="white" stroke-opacity="0.7"/>
<path d="M131.197 212.793C133.975 213.467 135.387 213.755 138.257 214.222C138.667 217.133 138.886 218.551 139.335 221.312C137.12 220.895 134.928 220.36 132.77 219.709C132.113 216.995 131.796 215.617 131.197 212.793Z" stroke="white" stroke-opacity="0.7"/>
<path d="M138.713 214.286C141.647 214.752 143.139 214.937 146.16 215.179C146.361 218.142 146.471 219.588 146.696 222.395C144.373 222.187 142.064 221.848 139.779 221.381C139.318 218.62 139.111 217.202 138.713 214.286Z" stroke="white" stroke-opacity="0.7"/>
<path d="M146.627 215.219C149.589 215.444 151.088 215.507 154.12 215.513C154.12 218.487 154.12 219.94 154.12 222.77C151.785 222.787 149.451 222.675 147.128 222.436C146.921 219.629 146.817 218.182 146.627 215.219Z" stroke="white" stroke-opacity="0.7"/>
<path d="M154.477 150.457H164.08C164.08 154.203 164.08 156.059 164.039 159.742C160.247 159.742 158.333 159.782 154.477 159.782V150.457Z" stroke="white" stroke-opacity="0.7"/>
<path d="M164.667 150.457H173.89C173.89 154.157 173.89 155.99 173.809 159.627C170.183 159.684 168.345 159.708 164.644 159.742C164.656 156.059 164.667 154.197 164.667 150.457Z" stroke="white" stroke-opacity="0.7"/>
<path d="M174.449 150.451H183.613C183.613 154.065 183.613 155.863 183.492 159.414C179.89 159.506 178.063 159.546 174.362 159.61C174.426 155.978 174.443 154.145 174.449 150.451Z" stroke="white" stroke-opacity="0.7"/>
<path d="M184.172 150.451H192.882C192.882 153.955 192.847 155.696 192.72 159.137C189.302 159.258 187.567 159.31 184.046 159.402C184.144 155.852 184.167 154.059 184.172 150.451Z" stroke="white" stroke-opacity="0.7"/>
<path d="M193.423 150.439H202.017C202.017 153.811 201.971 155.483 201.81 158.785C198.449 158.929 196.737 158.999 193.256 159.12C193.389 155.679 193.417 153.944 193.423 150.439Z" stroke="white" stroke-opacity="0.7"/>
<path d="M202.536 150.433H210.605C210.605 153.638 210.554 155.229 210.363 158.37C207.211 158.537 205.597 158.618 202.294 158.762C202.49 155.46 202.53 153.794 202.536 150.433Z" stroke="white" stroke-opacity="0.7"/>
<path d="M211.118 150.428H218.998C218.998 153.442 218.934 154.935 218.715 157.886C215.649 158.082 214.104 158.174 210.87 158.347C211.049 155.206 211.113 153.621 211.118 150.428Z" stroke="white" stroke-opacity="0.7"/>
<path d="M219.476 150.416H226.79C226.81 152.726 226.703 155.035 226.468 157.333C223.632 157.546 222.173 157.65 219.188 157.84C219.407 154.906 219.47 153.425 219.476 150.416Z" stroke="white" stroke-opacity="0.7"/>
<path d="M154.477 160.572C158.333 160.572 160.241 160.572 164.033 160.526C163.999 164.203 163.976 166.025 163.912 169.621C160.172 169.685 158.281 169.702 154.471 169.702C154.471 166.105 154.471 164.261 154.477 160.572Z" stroke="white" stroke-opacity="0.7"/>
<path d="M164.616 160.52C168.322 160.486 170.155 160.463 173.78 160.393C173.711 164.019 173.659 165.817 173.538 169.362C169.959 169.489 168.149 169.541 164.489 169.61C164.558 166.013 164.581 164.198 164.616 160.52Z" stroke="white" stroke-opacity="0.7"/>
<path d="M174.351 160.382C178.045 160.313 179.873 160.272 183.469 160.169C183.365 163.713 183.29 165.471 183.1 168.935C179.55 169.131 177.746 169.212 174.103 169.345C174.23 165.8 174.282 164.007 174.351 160.382Z" stroke="white" stroke-opacity="0.7"/>
<path d="M184.028 160.157C187.544 160.053 189.279 159.996 192.674 159.869C192.536 163.327 192.438 165.004 192.184 168.365C188.818 168.607 187.106 168.716 183.636 168.907C183.844 165.448 183.919 163.696 184.028 160.157Z" stroke="white" stroke-opacity="0.7"/>
<path d="M193.227 159.852C196.686 159.719 198.415 159.644 201.775 159.483C201.602 162.78 201.481 164.411 201.164 167.633C197.85 167.938 196.167 168.077 192.732 168.325C192.991 164.953 193.089 163.281 193.227 159.852Z" stroke="white" stroke-opacity="0.7"/>
<path d="M202.294 159.46C205.574 159.304 207.182 159.218 210.329 159.033C210.127 162.169 209.977 163.719 209.597 166.774C206.49 167.12 204.905 167.287 201.671 167.587C201.994 164.376 202.121 162.751 202.294 159.46Z" stroke="white" stroke-opacity="0.7"/>
<path d="M210.83 159.004C214.035 158.82 215.603 158.716 218.663 158.509C218.421 161.448 218.248 162.907 217.804 165.771C214.79 166.175 213.245 166.348 210.087 166.722C210.473 163.673 210.623 162.128 210.83 159.004Z" stroke="white" stroke-opacity="0.7"/>
<path d="M219.119 158.474C222.104 158.267 223.563 158.157 226.393 157.927C226.203 160.188 225.891 162.437 225.459 164.664C222.669 165.103 221.234 165.31 218.294 165.708C218.721 162.855 218.894 161.408 219.119 158.474Z" stroke="white" stroke-opacity="0.7"/>
<path d="M154.471 170.474C158.275 170.474 160.166 170.474 163.901 170.388C163.832 173.979 163.797 175.748 163.705 179.247C160.045 179.351 158.195 179.374 154.483 179.374C154.471 175.863 154.471 174.082 154.471 170.474Z" stroke="white" stroke-opacity="0.7"/>
<path d="M164.477 170.376C168.126 170.307 169.936 170.255 173.509 170.123C173.377 173.662 173.296 175.414 173.112 178.861C169.613 179.057 167.843 179.132 164.27 179.23C164.362 175.737 164.408 173.962 164.477 170.376Z" stroke="white" stroke-opacity="0.7"/>
<path d="M174.074 170.1C177.717 169.961 179.515 169.875 183.06 169.679C182.864 173.137 182.743 174.866 182.484 178.215C179.025 178.509 177.256 178.63 173.688 178.832C173.855 175.385 173.936 173.639 174.074 170.1Z" stroke="white" stroke-opacity="0.7"/>
<path d="M183.607 169.65C187.066 169.448 188.795 169.333 192.149 169.074C191.884 172.423 191.723 174.077 191.348 177.339C188.063 177.708 186.391 177.869 182.996 178.158C183.285 174.809 183.383 173.103 183.607 169.65Z" stroke="white" stroke-opacity="0.7"/>
<path d="M192.68 169.045C196.104 168.78 197.787 168.636 201.095 168.319C200.761 171.529 200.559 173.12 200.086 176.238C196.864 176.7 195.216 176.907 191.867 177.293C192.247 174.037 192.409 172.388 192.68 169.045Z" stroke="white" stroke-opacity="0.7"/>
<path d="M201.602 168.273C204.83 167.956 206.415 167.789 209.51 167.431C209.113 170.48 208.871 171.985 208.306 174.924C205.285 175.449 203.741 175.697 200.588 176.152C201.066 173.057 201.251 171.472 201.602 168.273Z" stroke="white" stroke-opacity="0.7"/>
<path d="M210 167.374C213.153 166.999 214.698 166.797 217.707 166.382C217.24 169.264 216.957 170.647 216.3 173.42C213.366 174.025 211.862 174.313 208.807 174.855C209.355 171.91 209.597 170.411 210 167.374Z" stroke="white" stroke-opacity="0.7"/>
<path d="M218.168 166.319C221.107 165.904 222.537 165.685 225.315 165.229C224.896 167.428 224.359 169.602 223.707 171.743C221.003 172.406 219.609 172.723 216.75 173.322C217.418 170.567 217.701 169.166 218.168 166.319Z" stroke="white" stroke-opacity="0.7"/>
<path d="M154.465 180.129C158.189 180.129 160.033 180.1 163.688 179.996C163.595 183.455 163.538 185.184 163.422 188.596C159.878 188.729 158.085 188.763 154.465 188.763C154.465 185.362 154.465 183.633 154.465 180.129Z" stroke="white" stroke-opacity="0.7"/>
<path d="M164.247 179.979C167.814 179.875 169.584 179.794 173.071 179.599C172.881 183.057 172.771 184.74 172.529 188.077C169.146 188.337 167.428 188.435 163.964 188.573C164.091 185.189 164.149 183.466 164.247 179.979Z" stroke="white" stroke-opacity="0.7"/>
<path d="M173.624 179.57C177.181 179.362 178.939 179.235 182.403 178.936C182.115 182.296 181.947 183.956 181.579 187.213C178.224 187.599 176.518 187.789 173.065 188.037C173.313 184.7 173.428 183.005 173.624 179.57Z" stroke="white" stroke-opacity="0.7"/>
<path d="M182.933 178.89C186.316 178.596 187.988 178.423 191.268 178.048C190.881 181.299 190.662 182.901 190.172 186.048C186.997 186.544 185.377 186.763 182.103 187.149C182.472 183.899 182.639 182.244 182.933 178.89Z" stroke="white" stroke-opacity="0.7"/>
<path d="M191.781 177.985C195.124 177.593 196.766 177.379 199.988 176.907C199.504 180.019 199.228 181.553 198.617 184.561C195.498 185.178 193.908 185.46 190.674 185.973C191.17 182.821 191.395 181.23 191.781 177.985Z" stroke="white" stroke-opacity="0.7"/>
<path d="M200.484 176.832C203.631 176.365 205.17 176.111 208.185 175.57C207.608 178.521 207.28 179.973 206.542 182.821C203.625 183.524 202.138 183.858 199.095 184.463C199.717 181.466 199.994 179.939 200.484 176.832Z" stroke="white" stroke-opacity="0.7"/>
<path d="M208.663 175.489C211.729 174.913 213.234 174.636 216.156 174.008C215.476 176.769 215.09 178.123 214.231 180.78C211.412 181.599 209.966 181.985 206.997 182.711C207.741 179.875 208.075 178.429 208.663 175.489Z" stroke="white" stroke-opacity="0.7"/>
<path d="M216.606 173.91C219.459 173.293 220.848 172.97 223.522 172.284C222.9 174.404 222.167 176.49 221.326 178.532C218.727 179.42 217.389 179.846 214.64 180.653C215.534 178.008 215.925 176.659 216.606 173.91Z" stroke="white" stroke-opacity="0.7"/>
<path d="M154.46 189.495C158.068 189.495 159.855 189.455 163.388 189.316C163.267 192.694 163.198 194.36 163.054 197.622C159.647 197.789 157.929 197.835 154.454 197.835C154.46 194.556 154.46 192.884 154.46 189.495Z" stroke="white" stroke-opacity="0.7"/>
<path d="M163.935 189.299C167.394 189.155 169.123 189.051 172.477 188.792C172.23 192.123 172.097 193.76 171.797 196.971C168.552 197.294 166.904 197.42 163.578 197.593C163.734 194.348 163.786 192.671 163.935 189.299Z" stroke="white" stroke-opacity="0.7"/>
<path d="M173.008 188.752C176.466 188.475 178.149 188.302 181.498 187.91C181.123 191.155 180.922 192.757 180.466 195.887C177.25 196.377 175.619 196.585 172.305 196.919C172.616 193.708 172.76 192.077 173.008 188.752Z" stroke="white" stroke-opacity="0.7"/>
<path d="M182.017 187.847C185.29 187.455 186.899 187.224 190.086 186.694C189.585 189.835 189.308 191.38 188.714 194.4C185.677 195.023 184.103 195.299 180.985 195.784C181.429 192.683 181.653 191.092 182.017 187.847Z" stroke="white" stroke-opacity="0.7"/>
<path d="M190.564 186.642C193.792 186.124 195.377 185.835 198.484 185.201C197.856 188.204 197.51 189.68 196.755 192.562C193.781 193.34 192.265 193.715 189.17 194.331C189.781 191.317 190.057 189.778 190.564 186.642Z" stroke="white" stroke-opacity="0.7"/>
<path d="M198.945 185.126C201.977 184.504 203.464 184.164 206.363 183.449C205.614 186.285 205.21 187.68 204.3 190.4C201.527 191.282 200.104 191.697 197.199 192.464C197.977 189.57 198.328 188.1 198.945 185.126Z" stroke="white" stroke-opacity="0.7"/>
<path d="M206.836 183.316C209.793 182.579 211.239 182.164 214.046 181.345C213.164 183.996 212.68 185.293 211.631 187.824C208.951 188.85 207.597 189.334 204.755 190.244C205.66 187.53 206.081 186.146 206.836 183.316Z" stroke="white" stroke-opacity="0.7"/>
<path d="M214.507 181.218C217.245 180.394 218.577 179.962 221.165 179.057C220.351 181.087 219.43 183.073 218.404 185.005C215.948 186.123 214.68 186.654 212.064 187.662C213.101 185.126 213.591 183.852 214.507 181.218Z" stroke="white" stroke-opacity="0.7"/>
<path d="M154.454 198.539C157.912 198.539 159.641 198.487 163.019 198.32C162.875 201.57 162.794 203.167 162.621 206.291C159.388 206.493 157.751 206.545 154.448 206.55C154.448 203.409 154.454 201.807 154.454 198.539Z" stroke="white" stroke-opacity="0.7"/>
<path d="M163.544 198.291C166.858 198.118 168.5 197.985 171.734 197.662C171.434 200.861 171.273 202.435 170.927 205.513C167.843 205.899 166.281 206.055 163.123 206.262C163.301 203.138 163.388 201.542 163.544 198.291Z" stroke="white" stroke-opacity="0.7"/>
<path d="M172.247 197.605C175.544 197.265 177.175 197.029 180.374 196.556C179.919 199.68 179.677 201.213 179.152 204.21C176.103 204.787 174.541 205.046 171.411 205.45C171.769 202.377 171.936 200.81 172.247 197.605Z" stroke="white" stroke-opacity="0.7"/>
<path d="M180.87 196.481C183.999 195.985 185.538 195.709 188.564 195.075C187.959 198.089 187.631 199.57 186.933 202.458C184.051 203.202 182.599 203.536 179.619 204.118C180.155 201.127 180.409 199.599 180.87 196.481Z" stroke="white" stroke-opacity="0.7"/>
<path d="M189.043 194.977C192.126 194.325 193.654 193.968 196.599 193.178C195.838 196.06 195.446 197.467 194.547 200.21C191.746 201.138 190.311 201.565 187.383 202.337C188.097 199.461 188.426 197.985 189.043 194.977Z" stroke="white" stroke-opacity="0.7"/>
<path d="M197.055 193.057C199.936 192.285 201.36 191.864 204.121 190.965C203.21 193.68 202.715 195 201.666 197.588C199.055 198.654 197.717 199.15 194.98 200.066C195.867 197.328 196.288 195.922 197.055 193.057Z" stroke="white" stroke-opacity="0.7"/>
<path d="M204.559 190.821C207.366 189.899 208.738 189.409 211.401 188.365C210.334 190.884 209.758 192.118 208.519 194.51C206.012 195.743 204.72 196.331 202.063 197.42C203.135 194.844 203.637 193.524 204.559 190.821Z" stroke="white" stroke-opacity="0.7"/>
<path d="M211.816 188.204C214.41 187.178 215.678 186.636 218.122 185.501C217.125 187.432 216.028 189.31 214.836 191.126C212.531 192.464 211.378 193.103 208.917 194.32C210.156 191.939 210.738 190.711 211.816 188.204Z" stroke="white" stroke-opacity="0.7"/>
<path d="M154.442 207.219C157.734 207.219 159.365 207.161 162.581 206.96C162.408 210.072 162.316 211.6 162.126 214.574C159.082 214.804 157.514 214.868 154.437 214.873C154.442 211.882 154.442 210.349 154.442 207.219Z" stroke="white" stroke-opacity="0.7"/>
<path d="M163.082 206.925C166.229 206.717 167.786 206.562 170.852 206.17C170.5 209.236 170.316 210.735 169.924 213.663C167.042 214.113 165.561 214.291 162.592 214.533C162.8 211.565 162.898 210.037 163.082 206.925Z" stroke="white" stroke-opacity="0.7"/>
<path d="M171.336 206.107C174.466 205.697 176.005 205.444 179.037 204.85C178.506 207.836 178.224 209.294 177.63 212.136C174.748 212.822 173.325 213.115 170.379 213.588C170.783 210.666 170.973 209.167 171.336 206.107Z" stroke="white" stroke-opacity="0.7"/>
<path d="M179.504 204.758C182.466 204.181 183.924 203.824 186.783 203.075C186.074 205.957 185.7 207.351 184.904 210.089C182.224 210.96 180.87 211.352 178.068 212.032C178.674 209.19 178.962 207.732 179.504 204.758Z" stroke="white" stroke-opacity="0.7"/>
<path d="M187.233 202.954C190.144 202.17 191.573 201.738 194.357 200.798C193.469 203.536 192.997 204.873 192 207.467C189.394 208.55 188.057 209.052 185.325 209.951C186.132 207.225 186.512 205.818 187.233 202.954Z" stroke="white" stroke-opacity="0.7"/>
<path d="M194.789 200.654C197.51 199.72 198.824 199.219 201.435 198.141C200.375 200.717 199.804 201.968 198.611 204.406C196.196 205.646 194.951 206.228 192.403 207.288C193.412 204.723 193.89 203.38 194.789 200.654Z" stroke="white" stroke-opacity="0.7"/>
<path d="M201.827 197.974C204.467 196.861 205.752 196.245 208.248 195.023C207.003 197.409 206.34 198.567 204.939 200.786C202.634 202.227 201.435 202.908 198.974 204.187C200.196 201.784 200.772 200.533 201.827 197.974Z" stroke="white" stroke-opacity="0.7"/>
<path d="M208.646 194.827C211.078 193.599 212.26 192.948 214.531 191.593C213.366 193.411 212.106 195.166 210.755 196.85C208.657 198.418 207.568 199.155 205.314 200.585C206.726 198.383 207.395 197.23 208.646 194.827Z" stroke="white" stroke-opacity="0.7"/>
<path d="M154.437 215.513C157.526 215.513 159.048 215.444 162.079 215.208C161.883 218.17 161.78 219.611 161.566 222.424C159.194 222.67 156.81 222.786 154.425 222.77C154.431 219.94 154.431 218.487 154.437 215.513Z" stroke="white" stroke-opacity="0.7"/>
<path d="M162.546 215.167C165.503 214.925 166.961 214.747 169.838 214.286C169.44 217.202 169.232 218.62 168.794 221.381C166.549 221.838 164.281 222.171 161.999 222.378C162.229 219.571 162.339 218.13 162.546 215.167Z" stroke="white" stroke-opacity="0.7"/>
<path d="M170.293 214.21C173.221 213.732 174.668 213.438 177.498 212.746C176.921 215.577 176.581 216.96 175.918 219.663C173.715 220.336 171.478 220.89 169.215 221.323C169.665 218.556 169.884 217.121 170.293 214.21Z" stroke="white" stroke-opacity="0.7"/>
<path d="M177.936 212.637C180.708 211.945 182.069 211.554 184.731 210.672C183.93 213.398 183.51 214.706 182.622 217.294C180.565 218.147 178.464 218.89 176.328 219.519C177.002 216.827 177.325 215.461 177.936 212.637Z" stroke="white" stroke-opacity="0.7"/>
<path d="M185.152 210.533C187.867 209.622 189.187 209.121 191.786 208.02C190.778 210.608 190.247 211.865 189.141 214.297C187.151 215.353 185.106 216.302 183.014 217.139C183.907 214.574 184.34 213.248 185.152 210.533Z" stroke="white" stroke-opacity="0.7"/>
<path d="M192.19 207.853C194.714 206.764 195.954 206.176 198.351 204.925C197.147 207.346 196.513 208.522 195.181 210.793C193.35 211.994 191.457 213.099 189.51 214.101C190.634 211.68 191.17 210.43 192.19 207.853Z" stroke="white" stroke-opacity="0.7"/>
<path d="M198.732 204.723C201.176 203.432 202.363 202.746 204.657 201.265C203.245 203.496 202.501 204.573 200.945 206.654C199.21 208.046 197.401 209.345 195.527 210.545C196.87 208.308 197.51 207.138 198.732 204.723Z" stroke="white" stroke-opacity="0.7"/>
<path d="M205.009 201.063C207.245 199.628 208.329 198.867 210.415 197.288C209.086 198.98 207.672 200.603 206.179 202.153C204.612 203.67 202.967 205.105 201.251 206.452C202.836 204.354 203.585 203.282 205.009 201.063Z" stroke="white" stroke-opacity="0.7"/>
<circle cx="154" cy="150" r="73" stroke="white" stroke-opacity="0.7" stroke-width="2"/>
<defs>
<filter id="filter0_d" x="0.981934" y="0.967407" width="306.171" height="306.414" filterUnits="userSpaceOnUse" color-interpolation-filters="sRGB">
<feFlood flood-opacity="0" result="BackgroundImageFix"/>
<feColorMatrix in="SourceAlpha" type="matrix" values="0 0 0 0 0 0 0 0 0 0 0 0 0 0 0 0 0 0 127 0"/>
<feOffset dy="4"/>
<feGaussianBlur stdDeviation="40"/>
<feColorMatrix type="matrix" values="0 0 0 0 0 0 0 0 0 0 0 0 0 0 0 0 0 0 0.5 0"/>
<feBlend mode="normal" in2="BackgroundImageFix" result="effect1_dropShadow"/>
<feBlend mode="normal" in="SourceGraphic" in2="effect1_dropShadow" result="shape"/>
</filter>
</defs>
</svg>
