<svg xmlns="http://www.w3.org/2000/svg" xmlns:xlink="http://www.w3.org/1999/xlink" width="102" height="102" viewBox="0 0 102 102"><defs><style>.a{opacity:0.75;fill:url(#a);}.b{fill:#75d5a2;}.c{fill:#fafafa;}.d{filter:url(#d);}.e{filter:url(#b);}</style><radialGradient id="a" cx="0.5" cy="0.5" r="0.5" gradientUnits="objectBoundingBox"><stop offset="0" stop-color="#75d5a2"/><stop offset="0.561" stop-color="#75d5a2"/><stop offset="1" stop-color="#75d5a2" stop-opacity="0.522"/></radialGradient><filter id="b" x="0" y="0" width="102" height="102" filterUnits="userSpaceOnUse"><feOffset dy="3" input="SourceAlpha"/><feGaussianBlur stdDeviation="3" result="c"/><feFlood flood-color="#464646" flood-opacity="0.431"/><feComposite operator="in" in2="c"/><feComposite in="SourceGraphic"/></filter><filter id="d" x="24.701" y="24.301" width="53.278" height="54.314" filterUnits="userSpaceOnUse"><feOffset dy="3" input="SourceAlpha"/><feGaussianBlur stdDeviation="3" result="e"/><feFlood flood-opacity="0.161"/><feComposite operator="in" in2="e"/><feComposite in="SourceGraphic"/></filter></defs><g transform="translate(-340 -527)"><circle class="a" cx="47" cy="47" r="47" transform="translate(344 528)"/><circle class="b" cx="44" cy="44" r="44" transform="translate(347 531)"/><g class="e" transform="matrix(1, 0, 0, 1, 340, 527)"><circle class="b" cx="42" cy="42" r="42" transform="translate(9 6)"/></g><g class="d" transform="matrix(1, 0, 0, 1, 340, 527)"><path class="c" d="M44.467,84.785A7.367,7.367,0,1,1,37.1,77.416,7.367,7.367,0,0,1,44.467,84.785ZM16.556,70.573A7.368,7.368,0,1,0,9.189,63.2,7.368,7.368,0,0,0,16.556,70.573Zm-.44,19.3L42.984,63a3.651,3.651,0,1,0-5.163-5.163L10.952,84.707a3.651,3.651,0,1,0,5.163,5.163Z" transform="translate(24.51 -25.54)"/></g></g></svg>