<svg xmlns="http://www.w3.org/2000/svg" xmlns:xlink="http://www.w3.org/1999/xlink" width="102" height="102" viewBox="0 0 102 102"><defs><style>.a{opacity:0.75;fill:url(#a);}.b{fill:#75d5a2;}.c{fill:#fafafa;}.d{filter:url(#d);}.e{filter:url(#b);}</style><radialGradient id="a" cx="0.5" cy="0.5" r="0.5" gradientUnits="objectBoundingBox"><stop offset="0" stop-color="#75d5a2"/><stop offset="0.561" stop-color="#75d5a2"/><stop offset="1" stop-color="#75d5a2" stop-opacity="0.522"/></radialGradient><filter id="b" x="0" y="0" width="102" height="102" filterUnits="userSpaceOnUse"><feOffset dy="3" input="SourceAlpha"/><feGaussianBlur stdDeviation="3" result="c"/><feFlood flood-color="#464646" flood-opacity="0.431"/><feComposite operator="in" in2="c"/><feComposite in="SourceGraphic"/></filter><filter id="d" x="20.005" y="20.986" width="59.437" height="60.066" filterUnits="userSpaceOnUse"><feOffset dy="3" input="SourceAlpha"/><feGaussianBlur stdDeviation="3" result="e"/><feFlood flood-opacity="0.161"/><feComposite operator="in" in2="e"/><feComposite in="SourceGraphic"/></filter></defs><g transform="translate(4 1)"><circle class="a" cx="47" cy="47" r="47"/><circle class="b" cx="44" cy="44" r="44" transform="translate(3 3)"/><g class="e" transform="matrix(1, 0, 0, 1, -4, -1)"><circle class="b" cx="42" cy="42" r="42" transform="translate(9 6)"/></g><g class="d" transform="matrix(1, 0, 0, 1, -4, -1)"><path class="c" d="M12.536,34.832v7.234H1.062V34.832A2.328,2.328,0,0,1,3.39,32.5h6.818A2.328,2.328,0,0,1,12.536,34.832ZM38.927,13.381H32.109a2.328,2.328,0,0,0-2.328,2.328V42.066H41.255V15.709A2.329,2.329,0,0,0,38.927,13.381Zm-14.36,9.562H17.749a2.328,2.328,0,0,0-2.328,2.328v16.8H26.9V25.27A2.328,2.328,0,0,0,24.567,22.943Zm-22.7,4.765L16.693,15.061l3.138,2.677a1.976,1.976,0,0,0,2.544,0L36.185,5.958l2.088,2.448L41.255,0,32.485,1.62l2.088,2.448L21.1,15.557l-3.138-2.676a1.976,1.976,0,0,0-2.545,0L.255,25.817a1.242,1.242,0,1,0,1.613,1.89Z" transform="translate(29.19 26.99)"/></g></g></svg>