<svg xmlns="http://www.w3.org/2000/svg" xmlns:xlink="http://www.w3.org/1999/xlink" width="102" height="102" viewBox="0 0 102 102"><defs><style>.a{opacity:0.75;fill:url(#a);}.b{fill:#75d5a2;}.c{fill:#fafafa;}.d{fill:#1f2b45;}.e{fill:#58a07a;}.f{filter:url(#b);}</style><radialGradient id="a" cx="0.5" cy="0.5" r="0.5" gradientUnits="objectBoundingBox"><stop offset="0" stop-color="#75d5a2"/><stop offset="0.561" stop-color="#75d5a2"/><stop offset="1" stop-color="#75d5a2" stop-opacity="0.522"/></radialGradient><filter id="b" x="0" y="0" width="102" height="102" filterUnits="userSpaceOnUse"><feOffset dy="3" input="SourceAlpha"/><feGaussianBlur stdDeviation="3" result="c"/><feFlood flood-color="#464646" flood-opacity="0.431"/><feComposite operator="in" in2="c"/><feComposite in="SourceGraphic"/></filter></defs><g transform="translate(4 1)"><circle class="a" cx="47" cy="47" r="47"/><circle class="b" cx="44" cy="44" r="44" transform="translate(3 3)"/><g class="f" transform="matrix(1, 0, 0, 1, -4, -1)"><circle class="c" cx="42" cy="42" r="42" transform="translate(9 6)"/></g><g transform="translate(-1305.59 -785.154)"><rect class="d" width="1.6" height="8.786" transform="translate(1334.641 817.778)"/><path class="b" d="M1367.226,848.941h-39.208V828.668l19.6-11.514,19.6,11.514Z" transform="translate(0 -1)"/><rect class="d" width="57.417" height="1.6" transform="translate(1323.59 847.341)"/><path class="e" d="M1358.949,846.08a4.774,4.774,0,0,1,4.774-4.773c.055,0,.108.006.162.008a5.937,5.937,0,0,1,9.61-1.212,4.4,4.4,0,0,1,4.277,7.238h-18.649A4.759,4.759,0,0,1,1358.949,846.08Z"/></g></g></svg>