<svg xmlns="http://www.w3.org/2000/svg" xmlns:xlink="http://www.w3.org/1999/xlink" width="102" height="102" viewBox="0 0 102 102"><defs><style>.a{opacity:0.75;fill:url(#a);}.b{fill:#75d5a2;}.c{fill:#fafafa;}.d{filter:url(#d);}.e{filter:url(#b);}</style><radialGradient id="a" cx="0.5" cy="0.5" r="0.5" gradientUnits="objectBoundingBox"><stop offset="0" stop-color="#75d5a2"/><stop offset="0.561" stop-color="#75d5a2"/><stop offset="1" stop-color="#75d5a2" stop-opacity="0.522"/></radialGradient><filter id="b" x="0" y="0" width="102" height="102" filterUnits="userSpaceOnUse"><feOffset dy="3" input="SourceAlpha"/><feGaussianBlur stdDeviation="3" result="c"/><feFlood flood-color="#464646" flood-opacity="0.431"/><feComposite operator="in" in2="c"/><feComposite in="SourceGraphic"/></filter><filter id="d" x="25.771" y="17.242" width="50.447" height="67.425" filterUnits="userSpaceOnUse"><feOffset dy="3" input="SourceAlpha"/><feGaussianBlur stdDeviation="3" result="e"/><feFlood flood-opacity="0.161"/><feComposite operator="in" in2="e"/><feComposite in="SourceGraphic"/></filter></defs><g transform="translate(-340 -527)"><circle class="a" cx="47" cy="47" r="47" transform="translate(344 528)"/><circle class="b" cx="44" cy="44" r="44" transform="translate(347 531)"/><g class="e" transform="matrix(1, 0, 0, 1, 340, 527)"><circle class="b" cx="42" cy="42" r="42" transform="translate(9 6)"/></g><g class="d" transform="matrix(1, 0, 0, 1, 340, 527)"><path class="c" d="M25.751,47.089V51.3H16.762V47.114C9.429,45.775,4.89,40.955,4.89,33.652H16.4c0,2.724,2.222,4.083,4.715,4.083,2.332,0,4.559-1.184,4.559-3.265,0-2.518-3.12-3.245-6.952-4.193-5.843-1.455-13.287-3.26-13.287-12.434,0-6.536,4.048-10.769,10.924-12V1.877h8.988V5.885c6.837,1.329,10.689,5.833,10.689,12.539l-11.17.025c0-2.367-1.891-3.521-4.2-3.521-2.006,0-3.922.833-3.922,2.568,0,2.307,3.03,3.065,6.867,4.038,5.959,1.54,13.733,3.486,13.733,12.715C37.337,41.457,32.687,45.805,25.751,47.089Z" transform="translate(29.88 21.37)"/></g></g></svg>