<svg width="24" height="24" viewBox="0 0 24 24" fill="none" xmlns="http://www.w3.org/2000/svg">
<path d="M19.0012 17.7181C18.2544 16.598 17.8597 15.2942 17.8597 13.9479V10.125C17.8597 8.55609 17.2476 7.08211 16.1363 5.97459C15.1933 5.03484 13.9876 4.45589 12.6852 4.30528V2.85938H11.2789V4.31062C8.38862 4.67128 6.14091 7.16981 6.14091 10.181V13.9479C6.14091 15.2943 5.74618 16.598 4.99937 17.7182L3.65527 19.7344H10.0119C10.3021 20.5527 11.0836 21.1406 12.0003 21.1406C12.9169 21.1406 13.6985 20.5527 13.9887 19.7344H20.3453L19.0012 17.7181ZM6.27985 18.3281C7.10959 17.0151 7.54716 15.5051 7.54716 13.9479V10.1809C7.54716 7.70306 9.53776 5.68031 11.9845 5.67188C11.9898 5.67188 11.995 5.67188 12.0003 5.67188C13.187 5.67188 14.3028 6.1328 15.1437 6.97069C15.9883 7.81237 16.4534 8.93259 16.4534 10.125V13.9479C16.4534 15.5052 16.8909 17.0151 17.7207 18.3281H6.27985Z" fill="#565A5D"/>
<path d="M22.009 7.19385L21.0146 8.18821C22.0328 9.20638 22.5936 10.5601 22.5936 12C22.5936 13.4083 22.0538 14.7406 21.0739 15.7516L22.0836 16.7304C23.3193 15.4556 23.9998 13.7757 23.9998 12C23.9998 10.1845 23.2928 8.47761 22.009 7.19385Z" fill="#565A5D"/>
<path d="M20.0207 9.18262L19.0264 10.177C19.5133 10.6639 19.7815 11.3113 19.7815 12C19.7815 12.6779 19.5205 13.3181 19.0465 13.8026L20.0517 14.786C20.7843 14.0371 21.1877 13.0477 21.1877 12C21.1877 10.9357 20.7733 9.93515 20.0207 9.18262Z" fill="#565A5D"/>
<path d="M2.98514 8.18821L1.99078 7.19385C0.707016 8.47761 0 10.1845 0 12C0 13.7757 0.680531 15.4556 1.91616 16.7304L2.92589 15.7516C1.94597 14.7406 1.40625 13.4083 1.40625 12C1.40625 10.5601 1.96697 9.20638 2.98514 8.18821Z" fill="#565A5D"/>
<path d="M4.97386 10.177L3.9795 9.18262C3.22697 9.93515 2.8125 10.9357 2.8125 12C2.8125 13.0478 3.21591 14.0372 3.94847 14.7861L4.9537 13.8027C4.47975 13.3182 4.21875 12.678 4.21875 12C4.21875 11.3114 4.48692 10.664 4.97386 10.177Z" fill="#565A5D"/>
</svg>
