<svg width="24" height="18" viewBox="0 0 24 18" fill="none" xmlns="http://www.w3.org/2000/svg">
<path d="M19.0022 14.6302C18.2554 13.5272 17.8607 12.2436 17.8607 10.9179V7.15385C17.8607 5.60908 17.2486 4.15777 16.1373 3.06729C15.1943 2.142 13.9886 1.57195 12.6862 1.42366V0H11.2799V1.42892C8.3896 1.78403 6.1419 4.24412 6.1419 7.20895V10.918C6.1419 12.2436 5.74716 13.5273 5.00035 14.6302L3.65625 16.6154H10.0128C10.3031 17.4211 11.0846 18 12.0013 18C12.9179 18 13.6995 17.4211 13.9897 16.6154H20.3463L19.0022 14.6302ZM6.28083 15.2308C7.11057 13.938 7.54815 12.4512 7.54815 10.9179V7.20891C7.54815 4.76917 9.53875 2.77754 11.9855 2.76923C11.9908 2.76923 11.996 2.76923 12.0013 2.76923C13.188 2.76923 14.3038 3.22306 15.1447 4.04806C15.9893 4.8768 16.4544 5.97978 16.4544 7.15385V10.918C16.4544 12.4512 16.8919 13.938 17.7217 15.2308H6.28083Z" fill="#F3642F"/>
<path d="M19.0022 14.6302C18.2554 13.5272 17.8607 12.2436 17.8607 10.9179V7.15385C17.8607 5.60908 17.2486 4.15777 16.1373 3.06729C15.1943 2.142 13.9886 1.57195 12.6862 1.42366V0H11.2799V1.42892C8.3896 1.78403 6.1419 4.24412 6.1419 7.20895V10.918C6.1419 12.2436 5.74716 13.5273 5.00035 14.6302L3.65625 16.6154H10.0128C10.3031 17.4211 11.0846 18 12.0013 18C12.9179 18 13.6995 17.4211 13.9897 16.6154H20.3463L19.0022 14.6302Z" fill="#F3642F"/>
<path d="M22.01 4.26758L21.0156 5.24664C22.0338 6.24915 22.5946 7.58202 22.5946 8.99977C22.5946 10.3864 22.0548 11.6982 21.0749 12.6936L22.0846 13.6574C23.3203 12.4022 24.0009 10.7481 24.0009 8.99977C24.0009 7.21219 23.2938 5.53159 22.01 4.26758Z" fill="#F3642F"/>
<path d="M20.0217 6.22559L19.0273 7.20469C19.5143 7.68409 19.7825 8.32153 19.7825 8.99962C19.7825 9.66714 19.5215 10.2975 19.0475 10.7745L20.0527 11.7428C20.7853 11.0054 21.1887 10.0312 21.1887 8.99962C21.1887 7.95169 20.7742 6.96654 20.0217 6.22559Z" fill="#F3642F"/>
<path d="M2.98511 5.24664L1.99076 4.26758C0.707008 5.53159 0 7.21219 0 8.99977C0 10.7481 0.680524 12.4022 1.91613 13.6574L2.92586 12.6936C1.94595 11.6982 1.40623 10.3864 1.40623 8.99977C1.40623 7.58202 1.96695 6.24915 2.98511 5.24664Z" fill="#F3642F"/>
<path d="M4.97388 7.2047L3.97951 6.22559C3.22697 6.96654 2.8125 7.95174 2.8125 8.99967C2.8125 10.0313 3.21591 11.0055 3.94848 11.7428L4.95372 10.7746C4.47976 10.2975 4.21876 9.66719 4.21876 8.99967C4.21876 8.32162 4.48694 7.68414 4.97388 7.2047Z" fill="#F3642F"/>
</svg>
