<svg xmlns="http://www.w3.org/2000/svg" xmlns:xlink="http://www.w3.org/1999/xlink" width="102" height="102" viewBox="0 0 102 102"><defs><style>.a{opacity:0.75;fill:url(#a);}.b{fill:#75d5a2;}.c{fill:#fafafa;}.d{fill:#58a07a;}.e{fill:#1f2b45;}.f{filter:url(#b);}</style><radialGradient id="a" cx="0.5" cy="0.5" r="0.5" gradientUnits="objectBoundingBox"><stop offset="0" stop-color="#75d5a2"/><stop offset="0.561" stop-color="#75d5a2"/><stop offset="1" stop-color="#75d5a2" stop-opacity="0.522"/></radialGradient><filter id="b" x="0" y="0" width="102" height="102" filterUnits="userSpaceOnUse"><feOffset dy="3" input="SourceAlpha"/><feGaussianBlur stdDeviation="3" result="c"/><feFlood flood-color="#464646" flood-opacity="0.431"/><feComposite operator="in" in2="c"/><feComposite in="SourceGraphic"/></filter></defs><g transform="translate(4 1)"><circle class="a" cx="47" cy="47" r="47"/><circle class="b" cx="44" cy="44" r="44" transform="translate(3 3)"/><g class="f" transform="matrix(1, 0, 0, 1, -4, -1)"><circle class="c" cx="42" cy="42" r="42" transform="translate(9 6)"/></g><g transform="translate(-1305.711 -707.912)"><path class="b" d="M1346.381,767.3V747.347a.24.24,0,0,1,.24-.24h23.612a.241.241,0,0,1,.24.24V767.3Z"/><path class="d" d="M1366.535,756.9v6.224h-16.216V756.9a.242.242,0,0,0-.242-.241h-7a.241.241,0,0,0-.241.241v13.585h31.19V756.9a.241.241,0,0,0-.242-.241h-7A.241.241,0,0,0,1366.535,756.9Z"/><rect class="e" width="3.6" height="2.785" transform="translate(1344.581 770.482)"/><rect class="e" width="3.6" height="2.785" transform="translate(1368.673 770.482)"/><rect class="e" width="1.704" height="30.329" transform="translate(1335.132 744.322)"/><path class="b" d="M1344.517,741.667h-17.065l2.528-10.755h12.01Z"/><rect class="e" width="55.174" height="1.704" transform="translate(1324.711 773.267)"/></g></g></svg>