<svg xmlns="http://www.w3.org/2000/svg" xmlns:xlink="http://www.w3.org/1999/xlink" width="102" height="102" viewBox="0 0 102 102"><defs><style>.a{opacity:0.75;fill:url(#a);}.b{fill:#75d5a2;}.c{fill:#fafafa;}.d{fill:#58a07a;}.e{fill:#1f2b45;}.f{filter:url(#b);}</style><radialGradient id="a" cx="0.5" cy="0.5" r="0.5" gradientUnits="objectBoundingBox"><stop offset="0" stop-color="#75d5a2"/><stop offset="0.561" stop-color="#75d5a2"/><stop offset="1" stop-color="#75d5a2" stop-opacity="0.522"/></radialGradient><filter id="b" x="0" y="0" width="102" height="102" filterUnits="userSpaceOnUse"><feOffset dy="3" input="SourceAlpha"/><feGaussianBlur stdDeviation="3" result="c"/><feFlood flood-color="#464646" flood-opacity="0.431"/><feComposite operator="in" in2="c"/><feComposite in="SourceGraphic"/></filter></defs><g transform="translate(4 1)"><circle class="a" cx="47" cy="47" r="47"/><circle class="b" cx="44" cy="44" r="44" transform="translate(3 3)"/><g class="f" transform="matrix(1, 0, 0, 1, -4, -1)"><circle class="c" cx="42" cy="42" r="42" transform="translate(9 6)"/></g><g transform="translate(-1305.788 -868.124)"><path class="b" d="M1340.043,939.453l-12.255-8.074v-22.36l12.255,8.074Z"/><path class="d" d="M1340.043,939.453l12.255-8.074v-22.36l-12.255,8.074Z"/><path class="b" d="M1364.554,939.453l-12.255-8.074v-22.36l12.255,8.074Z"/><path class="d" d="M1364.554,939.453l12.255-8.074v-22.36l-12.255,8.074Z"/><path class="e" d="M1352.294,891.124a11.386,11.386,0,0,0-11.384,11.386v0a11.264,11.264,0,0,0,2.075,6.547c2.416,3.439,6.479,7.57,9.313,10.887,2.835-3.317,6.9-7.457,9.313-10.887a11.383,11.383,0,0,0-9.317-17.935Zm0,16.379a4.994,4.994,0,1,1,4.995-4.993v0A5,5,0,0,1,1352.294,907.5Z"/></g></g></svg>