<svg xmlns="http://www.w3.org/2000/svg" xmlns:xlink="http://www.w3.org/1999/xlink" width="102" height="102" viewBox="0 0 102 102"><defs><style>.a{opacity:0.75;fill:url(#a);}.b{fill:#75d5a2;}.c{fill:#fafafa;}.d{filter:url(#f);}.e{filter:url(#d);}.f{filter:url(#b);}</style><radialGradient id="a" cx="0.5" cy="0.5" r="0.5" gradientUnits="objectBoundingBox"><stop offset="0" stop-color="#75d5a2"/><stop offset="0.561" stop-color="#75d5a2"/><stop offset="1" stop-color="#75d5a2" stop-opacity="0.522"/></radialGradient><filter id="b" x="0" y="0" width="102" height="102" filterUnits="userSpaceOnUse"><feOffset dy="3" input="SourceAlpha"/><feGaussianBlur stdDeviation="3" result="c"/><feFlood flood-color="#464646" flood-opacity="0.431"/><feComposite operator="in" in2="c"/><feComposite in="SourceGraphic"/></filter><filter id="d" x="15" y="21.584" width="48.012" height="58.495" filterUnits="userSpaceOnUse"><feOffset dy="3" input="SourceAlpha"/><feGaussianBlur stdDeviation="3" result="e"/><feFlood flood-opacity="0.161"/><feComposite operator="in" in2="e"/><feComposite in="SourceGraphic"/></filter><filter id="f" x="38.044" y="21.584" width="50.346" height="58.495" filterUnits="userSpaceOnUse"><feOffset dy="3" input="SourceAlpha"/><feGaussianBlur stdDeviation="3" result="g"/><feFlood flood-opacity="0.161"/><feComposite operator="in" in2="g"/><feComposite in="SourceGraphic"/></filter></defs><g transform="translate(4 1)"><circle class="a" cx="47" cy="47" r="47"/><circle class="b" cx="44" cy="44" r="44" transform="translate(3 3)"/><g class="f" transform="matrix(1, 0, 0, 1, -4, -1)"><circle class="b" cx="42" cy="42" r="42" transform="translate(9 6)"/></g><g transform="translate(20 26.584)"><g transform="translate(0 0)"><g class="e" transform="matrix(1, 0, 0, 1, -24, -27.58)"><path class="c" d="M120.867,487.2V472.5a12.039,12.039,0,1,0-24.078,0v14.3a9.242,9.242,0,0,0-3.184,6.981v7.179h30.012v-7.179A9.232,9.232,0,0,0,120.867,487.2Zm-19.895-14.484a7.928,7.928,0,0,1,.11-1.311l.114,0a5.36,5.36,0,0,0,4.557-2.542,7.493,7.493,0,0,0,10.2.547,7.858,7.858,0,0,1,.728,3.3v1.794a7.894,7.894,0,0,1-7.7,7.854,7.687,7.687,0,0,1-5.561-2.247,8.181,8.181,0,0,1-2.447-5.8Zm6.428,10.939a9.074,9.074,0,0,0,1.433.114h.174a9.281,9.281,0,0,0,1.249-.11v1.528a1.428,1.428,0,1,1-2.856,0Zm14.812,15.9h-4.2v-4.123a.7.7,0,1,0-1.4,0v4.123h-16v-4.123a.7.7,0,0,0-1.4,0v4.123h-4.2v-5.776a7.864,7.864,0,0,1,7.855-7.855h3.23a2.831,2.831,0,0,0,5.468,0h2.8a7.864,7.864,0,0,1,7.855,7.855Z" transform="translate(-69.6 -432.88)"/></g><g class="d" transform="matrix(1, 0, 0, 1, -24, -27.58)"><path class="c" d="M141.695,484.35v-1.211a8.8,8.8,0,0,0,4.348-4.692.56.56,0,0,0,.112.011,2.037,2.037,0,0,0,.479-4.017V470.4a.577.577,0,1,0-1.153,0v4.87a7.571,7.571,0,0,1-7.784,7.567,7.634,7.634,0,0,1-7.327-7.051,4.5,4.5,0,0,0,1.617-4.782c0-.02,0-.039,0-.058a1.3,1.3,0,0,1,1.654-1.254,11.655,11.655,0,0,0,5.159,1.189,11.843,11.843,0,0,0,10.137-5.777.576.576,0,0,0-.048-.658,10.728,10.728,0,0,0-4.78-3.378,11.759,11.759,0,0,0-3.573-.609,10.717,10.717,0,0,0-9.908,6.578.542.542,0,0,1-.231.229,5.208,5.208,0,0,0-1.838,7.44,2.039,2.039,0,0,0,1.109,3.749.6.6,0,0,0,.153-.021,8.83,8.83,0,0,0,4.543,4.8v1.117a12.976,12.976,0,0,0-12.623,13.2v3.4h32.346v-3.4A13.182,13.182,0,0,0,141.695,484.35Zm-1.154.551c0,1.385-1.127,2.057-2.512,2.057s-2.512-.672-2.512-2.057V483.66a8.56,8.56,0,0,0,2.149.334c.083,0,.165,0,.247,0a8.725,8.725,0,0,0,2.628-.4Z" transform="translate(-74.7 -432.88)"/></g></g></g></g></svg>