<svg xmlns="http://www.w3.org/2000/svg" xmlns:xlink="http://www.w3.org/1999/xlink" width="102" height="102" viewBox="0 0 102 102"><defs><style>.a{opacity:0.75;fill:url(#a);}.b{fill:#75d5a2;}.c{fill:#e9e9e9;}.d{fill:#fafafa;}.e{fill:#e8e8e8;}.f{filter:url(#h);}.g{filter:url(#f);}.h{filter:url(#d);}.i{filter:url(#b);}</style><radialGradient id="a" cx="0.5" cy="0.5" r="0.5" gradientUnits="objectBoundingBox"><stop offset="0" stop-color="#75d5a2"/><stop offset="0.561" stop-color="#75d5a2"/><stop offset="1" stop-color="#75d5a2" stop-opacity="0.522"/></radialGradient><filter id="b" x="0" y="0" width="102" height="102" filterUnits="userSpaceOnUse"><feOffset dy="3" input="SourceAlpha"/><feGaussianBlur stdDeviation="3" result="c"/><feFlood flood-color="#464646" flood-opacity="0.431"/><feComposite operator="in" in2="c"/><feComposite in="SourceGraphic"/></filter><filter id="d" x="29.804" y="28.103" width="56.899" height="48.402" filterUnits="userSpaceOnUse"><feOffset dy="3" input="SourceAlpha"/><feGaussianBlur stdDeviation="3" result="e"/><feFlood flood-opacity="0.161"/><feComposite operator="in" in2="e"/><feComposite in="SourceGraphic"/></filter><filter id="f" x="27.998" y="29.75" width="51.654" height="54.026" filterUnits="userSpaceOnUse"><feOffset dy="3" input="SourceAlpha"/><feGaussianBlur stdDeviation="3" result="g"/><feFlood flood-opacity="0.161"/><feComposite operator="in" in2="g"/><feComposite in="SourceGraphic"/></filter><filter id="h" x="17.895" y="19.025" width="41.404" height="41.74" filterUnits="userSpaceOnUse"><feOffset dy="3" input="SourceAlpha"/><feGaussianBlur stdDeviation="3" result="i"/><feFlood flood-opacity="0.161"/><feComposite operator="in" in2="i"/><feComposite in="SourceGraphic"/></filter></defs><g transform="translate(-340 -527)"><circle class="a" cx="47" cy="47" r="47" transform="translate(344 528)"/><circle class="b" cx="44" cy="44" r="44" transform="translate(347 531)"/><g class="i" transform="matrix(1, 0, 0, 1, 340, 527)"><circle class="b" cx="42" cy="42" r="42" transform="translate(9 6)"/></g><g transform="translate(273.077 116.632)"><g class="h" transform="matrix(1, 0, 0, 1, 66.92, 410.37)"><path class="c" d="M112.721,453.672a11.665,11.665,0,0,0,16.75,15.711l13.692,8.9a2.983,2.983,0,0,0,2.069.449l3.2-.481a1.527,1.527,0,0,0,1.246-1.916l-.859-3.12a2.983,2.983,0,0,0-1.25-1.709l-.54-.351a.715.715,0,0,0-.989.21.714.714,0,0,1-.988.21h0l-.947-.616a1,1,0,0,1-.453-.758,1,1,0,0,0-1.33-.864,1.007,1.007,0,0,1-.877-.106l-.946-.616a.714.714,0,0,1-.21-.988.714.714,0,0,0-.209-.989l-.68-.442a.715.715,0,0,0-.989.21.714.714,0,0,1-.989.209l-1.808-1.176a.714.714,0,0,1-.21-.989.715.715,0,0,0-.21-.989l-1.317-.857a11.665,11.665,0,0,0-21.156-8.934Zm7.866,1.17a3.306,3.306,0,0,1,.97,4.575h0a3.307,3.307,0,1,1-.97-4.575Z" transform="translate(-72.03 -414.26)"/></g><g class="g" transform="matrix(1, 0, 0, 1, 66.92, 410.37)"><path class="d" d="M112.133,453.695a11.665,11.665,0,0,0,12.078,19.534l10.9,12.162a2.985,2.985,0,0,0,1.88.973l3.215.37a1.528,1.528,0,0,0,1.7-1.526l-.016-3.236a2.98,2.98,0,0,0-.761-1.976l-.43-.479a.714.714,0,0,0-1.009-.055.716.716,0,0,1-1.01-.055h0l-.753-.841a1,1,0,0,1-.24-.85,1,1,0,0,0-1.059-1.181,1,1,0,0,1-.818-.331l-.754-.841a.715.715,0,0,1,.055-1.009.715.715,0,0,0,.055-1.01l-.541-.6a.714.714,0,0,0-1.009-.055.715.715,0,0,1-1.009-.055l-1.44-1.606a.715.715,0,0,1,.055-1.01A.715.715,0,0,0,131.28,469l-1.049-1.17a11.665,11.665,0,0,0-18.1-14.138Zm7.29,3.179a3.307,3.307,0,0,1-.255,4.67h0a3.306,3.306,0,1,1,.255-4.67Z" transform="translate(-71.26 -414.97)"/></g><g class="f" transform="matrix(1, 0, 0, 1, 66.92, 410.37)"><path class="e" d="M111.262,451.473a1.117,1.117,0,0,0-.2.1,6.856,6.856,0,0,1-1.292,1.243,6.775,6.775,0,0,1-3.874,1.34,1.733,1.733,0,0,1-.213.008,6.739,6.739,0,0,1-1.153-.1,6.9,6.9,0,1,1,7.847-8.453,11.42,11.42,0,0,1,4.84-1.128A11.867,11.867,0,1,0,104,459.01a11.39,11.39,0,0,0,1.684.122c.147,0,.286,0,.433-.008a11.722,11.722,0,0,0,5.412-1.545,9.7,9.7,0,0,0,1.12-.719,11.614,11.614,0,0,0,3.131-3.368,3.217,3.217,0,0,0-.687-1.226A3.3,3.3,0,0,0,111.262,451.473Z" transform="translate(-66.92 -410.37)"/></g></g></g></svg>