<svg xmlns="http://www.w3.org/2000/svg" width="24.203" height="36.868" viewBox="0 0 24.203 36.868"><defs><style>.a{fill:#75d5a2;}</style></defs><path class="a" d="M20.451,35.6v3.143h-6.7V35.621c-5.47-1-8.856-4.594-8.856-10.042h8.583c0,2.032,1.657,3.046,3.517,3.046,1.74,0,3.4-.883,3.4-2.436,0-1.878-2.327-2.421-5.186-3.128-4.359-1.085-9.911-2.432-9.911-9.275,0-4.875,3.019-8.033,8.149-8.953V1.877h6.7V4.866c5.1.991,7.973,4.351,7.973,9.354l-8.332.019c0-1.766-1.411-2.626-3.135-2.626-1.5,0-2.926.621-2.926,1.916,0,1.721,2.26,2.286,5.122,3.012,4.445,1.149,10.244,2.6,10.244,9.485C29.093,31.4,25.625,34.645,20.451,35.6Z" transform="translate(-4.89 -1.877)"/></svg>