<svg xmlns="http://www.w3.org/2000/svg" width="18.888" height="18.693" viewBox="0 0 18.888 18.693"><defs><style>.a{fill:#75d5a2;}.b{fill:#1f2b45;}</style></defs><g transform="translate(0 0)"><path class="a" d="M16.41,3.495,10.106.446,9.98.386A1.308,1.308,0,0,0,9.406.255a1.329,1.329,0,0,0-.441.076,1.208,1.208,0,0,0-.139.058l-.119.06L2.4,3.5a1.276,1.276,0,0,0-.72,1.14v7.77l7.259,6.543h7.245a.941.941,0,0,0,.945-.935V4.636A1.279,1.279,0,0,0,16.41,3.495Z" transform="translate(1.757 -0.255)"/><path class="b" d="M11.465,7.291,6.635,4.907a1.112,1.112,0,0,0-.978,0L.824,7.291a1.083,1.083,0,0,0-.611.974v3.667a.939.939,0,0,0,.945.933h9.973a.939.939,0,0,0,.945-.933V8.266A1.081,1.081,0,0,0,11.465,7.291Z" transform="translate(-0.213 5.826)"/></g></svg>