<svg xmlns="http://www.w3.org/2000/svg" width="152.771" height="35.922" viewBox="0 0 152.771 35.922"><defs><style>.a{fill:#75d5a2;}.b{fill:#1f2b45;}</style></defs><path class="a" d="M186.692,239.232v34.046h-2.715v-31.1l-10.886,5.2V262.09h-2.715V247.239a2.436,2.436,0,0,1,1.394-2.177l12.207-5.826.235-.112a2.65,2.65,0,0,1,1.122-.256,2.615,2.615,0,0,1,1.116.25Z" transform="translate(-163.712 -238.868)"/><path class="a" d="M230.392,245.061l-12.21-5.829-.241-.115a2.615,2.615,0,0,0-1.116-.25,2.65,2.65,0,0,0-1.122.256l-.235.112V274.6h14.49a1.813,1.813,0,0,0,1.831-1.786V247.239A2.439,2.439,0,0,0,230.392,245.061Zm-1.318,26.895H218.182V242.179l10.892,5.2Z" transform="translate(-195.202 -238.868)"/><path class="b" d="M169.432,323.393H150.113a1.809,1.809,0,0,1-1.831-1.783V314.6a2.068,2.068,0,0,1,1.182-1.864l9.36-4.558a2.182,2.182,0,0,1,1.9,0l9.36,4.558a2.068,2.068,0,0,1,1.183,1.864v7.01A1.81,1.81,0,0,1,169.432,323.393ZM151,320.748h17.551v-5.8l-8.776-4.274L151,314.945Z" transform="translate(-148.282 -287.66)"/><g transform="translate(41.865 8.519)"><path class="b" d="M361.4,302.305c0-5.906,4.431-10.108,10.416-10.108s10.378,4.2,10.378,10.108-4.392,10.145-10.378,10.145S361.4,308.21,361.4,302.305m17.995,0a7.6,7.6,0,1,0-7.579,7.761,7.352,7.352,0,0,0,7.579-7.761" transform="translate(-338.984 -285.047)"/><path class="b" d="M441.7,280.666h2.76v19.913H441.7Zm2.759-5.012H441.7v2.688h2.76Z" transform="translate(-395.057 -273.365)"/><path class="b" d="M485.665,300.715v11.547h-2.759V300.98c0-4.2-2.254-6.36-6.141-6.36-4.392,0-7.151,2.65-7.151,7.193v10.449h-2.76V292.349H469.5v3.672c1.477-2.423,4.236-3.824,7.773-3.824,4.975,0,8.4,2.8,8.4,8.518" transform="translate(-412.627 -285.047)"/><path class="b" d="M550.145,300.949a6.686,6.686,0,0,1-4.314,1.4c-3.848,0-5.985-2.12-5.985-5.792V284.519h-3.653v-2.271h3.653v-4.354H542.6v4.354h6.219v2.271H542.6v11.887c0,2.347,1.244,3.634,3.537,3.634a4.64,4.64,0,0,0,3.032-1.022Z" transform="translate(-461.05 -274.947)"/><path class="b" d="M308.109,277c0,5.987-3.991,9.447-10.9,9.447h-7.3v8.631h-2.833V267.863h10.138C304.118,267.863,308.109,271.206,308.109,277Zm-3.073.078c0-4.16-2.914-6.337-7.943-6.337H289.91v12.829h7.184C302.123,283.569,305.036,281.353,305.036,277.077Z" transform="translate(-287.076 -267.863)"/></g><g transform="translate(132.947 8.509)"><path class="a" d="M604.2,274.866c0-2.668-2.223-4.254-5.875-4.254a12.526,12.526,0,0,0-7.9,3.326l-1.39-2.359a15.475,15.475,0,0,1,9.687-3.751c5.28,0,8.774,2.591,8.774,6.652,0,2.552-2.064,5.684-5.122,8.778l-9.012,8.933h15.5v2.862H589.314v-2.514l10.878-10.982C602.614,279.158,604.2,276.645,604.2,274.866Z" transform="translate(-589.036 -267.828)"/></g></svg>