<svg width="463" height="463" viewBox="0 0 463 463" fill="none" xmlns="http://www.w3.org/2000/svg" id='scope'>
<path d="M53.19 26H29V49.38H53.19V26Z" stroke="#14009E" stroke-width="2"/>
<path d="M78.38 26H54.69V49.38H78.38V26Z" stroke="#14009E" stroke-width="2"/>
<path d="M104.06 26H79.87V49.38H104.06V26Z" stroke="#14009E" stroke-width="2"/>
<path d="M129.25 26H105.56V49.38H129.25V26Z" stroke="#14009E" stroke-width="2"/>
<path d="M154.94 26H130.75V49.38H154.94V26Z" stroke="#14009E" stroke-width="2"/>
<path d="M180.13 26H156.44V49.38H180.13V26Z" stroke="#14009E" stroke-width="2"/>
<path d="M205.81 26H181.62V49.38H205.81V26Z" stroke="#14009E" stroke-width="2"/>
<path d="M231 26H207.31V49.38H231V26Z" stroke="#14009E" stroke-width="2"/>
<path d="M53.19 51.38H29V74.76H53.19V51.38Z" stroke="#14009E" stroke-width="2"/>
<path d="M78.38 51.38H54.69V74.76H78.38V51.38Z" stroke="#14009E" stroke-width="2"/>
<path d="M104.06 51.38H79.87V74.76H104.06V51.38Z" stroke="#14009E" stroke-width="2"/>
<path d="M129.25 51.38H105.56V74.76H129.25V51.38Z" stroke="#14009E" stroke-width="2"/>
<path d="M154.94 51.38H130.75V74.76H154.94V51.38Z" stroke="#14009E" stroke-width="2"/>
<path d="M180.13 51.38H156.44V74.76H180.13V51.38Z" stroke="#14009E" stroke-width="2"/>
<path d="M205.81 51.38H181.62V74.76H205.81V51.38Z" stroke="#14009E" stroke-width="2"/>
<path d="M231 51.38H207.31V74.76H231V51.38Z" stroke="#14009E" stroke-width="2"/>
<path d="M53.19 76.75H29V100.13H53.19V76.75Z" stroke="#14009E" stroke-width="2"/>
<path d="M78.38 76.75H54.69V100.13H78.38V76.75Z" stroke="#14009E" stroke-width="2"/>
<path d="M104.06 76.75H79.87V100.13H104.06V76.75Z" stroke="#14009E" stroke-width="2"/>
<path d="M129.25 76.75H105.56V100.13H129.25V76.75Z" stroke="#14009E" stroke-width="2"/>
<path d="M154.94 76.75H130.75V100.13H154.94V76.75Z" stroke="#14009E" stroke-width="2"/>
<path d="M180.13 76.75H156.44V100.13H180.13V76.75Z" stroke="#14009E" stroke-width="2"/>
<path d="M205.81 76.75H181.62V100.13H205.81V76.75Z" stroke="#14009E" stroke-width="2"/>
<path d="M231 76.75H207.31V100.13H231V76.75Z" stroke="#14009E" stroke-width="2"/>
<path d="M53.19 102.13H29V125.51H53.19V102.13Z" stroke="#14009E" stroke-width="2"/>
<path d="M78.38 102.13H54.69V125.51H78.38V102.13Z" stroke="#14009E" stroke-width="2"/>
<path d="M104.06 102.13H79.87V125.51H104.06V102.13Z" stroke="#14009E" stroke-width="2"/>
<path d="M129.25 102.13H105.56V125.51H129.25V102.13Z" stroke="#14009E" stroke-width="2"/>
<path d="M154.94 102.13H130.75V125.51H154.94V102.13Z" stroke="#14009E" stroke-width="2"/>
<path d="M180.13 102.13H156.44V125.51H180.13V102.13Z" stroke="#14009E" stroke-width="2"/>
<path d="M205.81 102.13H181.62V125.51H205.81V102.13Z" stroke="#14009E" stroke-width="2"/>
<path d="M231 102.13H207.31V125.51H231V102.13Z" stroke="#14009E" stroke-width="2"/>
<path d="M53.19 127.5H29V150.88H53.19V127.5Z" stroke="#14009E" stroke-width="2"/>
<path d="M78.38 127.5H54.69V150.88H78.38V127.5Z" stroke="#14009E" stroke-width="2"/>
<path d="M104.06 127.5H79.87V150.88H104.06V127.5Z" stroke="#14009E" stroke-width="2"/>
<path d="M129.25 127.5H105.56V150.88H129.25V127.5Z" stroke="#14009E" stroke-width="2"/>
<path d="M154.94 127.5H130.75V150.88H154.94V127.5Z" stroke="#14009E" stroke-width="2"/>
<path d="M180.13 127.5H156.44V150.88H180.13V127.5Z" stroke="#14009E" stroke-width="2"/>
<path d="M205.81 127.5H181.62V150.88H205.81V127.5Z" stroke="#14009E" stroke-width="2"/>
<path d="M231 127.5H207.31V150.88H231V127.5Z" stroke="#14009E" stroke-width="2"/>
<path d="M53.19 152.88H29V176.26H53.19V152.88Z" stroke="#14009E" stroke-width="2"/>
<path d="M78.38 152.88H54.69V176.26H78.38V152.88Z" stroke="#14009E" stroke-width="2"/>
<path d="M104.06 152.88H79.87V176.26H104.06V152.88Z" stroke="#14009E" stroke-width="2"/>
<path d="M129.25 152.88H105.56V176.26H129.25V152.88Z" stroke="#14009E" stroke-width="2"/>
<path d="M154.94 152.88H130.75V176.26H154.94V152.88Z" stroke="#14009E" stroke-width="2"/>
<path d="M180.13 152.88H156.44V176.26H180.13V152.88Z" stroke="#14009E" stroke-width="2"/>
<path d="M205.81 152.88H181.62V176.26H205.81V152.88Z" stroke="#14009E" stroke-width="2"/>
<path d="M231 152.88H207.31V176.26H231V152.88Z" stroke="#14009E" stroke-width="2"/>
<path d="M53.19 178.25H29V201.63H53.19V178.25Z" stroke="#14009E" stroke-width="2"/>
<path d="M78.38 178.25H54.69V201.63H78.38V178.25Z" stroke="#14009E" stroke-width="2"/>
<path d="M104.06 178.25H79.87V201.63H104.06V178.25Z" stroke="#14009E" stroke-width="2"/>
<path d="M129.25 178.25H105.56V201.63H129.25V178.25Z" stroke="#14009E" stroke-width="2"/>
<path d="M154.94 178.25H130.75V201.63H154.94V178.25Z" stroke="#14009E" stroke-width="2"/>
<path d="M180.13 178.25H156.44V201.63H180.13V178.25Z" stroke="#14009E" stroke-width="2"/>
<path d="M205.81 178.25H181.62V201.63H205.81V178.25Z" stroke="#14009E" stroke-width="2"/>
<path d="M231 178.25H207.31V201.63H231V178.25Z" stroke="#14009E" stroke-width="2"/>
<path d="M53.19 203.63H29V227.01H53.19V203.63Z" stroke="#14009E" stroke-width="2"/>
<path d="M78.38 203.63H54.69V227.01H78.38V203.63Z" stroke="#14009E" stroke-width="2"/>
<path d="M104.06 203.63H79.87V227.01H104.06V203.63Z" stroke="#14009E" stroke-width="2"/>
<path d="M129.25 203.63H105.56V227.01H129.25V203.63Z" stroke="#14009E" stroke-width="2"/>
<path d="M154.94 203.63H130.75V227.01H154.94V203.63Z" stroke="#14009E" stroke-width="2"/>
<path d="M180.13 203.63H156.44V227.01H180.13V203.63Z" stroke="#14009E" stroke-width="2"/>
<path d="M205.81 203.63H181.62V227.01H205.81V203.63Z" stroke="#14009E" stroke-width="2"/>
<path d="M231 203.63H207.31V227.01H231V203.63Z" stroke="#14009E" stroke-width="2"/>
<path d="M256.19 26H232V49.38H256.19V26Z" stroke="#14009E" stroke-width="2"/>
<path d="M281.38 26H257.69V49.38H281.38V26Z" stroke="#14009E" stroke-width="2"/>
<path d="M307.06 26H282.87V49.38H307.06V26Z" stroke="#14009E" stroke-width="2"/>
<path d="M332.25 26H308.56V49.38H332.25V26Z" stroke="#14009E" stroke-width="2"/>
<path d="M357.94 26H333.75V49.38H357.94V26Z" stroke="#14009E" stroke-width="2"/>
<path d="M383.13 26H359.44V49.38H383.13V26Z" stroke="#14009E" stroke-width="2"/>
<path d="M408.81 26H384.62V49.38H408.81V26Z" stroke="#14009E" stroke-width="2"/>
<path d="M434 26H410.31V49.38H434V26Z" stroke="#14009E" stroke-width="2"/>
<path d="M256.19 51.38H232V74.76H256.19V51.38Z" stroke="#14009E" stroke-width="2"/>
<path d="M281.38 51.38H257.69V74.76H281.38V51.38Z" stroke="#14009E" stroke-width="2"/>
<path d="M307.06 51.38H282.87V74.76H307.06V51.38Z" stroke="#14009E" stroke-width="2"/>
<path d="M332.25 51.38H308.56V74.76H332.25V51.38Z" stroke="#14009E" stroke-width="2"/>
<path d="M357.94 51.38H333.75V74.76H357.94V51.38Z" stroke="#14009E" stroke-width="2"/>
<path d="M383.13 51.38H359.44V74.76H383.13V51.38Z" stroke="#14009E" stroke-width="2"/>
<path d="M408.81 51.38H384.62V74.76H408.81V51.38Z" stroke="#14009E" stroke-width="2"/>
<path d="M434 51.38H410.31V74.76H434V51.38Z" stroke="#14009E" stroke-width="2"/>
<path d="M256.19 76.75H232V100.13H256.19V76.75Z" stroke="#14009E" stroke-width="2"/>
<path d="M281.38 76.75H257.69V100.13H281.38V76.75Z" stroke="#14009E" stroke-width="2"/>
<path d="M307.06 76.75H282.87V100.13H307.06V76.75Z" stroke="#14009E" stroke-width="2"/>
<path d="M332.25 76.75H308.56V100.13H332.25V76.75Z" stroke="#14009E" stroke-width="2"/>
<path d="M357.94 76.75H333.75V100.13H357.94V76.75Z" stroke="#14009E" stroke-width="2"/>
<path d="M383.13 76.75H359.44V100.13H383.13V76.75Z" stroke="#14009E" stroke-width="2"/>
<path d="M408.81 76.75H384.62V100.13H408.81V76.75Z" stroke="#14009E" stroke-width="2"/>
<path d="M434 76.75H410.31V100.13H434V76.75Z" stroke="#14009E" stroke-width="2"/>
<path d="M256.19 102.13H232V125.51H256.19V102.13Z" stroke="#14009E" stroke-width="2"/>
<path d="M281.38 102.13H257.69V125.51H281.38V102.13Z" stroke="#14009E" stroke-width="2"/>
<path d="M307.06 102.13H282.87V125.51H307.06V102.13Z" stroke="#14009E" stroke-width="2"/>
<path d="M332.25 102.13H308.56V125.51H332.25V102.13Z" stroke="#14009E" stroke-width="2"/>
<path d="M357.94 102.13H333.75V125.51H357.94V102.13Z" stroke="#14009E" stroke-width="2"/>
<path d="M383.13 102.13H359.44V125.51H383.13V102.13Z" stroke="#14009E" stroke-width="2"/>
<path d="M408.81 102.13H384.62V125.51H408.81V102.13Z" stroke="#14009E" stroke-width="2"/>
<path d="M434 102.13H410.31V125.51H434V102.13Z" stroke="#14009E" stroke-width="2"/>
<path d="M256.19 127.5H232V150.88H256.19V127.5Z" stroke="#14009E" stroke-width="2"/>
<path d="M281.38 127.5H257.69V150.88H281.38V127.5Z" stroke="#14009E" stroke-width="2"/>
<path d="M307.06 127.5H282.87V150.88H307.06V127.5Z" stroke="#14009E" stroke-width="2"/>
<path d="M332.25 127.5H308.56V150.88H332.25V127.5Z" stroke="#14009E" stroke-width="2"/>
<path d="M357.94 127.5H333.75V150.88H357.94V127.5Z" stroke="#14009E" stroke-width="2"/>
<path d="M383.13 127.5H359.44V150.88H383.13V127.5Z" stroke="#14009E" stroke-width="2"/>
<path d="M408.81 127.5H384.62V150.88H408.81V127.5Z" stroke="#14009E" stroke-width="2"/>
<path d="M434 127.5H410.31V150.88H434V127.5Z" stroke="#14009E" stroke-width="2"/>
<path d="M256.19 152.88H232V176.26H256.19V152.88Z" stroke="#14009E" stroke-width="2"/>
<path d="M281.38 152.88H257.69V176.26H281.38V152.88Z" stroke="#14009E" stroke-width="2"/>
<path d="M332.25 152.88H308.56V176.26H332.25V152.88Z" stroke="#14009E" stroke-width="2"/>
<path d="M357.94 152.88H333.75V176.26H357.94V152.88Z" stroke="#14009E" stroke-width="2"/>
<path d="M383.13 152.88H359.44V176.26H383.13V152.88Z" stroke="#14009E" stroke-width="2"/>
<path d="M408.81 152.88H384.62V176.26H408.81V152.88Z" stroke="#14009E" stroke-width="2"/>
<path d="M434 152.88H410.31V176.26H434V152.88Z" stroke="#14009E" stroke-width="2"/>
<path d="M307.06 152.88H282.87V176.26H307.06V152.88Z" stroke="#14009E" stroke-width="2"/>
<path d="M256.19 178.25H232V201.63H256.19V178.25Z" stroke="#14009E" stroke-width="2"/>
<path d="M281.38 178.25H257.69V201.63H281.38V178.25Z" stroke="#14009E" stroke-width="2"/>
<path d="M307.06 178.25H282.87V201.63H307.06V178.25Z" stroke="#14009E" stroke-width="2"/>
<path d="M332.25 178.25H308.56V201.63H332.25V178.25Z" stroke="#14009E" stroke-width="2"/>
<path d="M357.94 178.25H333.75V201.63H357.94V178.25Z" stroke="#14009E" stroke-width="2"/>
<path d="M383.13 178.25H359.44V201.63H383.13V178.25Z" stroke="#14009E" stroke-width="2"/>
<path d="M408.81 178.25H384.62V201.63H408.81V178.25Z" stroke="#14009E" stroke-width="2"/>
<path d="M434 178.25H410.31V201.63H434V178.25Z" stroke="#14009E" stroke-width="2"/>
<path d="M256.19 203.63H232V227.01H256.19V203.63Z" stroke="#14009E" stroke-width="2"/>
<path d="M281.38 203.63H257.69V227.01H281.38V203.63Z" stroke="#14009E" stroke-width="2"/>
<path d="M307.06 203.63H282.87V227.01H307.06V203.63Z" stroke="#14009E" stroke-width="2"/>
<path d="M332.25 203.63H308.56V227.01H332.25V203.63Z" stroke="#14009E" stroke-width="2"/>
<path d="M357.94 203.63H333.75V227.01H357.94V203.63Z" stroke="#14009E" stroke-width="2"/>
<path d="M383.13 203.63H359.44V227.01H383.13V203.63Z" stroke="#14009E" stroke-width="2"/>
<path d="M408.81 203.63H384.62V227.01H408.81V203.63Z" stroke="#14009E" stroke-width="2"/>
<path d="M434 203.63H410.31V227.01H434V203.63Z" stroke="#14009E" stroke-width="2"/>
<path d="M53.19 228H29V251.38H53.19V228Z" stroke="#14009E" stroke-width="2"/>
<path d="M78.38 228H54.69V251.38H78.38V228Z" stroke="#14009E" stroke-width="2"/>
<path d="M104.06 228H79.87V251.38H104.06V228Z" stroke="#14009E" stroke-width="2"/>
<path d="M129.25 228H105.56V251.38H129.25V228Z" stroke="#14009E" stroke-width="2"/>
<path d="M154.94 228H130.75V251.38H154.94V228Z" stroke="#14009E" stroke-width="2"/>
<path d="M180.13 228H156.44V251.38H180.13V228Z" stroke="#14009E" stroke-width="2"/>
<path d="M205.81 228H181.62V251.38H205.81V228Z" stroke="#14009E" stroke-width="2"/>
<path d="M231 228H207.31V251.38H231V228Z" stroke="#14009E" stroke-width="2"/>
<path d="M53.19 253.38H29V276.76H53.19V253.38Z" stroke="#14009E" stroke-width="2"/>
<path d="M78.38 253.38H54.69V276.76H78.38V253.38Z" stroke="#14009E" stroke-width="2"/>
<path d="M104.06 253.38H79.87V276.76H104.06V253.38Z" stroke="#14009E" stroke-width="2"/>
<path d="M129.25 253.38H105.56V276.76H129.25V253.38Z" stroke="#14009E" stroke-width="2"/>
<path d="M154.94 253.38H130.75V276.76H154.94V253.38Z" stroke="#14009E" stroke-width="2"/>
<path d="M180.13 253.38H156.44V276.76H180.13V253.38Z" stroke="#14009E" stroke-width="2"/>
<path d="M205.81 253.38H181.62V276.76H205.81V253.38Z" stroke="#14009E" stroke-width="2"/>
<path d="M231 253.38H207.31V276.76H231V253.38Z" stroke="#14009E" stroke-width="2"/>
<path d="M53.19 278.75H29V302.13H53.19V278.75Z" stroke="#14009E" stroke-width="2"/>
<path d="M78.38 278.75H54.69V302.13H78.38V278.75Z" stroke="#14009E" stroke-width="2"/>
<path d="M104.06 278.75H79.87V302.13H104.06V278.75Z" stroke="#14009E" stroke-width="2"/>
<path d="M129.25 278.75H105.56V302.13H129.25V278.75Z" stroke="#14009E" stroke-width="2"/>
<path d="M154.94 278.75H130.75V302.13H154.94V278.75Z" stroke="#14009E" stroke-width="2"/>
<path d="M180.13 278.75H156.44V302.13H180.13V278.75Z" stroke="#14009E" stroke-width="2"/>
<path d="M205.81 278.75H181.62V302.13H205.81V278.75Z" stroke="#14009E" stroke-width="2"/>
<path d="M231 278.75H207.31V302.13H231V278.75Z" stroke="#14009E" stroke-width="2"/>
<path d="M53.19 304.13H29V327.51H53.19V304.13Z" stroke="#14009E" stroke-width="2"/>
<path d="M78.38 304.13H54.69V327.51H78.38V304.13Z" stroke="#14009E" stroke-width="2"/>
<path d="M104.06 304.13H79.87V327.51H104.06V304.13Z" stroke="#14009E" stroke-width="2"/>
<path d="M129.25 304.13H105.56V327.51H129.25V304.13Z" stroke="#14009E" stroke-width="2"/>
<path d="M154.94 304.13H130.75V327.51H154.94V304.13Z" stroke="#14009E" stroke-width="2"/>
<path d="M180.13 304.13H156.44V327.51H180.13V304.13Z" stroke="#14009E" stroke-width="2"/>
<path d="M205.81 304.13H181.62V327.51H205.81V304.13Z" stroke="#14009E" stroke-width="2"/>
<path d="M231 304.13H207.31V327.51H231V304.13Z" stroke="#14009E" stroke-width="2"/>
<path d="M53.19 329.5H29V352.88H53.19V329.5Z" stroke="#14009E" stroke-width="2"/>
<path d="M78.38 329.5H54.69V352.88H78.38V329.5Z" stroke="#14009E" stroke-width="2"/>
<path d="M104.06 329.5H79.87V352.88H104.06V329.5Z" stroke="#14009E" stroke-width="2"/>
<path d="M129.25 329.5H105.56V352.88H129.25V329.5Z" stroke="#14009E" stroke-width="2"/>
<path d="M154.94 329.5H130.75V352.88H154.94V329.5Z" stroke="#14009E" stroke-width="2"/>
<path d="M180.13 329.5H156.44V352.88H180.13V329.5Z" stroke="#14009E" stroke-width="2"/>
<path d="M205.81 329.5H181.62V352.88H205.81V329.5Z" stroke="#14009E" stroke-width="2"/>
<path d="M231 329.5H207.31V352.88H231V329.5Z" stroke="#14009E" stroke-width="2"/>
<path d="M53.19 354.88H29V378.26H53.19V354.88Z" stroke="#14009E" stroke-width="2"/>
<path d="M78.38 354.88H54.69V378.26H78.38V354.88Z" stroke="#14009E" stroke-width="2"/>
<path d="M104.06 354.88H79.87V378.26H104.06V354.88Z" stroke="#14009E" stroke-width="2"/>
<path d="M129.25 354.88H105.56V378.26H129.25V354.88Z" stroke="#14009E" stroke-width="2"/>
<path d="M154.94 354.88H130.75V378.26H154.94V354.88Z" stroke="#14009E" stroke-width="2"/>
<path d="M180.13 354.88H156.44V378.26H180.13V354.88Z" stroke="#14009E" stroke-width="2"/>
<path d="M205.81 354.88H181.62V378.26H205.81V354.88Z" stroke="#14009E" stroke-width="2"/>
<path d="M231 354.88H207.31V378.26H231V354.88Z" stroke="#14009E" stroke-width="2"/>
<path d="M53.19 380.25H29V403.63H53.19V380.25Z" stroke="#14009E" stroke-width="2"/>
<path d="M78.38 380.25H54.69V403.63H78.38V380.25Z" stroke="#14009E" stroke-width="2"/>
<path d="M104.06 380.25H79.87V403.63H104.06V380.25Z" stroke="#14009E" stroke-width="2"/>
<path d="M129.25 380.25H105.56V403.63H129.25V380.25Z" stroke="#14009E" stroke-width="2"/>
<path d="M154.94 380.25H130.75V403.63H154.94V380.25Z" stroke="#14009E" stroke-width="2"/>
<path d="M180.13 380.25H156.44V403.63H180.13V380.25Z" stroke="#14009E" stroke-width="2"/>
<path d="M205.81 380.25H181.62V403.63H205.81V380.25Z" stroke="#14009E" stroke-width="2"/>
<path d="M231 380.25H207.31V403.63H231V380.25Z" stroke="#14009E" stroke-width="2"/>
<path d="M53.19 405.63H29V429.01H53.19V405.63Z" stroke="#14009E" stroke-width="2"/>
<path d="M78.38 405.63H54.69V429.01H78.38V405.63Z" stroke="#14009E" stroke-width="2"/>
<path d="M104.06 405.63H79.87V429.01H104.06V405.63Z" stroke="#14009E" stroke-width="2"/>
<path d="M129.25 405.63H105.56V429.01H129.25V405.63Z" stroke="#14009E" stroke-width="2"/>
<path d="M154.94 405.63H130.75V429.01H154.94V405.63Z" stroke="#14009E" stroke-width="2"/>
<path d="M180.13 405.63H156.44V429.01H180.13V405.63Z" stroke="#14009E" stroke-width="2"/>
<path d="M205.81 405.63H181.62V429.01H205.81V405.63Z" stroke="#14009E" stroke-width="2"/>
<path d="M231 405.63H207.31V429.01H231V405.63Z" stroke="#14009E" stroke-width="2"/>
<path d="M256.19 228H232V251.38H256.19V228Z" stroke="#14009E" stroke-width="2"/>
<path d="M281.38 228H257.69V251.38H281.38V228Z" stroke="#14009E" stroke-width="2"/>
<path d="M307.06 228H282.87V251.38H307.06V228Z" stroke="#14009E" stroke-width="2"/>
<path d="M332.25 228H308.56V251.38H332.25V228Z" stroke="#14009E" stroke-width="2"/>
<path d="M357.94 228H333.75V251.38H357.94V228Z" stroke="#14009E" stroke-width="2"/>
<path d="M383.13 228H359.44V251.38H383.13V228Z" stroke="#14009E" stroke-width="2"/>
<path d="M408.81 228H384.62V251.38H408.81V228Z" stroke="#14009E" stroke-width="2"/>
<path d="M434 228H410.31V251.38H434V228Z" stroke="#14009E" stroke-width="2"/>
<path d="M256.19 253.38H232V276.76H256.19V253.38Z" stroke="#14009E" stroke-width="2"/>
<path d="M281.38 253.38H257.69V276.76H281.38V253.38Z" stroke="#14009E" stroke-width="2"/>
<path d="M307.06 253.38H282.87V276.76H307.06V253.38Z" stroke="#14009E" stroke-width="2"/>
<path d="M332.25 253.38H308.56V276.76H332.25V253.38Z" stroke="#14009E" stroke-width="2"/>
<path d="M357.94 253.38H333.75V276.76H357.94V253.38Z" stroke="#14009E" stroke-width="2"/>
<path d="M383.13 253.38H359.44V276.76H383.13V253.38Z" stroke="#14009E" stroke-width="2"/>
<path d="M408.81 253.38H384.62V276.76H408.81V253.38Z" stroke="#14009E" stroke-width="2"/>
<path d="M434 253.38H410.31V276.76H434V253.38Z" stroke="#14009E" stroke-width="2"/>
<path d="M256.19 278.75H232V302.13H256.19V278.75Z" stroke="#14009E" stroke-width="2"/>
<path d="M281.38 278.75H257.69V302.13H281.38V278.75Z" stroke="#14009E" stroke-width="2"/>
<path d="M307.06 278.75H282.87V302.13H307.06V278.75Z" stroke="#14009E" stroke-width="2"/>
<path d="M332.25 278.75H308.56V302.13H332.25V278.75Z" stroke="#14009E" stroke-width="2"/>
<path d="M357.94 278.75H333.75V302.13H357.94V278.75Z" stroke="#14009E" stroke-width="2"/>
<path d="M383.13 278.75H359.44V302.13H383.13V278.75Z" stroke="#14009E" stroke-width="2"/>
<path d="M408.81 278.75H384.62V302.13H408.81V278.75Z" stroke="#14009E" stroke-width="2"/>
<path d="M434 278.75H410.31V302.13H434V278.75Z" stroke="#14009E" stroke-width="2"/>
<path d="M256.19 304.13H232V327.51H256.19V304.13Z" stroke="#14009E" stroke-width="2"/>
<path d="M281.38 304.13H257.69V327.51H281.38V304.13Z" stroke="#14009E" stroke-width="2"/>
<path d="M307.06 304.13H282.87V327.51H307.06V304.13Z" stroke="#14009E" stroke-width="2"/>
<path d="M332.25 304.13H308.56V327.51H332.25V304.13Z" stroke="#14009E" stroke-width="2"/>
<path d="M357.94 304.13H333.75V327.51H357.94V304.13Z" stroke="#14009E" stroke-width="2"/>
<path d="M383.13 304.13H359.44V327.51H383.13V304.13Z" stroke="#14009E" stroke-width="2"/>
<path d="M408.81 304.13H384.62V327.51H408.81V304.13Z" stroke="#14009E" stroke-width="2"/>
<path d="M434 304.13H410.31V327.51H434V304.13Z" stroke="#14009E" stroke-width="2"/>
<path d="M256.19 329.5H232V352.88H256.19V329.5Z" stroke="#14009E" stroke-width="2"/>
<path d="M281.38 329.5H257.69V352.88H281.38V329.5Z" stroke="#14009E" stroke-width="2"/>
<path d="M307.06 329.5H282.87V352.88H307.06V329.5Z" stroke="#14009E" stroke-width="2"/>
<path d="M332.25 329.5H308.56V352.88H332.25V329.5Z" stroke="#14009E" stroke-width="2"/>
<path d="M357.94 329.5H333.75V352.88H357.94V329.5Z" stroke="#14009E" stroke-width="2"/>
<path d="M383.13 329.5H359.44V352.88H383.13V329.5Z" stroke="#14009E" stroke-width="2"/>
<path d="M408.81 329.5H384.62V352.88H408.81V329.5Z" stroke="#14009E" stroke-width="2"/>
<path d="M434 329.5H410.31V352.88H434V329.5Z" stroke="#14009E" stroke-width="2"/>
<path d="M256.19 354.88H232V378.26H256.19V354.88Z" stroke="#14009E" stroke-width="2"/>
<path d="M281.38 354.88H257.69V378.26H281.38V354.88Z" stroke="#14009E" stroke-width="2"/>
<path d="M307.06 354.88H282.87V378.26H307.06V354.88Z" stroke="#14009E" stroke-width="2"/>
<path d="M332.25 354.88H308.56V378.26H332.25V354.88Z" stroke="#14009E" stroke-width="2"/>
<path d="M357.94 354.88H333.75V378.26H357.94V354.88Z" stroke="#14009E" stroke-width="2"/>
<path d="M383.13 354.88H359.44V378.26H383.13V354.88Z" stroke="#14009E" stroke-width="2"/>
<path d="M408.81 354.88H384.62V378.26H408.81V354.88Z" stroke="#14009E" stroke-width="2"/>
<path d="M434 354.88H410.31V378.26H434V354.88Z" stroke="#14009E" stroke-width="2"/>
<path d="M256.19 380.25H232V403.63H256.19V380.25Z" stroke="#14009E" stroke-width="2"/>
<path d="M281.38 380.25H257.69V403.63H281.38V380.25Z" stroke="#14009E" stroke-width="2"/>
<path d="M307.06 380.25H282.87V403.63H307.06V380.25Z" stroke="#14009E" stroke-width="2"/>
<path d="M332.25 380.25H308.56V403.63H332.25V380.25Z" stroke="#14009E" stroke-width="2"/>
<path d="M357.94 380.25H333.75V403.63H357.94V380.25Z" stroke="#14009E" stroke-width="2"/>
<path d="M383.13 380.25H359.44V403.63H383.13V380.25Z" stroke="#14009E" stroke-width="2"/>
<path d="M408.81 380.25H384.62V403.63H408.81V380.25Z" stroke="#14009E" stroke-width="2"/>
<path d="M434 380.25H410.31V403.63H434V380.25Z" stroke="#14009E" stroke-width="2"/>
<path d="M256.19 405.63H232V429.01H256.19V405.63Z" stroke="#14009E" stroke-width="2"/>
<path d="M281.38 405.63H257.69V429.01H281.38V405.63Z" stroke="#14009E" stroke-width="2"/>
<path d="M307.06 405.63H282.87V429.01H307.06V405.63Z" stroke="#14009E" stroke-width="2"/>
<path d="M332.25 405.63H308.56V429.01H332.25V405.63Z" stroke="#14009E" stroke-width="2"/>
<path d="M357.94 405.63H333.75V429.01H357.94V405.63Z" stroke="#14009E" stroke-width="2"/>
<path d="M383.13 405.63H359.44V429.01H383.13V405.63Z" stroke="#14009E" stroke-width="2"/>
<path d="M408.81 405.63H384.62V429.01H408.81V405.63Z" stroke="#14009E" stroke-width="2"/>
<path d="M434 405.63H410.31V429.01H434V405.63Z" stroke="#14009E" stroke-width="2"/>
<path d="M435 25H28V430H435V25Z" stroke="#14009E" stroke-width="4"/>
<g filter="url(#filter0_d)">
<path d="M231.14 378.72C314.596 378.72 382.25 310.954 382.25 227.36C382.25 143.766 314.596 76 231.14 76C147.684 76 80.0303 143.766 80.0303 227.36C80.0303 310.954 147.684 378.72 231.14 378.72Z" fill="#0D0D0D"/>
<path d="M381.75 227.36C381.75 310.678 314.319 378.22 231.14 378.22C147.961 378.22 80.5303 310.678 80.5303 227.36C80.5303 144.042 147.961 76.5 231.14 76.5C314.319 76.5 381.75 144.042 381.75 227.36Z" stroke="#1800C1"/>
</g>
<path d="M124.255 120.225C127.555 117.042 131.02 114.035 134.635 111.215C131.393 115.505 129.868 117.722 126.912 122.322C122.146 125.349 119.893 126.946 115.496 130.283C118.245 126.785 121.168 123.428 124.255 120.225V120.225Z" stroke="#1800C1" stroke-width="1.9"/>
<path d="M135.302 110.691C138.823 107.882 142.487 105.257 146.278 102.826C143.501 107.497 142.178 109.976 139.652 114.91C134.706 117.519 132.299 118.914 127.651 121.857C130.559 117.293 132.061 115.005 135.302 110.691Z" stroke="#1800C1" stroke-width="1.9"/>
<path d="M146.993 102.361C150.859 99.8238 154.857 97.4927 158.97 95.3773C156.67 100.394 155.561 102.992 153.464 108.319C148.113 110.607 145.503 111.895 140.438 114.492C142.929 109.487 144.24 107.056 146.993 102.361Z" stroke="#1800C1" stroke-width="1.9"/>
<path d="M159.732 94.984C163.768 92.8534 167.913 90.9361 172.15 89.2399C170.303 94.5431 169.409 97.284 167.729 102.897C162.235 104.744 159.542 105.757 154.286 107.974C156.36 102.623 157.456 100.025 159.732 94.984Z" stroke="#1800C1" stroke-width="1.9"/>
<path d="M172.96 88.9183C177.305 87.1161 181.745 85.5526 186.26 84.2348C184.878 89.7763 184.21 92.5768 182.947 98.4758C177.096 99.9178 174.224 100.752 168.646 102.611C170.255 97.0338 171.125 94.2333 172.96 88.9183Z" stroke="#1800C1" stroke-width="1.9"/>
<path d="M187.106 83.9845C191.567 82.6265 196.099 81.5086 200.68 80.6358C199.75 86.3441 199.297 89.2758 198.451 95.2939C192.493 96.2592 189.597 96.8551 183.853 98.2494C185.092 92.3861 185.747 89.5379 187.106 83.9845Z" stroke="#1800C1" stroke-width="1.9"/>
<path d="M201.55 80.4689C206.274 79.5026 211.048 78.8024 215.85 78.3715C215.386 84.1752 215.159 87.1664 214.742 93.2918C208.497 93.7923 205.411 94.1737 199.345 95.139C200.215 89.1089 200.644 86.1773 201.55 80.4689Z" stroke="#1800C1" stroke-width="1.9"/>
<path d="M216.804 78.2881C221.606 77.7929 226.432 77.5621 231.259 77.5969C231.259 83.4483 231.259 86.4514 231.259 92.6006C225.003 92.6006 221.904 92.7436 215.767 93.2084C216.148 87.083 216.363 84.0918 216.804 78.2881Z" stroke="#1800C1" stroke-width="1.9"/>
<path d="M114.793 131.188C119.226 127.875 121.526 126.302 126.293 123.311C123.385 127.935 122.003 130.318 119.417 135.228C114.28 137.826 111.79 139.197 106.987 142.057C109.395 138.298 112 134.67 114.793 131.188V131.188Z" stroke="#1800C1" stroke-width="1.9"/>
<path d="M127.032 122.846C131.715 119.939 134.182 118.556 139.116 115.97C136.625 120.987 135.433 123.573 133.157 128.865C127.806 131.117 125.208 132.309 120.155 134.823C122.777 129.901 124.148 127.494 127.032 122.846Z" stroke="#1800C1" stroke-width="1.9"/>
<path d="M139.902 115.565C145.003 112.955 147.636 111.728 153.011 109.463C150.937 114.826 149.948 117.579 148.101 123.228C142.345 125.182 139.533 126.243 134.063 128.519C136.255 123.252 137.435 120.606 139.902 115.565Z" stroke="#1800C1" stroke-width="1.9"/>
<path d="M153.845 109.118C159.136 106.925 161.842 105.924 167.371 104.101C165.703 109.738 164.916 112.645 163.427 118.568C157.54 120.153 154.644 121.023 148.995 122.918C150.818 117.293 151.795 114.492 153.845 109.118Z" stroke="#1800C1" stroke-width="1.9"/>
<path d="M168.241 103.815C173.902 101.979 176.798 101.157 182.685 99.7271C181.493 105.602 180.838 108.617 179.729 114.778C173.473 115.97 170.398 116.733 164.356 118.354C165.822 112.371 166.62 109.475 168.241 103.815Z" stroke="#1800C1" stroke-width="1.9"/>
<path d="M183.59 99.5126C189.37 98.1302 192.314 97.5463 198.272 96.581C197.438 102.623 197.081 105.721 196.294 112.073C189.966 112.908 186.844 113.42 180.695 114.612C181.791 108.415 182.363 105.376 183.59 99.5126Z" stroke="#1800C1" stroke-width="1.9"/>
<path d="M199.214 96.426C205.327 95.4727 208.426 95.1032 214.706 94.6027C214.289 100.74 214.098 103.898 213.717 110.333C207.067 110.762 203.778 111.084 197.307 111.918C198.022 105.578 198.404 102.48 199.214 96.426Z" stroke="#1800C1" stroke-width="1.9"/>
<path d="M215.672 94.5193C221.821 94.0545 224.943 93.9353 231.235 93.9234C231.235 100.108 231.235 103.278 231.235 109.749C224.574 109.749 221.273 109.857 214.754 110.262C215.088 103.827 215.278 100.669 215.672 94.5193Z" stroke="#1800C1" stroke-width="1.9"/>
<path d="M106.355 143.022C111.194 140.198 113.696 138.839 118.868 136.289C116.306 141.223 115.103 143.761 112.91 148.957C107.416 151.114 104.746 152.258 99.5864 154.653C101.639 150.662 103.899 146.779 106.355 143.022V143.022Z" stroke="#1800C1" stroke-width="1.9"/>
<path d="M119.667 135.884C124.743 133.405 127.365 132.225 132.776 130.009C130.571 135.336 129.546 138.065 127.639 143.654C121.955 145.525 119.178 146.514 113.78 148.623C115.937 143.403 117.128 140.853 119.667 135.884Z" stroke="#1800C1" stroke-width="1.9"/>
<path d="M133.586 129.663C139.092 127.411 141.928 126.374 147.708 124.431C145.873 130.104 145.027 133.012 143.442 138.947C137.328 140.579 134.337 141.461 128.509 143.356C130.392 137.743 131.417 135.002 133.586 129.663Z" stroke="#1800C1" stroke-width="1.9"/>
<path d="M148.602 124.133C154.286 122.262 157.194 121.404 163.117 119.843C161.639 125.802 160.96 128.841 159.685 135.061C153.44 136.384 150.377 137.111 144.383 138.696C145.944 132.785 146.79 129.83 148.602 124.133Z" stroke="#1800C1" stroke-width="1.9"/>
<path d="M164.046 119.593C170.112 118.02 173.199 117.317 179.539 116.101C178.442 122.286 177.93 125.444 176.976 131.903C170.362 132.928 167.109 133.524 160.721 134.859C161.925 128.626 162.604 125.564 164.046 119.593Z" stroke="#1800C1" stroke-width="1.9"/>
<path d="M180.468 115.911C186.641 114.719 189.776 114.23 196.139 113.408C195.4 119.76 195.055 123.001 194.411 129.627C187.738 130.318 184.437 130.748 177.954 131.737C178.883 125.278 179.384 122.06 180.468 115.911Z" stroke="#1800C1" stroke-width="1.9"/>
<path d="M197.14 113.277C203.647 112.455 206.948 112.145 213.634 111.704C213.264 118.163 213.086 121.464 212.764 128.185C205.768 128.555 202.3 128.817 195.472 129.508C196.092 122.894 196.413 119.677 197.14 113.277Z" stroke="#1800C1" stroke-width="1.9"/>
<path d="M214.659 111.644C221.213 111.251 224.526 111.144 231.212 111.132C231.212 117.627 231.212 120.94 231.212 127.697C224.204 127.697 220.736 127.792 213.86 128.138C214.158 121.404 214.289 118.103 214.659 111.644Z" stroke="#1800C1" stroke-width="1.9"/>
<path d="M99.0382 155.678C104.222 153.295 106.904 152.198 112.421 150.065C110.228 155.285 109.227 157.966 107.404 163.412C101.612 165.152 98.7879 166.058 93.3298 167.977C95.0119 163.778 96.9174 159.673 99.0382 155.678V155.678Z" stroke="#1800C1" stroke-width="1.9"/>
<path d="M113.279 149.743C118.701 147.67 121.49 146.693 127.198 144.846C125.327 150.459 124.457 153.319 122.896 159.146C116.938 160.648 113.982 161.446 108.298 163.126C110.109 157.668 111.098 154.987 113.279 149.743Z" stroke="#1800C1" stroke-width="1.9"/>
<path d="M128.104 144.559C133.967 142.688 136.97 141.819 143.096 140.21C141.535 146.168 140.82 149.207 139.521 155.404C133.121 156.715 129.987 157.418 123.85 158.979C125.387 153.045 126.245 150.184 128.104 144.559Z" stroke="#1800C1" stroke-width="1.9"/>
<path d="M144.049 139.936C150.067 138.374 153.154 137.659 159.411 136.36C158.219 142.593 157.587 145.775 156.538 152.258C150.008 153.307 146.79 153.891 140.498 155.166C141.797 148.993 142.5 145.894 144.049 139.936Z" stroke="#1800C1" stroke-width="1.9"/>
<path d="M160.4 136.194C166.823 134.883 170.088 134.299 176.726 133.274C175.785 139.745 175.356 143.046 174.569 149.755C167.657 150.59 164.249 151.066 157.563 152.139C158.6 145.632 159.172 142.438 160.4 136.194Z" stroke="#1800C1" stroke-width="1.9"/>
<path d="M177.751 133.119C184.27 132.142 187.571 131.725 194.28 131.045C193.649 137.683 193.351 141.056 192.826 147.932C185.855 148.492 182.423 148.838 175.642 149.636C176.404 142.915 176.833 139.602 177.751 133.119Z" stroke="#1800C1" stroke-width="1.9"/>
<path d="M195.341 130.938C202.193 130.247 205.673 129.985 212.704 129.627C212.382 136.372 212.239 139.805 211.977 146.788C204.672 147.086 201.061 147.3 193.935 147.849C194.447 140.96 194.721 137.552 195.341 130.938Z" stroke="#1800C1" stroke-width="1.9"/>
<path d="M213.789 129.58C220.677 129.246 224.168 129.151 231.2 129.151C231.2 135.931 231.2 139.387 231.2 146.395C223.894 146.395 220.283 146.478 213.121 146.74C213.36 139.757 213.491 136.36 213.789 129.58Z" stroke="#1800C1" stroke-width="1.9"/>
<path d="M92.8889 169.061C98.3708 167.178 101.231 166.285 107.011 164.592C105.223 170.062 104.413 172.863 103.007 178.547C96.9765 179.846 94.0449 180.537 88.3485 181.979C89.6346 177.597 91.1501 173.285 92.8889 169.061V169.061Z" stroke="#1800C1" stroke-width="1.9"/>
<path d="M107.916 164.33C113.625 162.674 116.556 161.887 122.563 160.421C121.025 166.285 120.334 169.276 119.119 175.353C112.91 176.486 109.871 177.081 103.948 178.345C105.342 172.636 106.129 169.824 107.916 164.33Z" stroke="#1800C1" stroke-width="1.9"/>
<path d="M123.504 160.195C129.653 158.705 132.811 158.014 139.235 156.727C137.96 162.936 137.376 166.106 136.375 172.529C129.725 173.506 126.471 174.043 120.108 175.187C121.335 169.085 121.979 166.082 123.504 160.195Z" stroke="#1800C1" stroke-width="1.9"/>
<path d="M140.236 156.524C146.54 155.333 149.77 154.713 156.312 153.676C155.287 160.171 154.822 163.484 154.024 170.193C147.255 170.98 143.93 171.385 137.34 172.374C138.401 165.927 138.961 162.757 140.236 156.524Z" stroke="#1800C1" stroke-width="1.9"/>
<path d="M157.349 153.521C164.058 152.472 167.467 152.008 174.402 151.138C173.628 157.871 173.282 161.291 172.686 168.227C165.536 168.847 161.961 169.204 155.085 170.003C155.895 163.341 156.336 160.028 157.349 153.521Z" stroke="#1800C1" stroke-width="1.9"/>
<path d="M175.475 151.078C182.28 150.292 185.724 149.958 192.719 149.41C192.207 156.31 191.968 159.813 191.527 166.916C184.377 167.333 180.802 167.595 173.759 168.191C174.378 161.244 174.724 157.811 175.475 151.078Z" stroke="#1800C1" stroke-width="1.9"/>
<path d="M193.827 149.326C200.978 148.778 204.553 148.576 211.918 148.289C211.667 155.285 211.548 158.848 211.346 166.058C203.802 166.273 200.072 166.439 192.707 166.856C193.1 159.742 193.327 156.226 193.827 149.326Z" stroke="#1800C1" stroke-width="1.9"/>
<path d="M213.097 148.278C220.248 148.015 223.906 147.944 231.235 147.944C231.235 154.975 231.235 158.55 231.235 165.82C223.704 165.82 219.962 165.879 212.573 166.082C212.704 158.812 212.811 155.249 213.097 148.278Z" stroke="#1800C1" stroke-width="1.9"/>
<path d="M87.9671 183.1C93.6754 181.705 96.619 181.038 102.661 179.763C101.291 185.471 100.707 188.379 99.7413 194.266C93.5324 195.136 90.5055 195.601 84.6422 196.566C85.5085 192.021 86.6184 187.526 87.9671 183.1V183.1Z" stroke="#1800C1" stroke-width="1.9"/>
<path d="M103.65 179.572C109.609 178.38 112.636 177.761 118.868 176.664C117.677 182.754 117.188 185.853 116.354 192.157C109.966 192.919 106.82 193.348 100.742 194.159C101.708 188.224 102.268 185.304 103.65 179.572Z" stroke="#1800C1" stroke-width="1.9"/>
<path d="M119.857 176.486C126.233 175.377 129.498 174.865 136.16 173.9C135.183 180.347 134.766 183.612 134.075 190.238C127.246 190.905 123.909 191.251 117.391 192.014C118.189 185.71 118.69 182.599 119.857 176.486Z" stroke="#1800C1" stroke-width="1.9"/>
<path d="M137.197 173.757C143.728 172.827 147.064 172.398 153.881 171.623C153.094 178.357 152.761 181.765 152.201 188.677C145.265 189.213 141.857 189.499 135.159 190.143C135.803 183.493 136.22 180.216 137.197 173.757Z" stroke="#1800C1" stroke-width="1.9"/>
<path d="M154.918 171.504C161.865 170.73 165.393 170.384 172.555 169.776C171.971 176.736 171.709 180.263 171.363 187.414C164.034 187.831 160.424 188.069 153.321 188.605C153.809 181.646 154.143 178.249 154.918 171.504Z" stroke="#1800C1" stroke-width="1.9"/>
<path d="M173.663 169.729C180.695 169.145 184.258 168.894 191.539 168.537C191.146 175.687 190.979 179.262 190.693 186.591C183.316 186.865 179.682 187.044 172.496 187.437C172.841 180.192 173.091 176.652 173.663 169.729Z" stroke="#1800C1" stroke-width="1.9"/>
<path d="M192.624 168.382C200 167.977 203.742 167.81 211.298 167.607C211.107 174.829 211.024 178.5 210.881 185.912C203.17 186.067 199.345 186.174 191.813 186.448C192.076 179.131 192.242 175.508 192.624 168.382Z" stroke="#1800C1" stroke-width="1.9"/>
<path d="M212.466 167.572C219.878 167.369 223.62 167.321 231.176 167.321C231.176 174.579 231.176 178.261 231.176 185.721C223.477 185.721 219.652 185.721 212.108 185.9C212.204 178.476 212.287 174.805 212.466 167.572Z" stroke="#1800C1" stroke-width="1.9"/>
<path d="M84.4516 197.734C90.3386 196.816 93.3656 196.375 99.5864 195.529C98.6568 201.488 98.2874 204.443 97.7988 210.509C91.4827 210.95 88.408 211.188 82.4256 211.701C82.8489 207.012 83.5252 202.35 84.4516 197.734V197.734Z" stroke="#1800C1" stroke-width="1.9"/>
<path d="M100.552 195.41C106.653 194.588 109.787 194.218 116.175 193.479C115.377 199.784 115.067 203.013 114.638 209.437C108.155 209.818 104.973 210.021 98.776 210.45C99.2646 204.348 99.6221 201.333 100.552 195.41Z" stroke="#1800C1" stroke-width="1.9"/>
<path d="M117.188 193.372C123.742 192.633 127.091 192.3 133.872 191.668C133.205 198.306 132.943 201.678 132.585 208.483C125.661 208.805 122.265 208.984 115.615 209.377C116.092 202.894 116.401 199.688 117.188 193.372Z" stroke="#1800C1" stroke-width="1.9"/>
<path d="M134.98 191.561C141.69 190.953 145.11 190.667 152.058 190.167C151.521 197.09 151.319 200.594 151.033 207.685C143.99 207.959 140.522 208.102 133.717 208.424C134.075 201.607 134.325 198.223 134.98 191.561Z" stroke="#1800C1" stroke-width="1.9"/>
<path d="M153.154 190.083C160.304 189.571 163.879 189.344 171.209 188.891C170.815 196.042 170.66 199.617 170.446 206.994C163.01 207.208 159.351 207.327 152.141 207.601C152.427 200.546 152.63 197.031 153.154 190.083Z" stroke="#1800C1" stroke-width="1.9"/>
<path d="M172.353 188.879C179.503 188.498 183.197 188.331 190.574 188.057C190.312 195.386 190.205 199.092 190.062 206.588C182.578 206.731 178.883 206.815 171.59 207.017C171.804 199.676 171.959 196.054 172.353 188.879Z" stroke="#1800C1" stroke-width="1.9"/>
<path d="M191.742 188.021C199.297 187.747 203.123 187.64 210.809 187.509C210.666 194.933 210.619 198.699 210.547 206.29C202.718 206.362 198.844 206.422 191.194 206.565C191.384 199.069 191.492 195.35 191.742 188.021Z" stroke="#1800C1" stroke-width="1.9"/>
<path d="M212.049 187.485C219.616 187.354 223.453 187.318 231.116 187.318C231.116 194.79 231.116 198.568 231.116 206.195C223.31 206.195 219.437 206.195 211.763 206.278C211.906 198.687 211.906 194.921 212.049 187.485Z" stroke="#1800C1" stroke-width="1.9"/>
<path d="M82.3064 212.881C88.265 212.428 91.3754 212.213 97.6915 211.808C97.2267 217.898 97.1076 220.972 97.0957 227.193H81.6033C81.5793 222.413 81.814 217.635 82.3064 212.881V212.881Z" stroke="#1800C1" stroke-width="1.9"/>
<path d="M98.6926 211.749C104.901 211.355 108.083 211.165 114.578 210.819C114.185 217.29 114.078 220.567 114.066 227.169H98.1086C98.0848 220.972 98.2159 217.862 98.6926 211.749Z" stroke="#1800C1" stroke-width="1.9"/>
<path d="M115.579 210.759C122.241 210.402 125.637 210.235 132.573 209.937C132.239 216.754 132.156 220.198 132.144 227.157H115.079C115.091 220.543 115.186 217.254 115.579 210.759Z" stroke="#1800C1" stroke-width="1.9"/>
<path d="M133.646 209.889C140.45 209.592 143.918 209.449 150.973 209.21C150.699 216.361 150.64 219.936 150.628 227.146H133.252C133.252 220.186 133.324 216.718 133.646 209.889Z" stroke="#1800C1" stroke-width="1.9"/>
<path d="M152.081 209.174C159.232 208.924 162.962 208.805 170.398 208.614C170.207 215.943 170.148 219.661 170.148 227.122H151.748C151.748 219.888 151.819 216.289 152.081 209.174Z" stroke="#1800C1" stroke-width="1.9"/>
<path d="M171.554 208.59C178.847 208.4 182.554 208.316 190.038 208.185C189.907 215.693 189.871 219.483 189.859 227.122H171.304C171.304 219.638 171.387 215.931 171.554 208.59Z" stroke="#1800C1" stroke-width="1.9"/>
<path d="M191.217 208.161C198.868 208.042 202.753 207.983 210.583 207.923C210.511 215.526 210.499 219.364 210.488 227.11H191.051C191.051 219.471 191.086 215.681 191.217 208.161Z" stroke="#1800C1" stroke-width="1.9"/>
<path d="M211.786 207.863C219.461 207.863 223.346 207.78 231.152 207.78V227.062H211.715C211.715 219.364 211.727 215.514 211.786 207.863Z" stroke="#1800C1" stroke-width="1.9"/>
<path d="M231.879 77.5969C236.81 77.5643 241.739 77.803 246.644 78.3119C247.085 84.1275 247.3 87.1068 247.705 93.2322C241.46 92.7436 238.29 92.6125 231.903 92.6006C231.891 86.4513 231.891 83.4482 231.879 77.5969Z" stroke="#1800C1" stroke-width="1.9"/>
<path d="M247.538 78.4073C252.256 78.8362 256.946 79.5244 261.588 80.469C262.494 86.1773 262.923 89.1089 263.745 95.139C257.787 94.1856 254.784 93.8162 248.67 93.3157C248.241 87.1902 248.015 84.2109 247.538 78.4073Z" stroke="#1800C1" stroke-width="1.9"/>
<path d="M262.458 80.6358C267.136 81.5308 271.763 82.6765 276.318 84.068C277.688 89.6094 278.344 92.41 279.583 98.3686C273.732 96.9385 270.741 96.3307 264.687 95.3416C263.841 89.2758 263.388 86.3084 262.458 80.6358Z" stroke="#1800C1" stroke-width="1.9"/>
<path d="M277.164 84.3182C281.581 85.6189 285.925 87.1544 290.178 88.9182C292.013 94.2333 292.883 96.9742 294.539 102.611C289.034 100.788 286.197 99.9773 280.489 98.5473C279.226 92.7079 278.558 89.8835 277.164 84.3182Z" stroke="#1800C1" stroke-width="1.9"/>
<path d="M290.988 89.2399C295.317 90.9699 299.549 92.9312 303.668 95.1151C305.956 100.144 307.052 102.742 309.138 108.093C303.775 105.817 301.034 104.78 295.421 102.897C293.729 97.284 292.835 94.5431 290.988 89.2399Z" stroke="#1800C1" stroke-width="1.9"/>
<path d="M304.419 95.5203C308.445 97.5926 312.359 99.8759 316.145 102.361C318.898 107.056 320.209 109.511 322.7 114.492C317.742 111.906 315.18 110.691 309.96 108.439C307.851 103.112 306.743 100.526 304.419 95.5203Z" stroke="#1800C1" stroke-width="1.9"/>
<path d="M316.86 102.826C320.735 105.306 324.474 107.991 328.062 110.87C331.28 115.172 332.829 117.4 335.737 122.012C330.97 118.997 328.587 117.579 323.486 114.862C320.96 109.916 319.637 107.497 316.86 102.826Z" stroke="#1800C1" stroke-width="1.9"/>
<path d="M328.694 111.394C332.228 114.161 335.617 117.108 338.847 120.225C341.934 123.428 344.857 126.785 347.606 130.283C343.292 127.017 341.052 125.444 336.428 122.477C333.52 117.889 331.971 115.672 328.694 111.394Z" stroke="#1800C1" stroke-width="1.9"/>
<path d="M231.903 93.9234C238.326 93.9234 241.508 94.0664 247.8 94.5431C248.193 100.692 248.384 103.85 248.742 110.286C242.092 109.869 238.719 109.749 231.915 109.749C231.915 103.278 231.915 100.108 231.903 93.9234Z" stroke="#1800C1" stroke-width="1.9"/>
<path d="M248.766 94.6505C254.903 95.151 257.942 95.5204 263.924 96.4499C264.735 102.504 265.116 105.602 265.843 111.942C259.503 111.132 256.309 110.81 249.778 110.381C249.397 103.922 249.195 100.764 248.766 94.6505Z" stroke="#1800C1" stroke-width="1.9"/>
<path d="M264.866 96.581C270.955 97.5582 273.958 98.166 279.857 99.5841C281.049 105.459 281.669 108.474 282.765 114.647C276.497 113.456 273.315 112.896 266.844 112.049C266.093 105.721 265.7 102.623 264.866 96.581Z" stroke="#1800C1" stroke-width="1.9"/>
<path d="M280.763 99.7985C286.519 101.205 289.355 102.015 294.897 103.815C296.541 109.475 297.28 112.371 298.782 118.318C292.823 116.769 289.856 116.065 283.73 114.838C282.61 108.689 282.014 105.674 280.763 99.7985Z" stroke="#1800C1" stroke-width="1.9"/>
<path d="M295.767 104.101C301.416 105.96 304.18 106.997 309.567 109.237C311.629 114.6 312.606 117.365 314.441 123.025C308.685 121.083 305.73 120.189 299.711 118.568C298.222 112.645 297.435 109.738 295.767 104.101Z" stroke="#1800C1" stroke-width="1.9"/>
<path d="M310.401 109.583C315.668 111.799 318.243 113.003 323.236 115.541C325.703 120.582 326.883 123.168 329.075 128.495C323.713 126.267 320.96 125.23 315.335 123.299C313.476 117.686 312.487 114.91 310.401 109.583Z" stroke="#1800C1" stroke-width="1.9"/>
<path d="M324.022 115.97C329.111 118.616 331.578 120.022 336.357 123.001C339.253 127.637 340.623 130.032 343.197 134.919C338.037 132.332 335.379 131.117 329.921 128.817C327.705 123.573 326.513 120.987 324.022 115.97Z" stroke="#1800C1" stroke-width="1.9"/>
<path d="M337.096 123.466C341.755 126.398 344.007 127.947 348.345 131.188C351.138 134.671 353.743 138.298 356.151 142.057C351.456 139.256 349.001 137.91 343.984 135.371C341.398 130.462 340.015 128.078 337.096 123.466Z" stroke="#1800C1" stroke-width="1.9"/>
<path d="M231.927 111.132C238.755 111.132 242.14 111.251 248.825 111.668C249.183 118.127 249.349 121.428 249.647 128.15C242.64 127.804 239.089 127.709 231.938 127.697C231.938 120.94 231.927 117.627 231.927 111.132Z" stroke="#1800C1" stroke-width="1.9"/>
<path d="M249.862 111.728C256.392 112.157 259.622 112.478 265.998 113.277C266.713 119.641 267.046 122.894 267.666 129.508C260.981 128.841 257.584 128.567 250.732 128.209C250.41 121.488 250.231 118.187 249.862 111.728Z" stroke="#1800C1" stroke-width="1.9"/>
<path d="M266.999 113.408C273.494 114.242 276.699 114.767 283.003 115.97C284.088 122.167 284.588 125.337 285.53 131.796C278.916 130.771 275.543 130.33 268.727 129.627C268.083 123.001 267.738 119.76 266.999 113.408Z" stroke="#1800C1" stroke-width="1.9"/>
<path d="M283.969 116.161C290.13 117.353 293.157 118.056 299.092 119.593C300.534 125.552 301.213 128.626 302.464 134.859C296.208 133.548 293.026 132.976 286.555 131.951C285.601 125.504 285.077 122.346 283.969 116.161Z" stroke="#1800C1" stroke-width="1.9"/>
<path d="M300.021 119.843C306.075 121.44 309.043 122.322 314.834 124.241C316.646 129.913 317.504 132.833 319.077 138.78C312.951 137.147 309.829 136.396 303.453 135.061C302.178 128.841 301.499 125.79 300.021 119.843Z" stroke="#1800C1" stroke-width="1.9"/>
<path d="M315.728 124.539C321.389 126.433 324.154 127.458 329.552 129.663C331.721 135.002 332.746 137.743 334.629 143.356C328.92 141.497 326.001 140.627 320.018 139.03C318.433 133.107 317.563 130.199 315.728 124.539Z" stroke="#1800C1" stroke-width="1.9"/>
<path d="M330.398 130.009C335.892 132.261 338.561 133.477 343.745 135.967C346.284 140.913 347.475 143.463 349.704 148.671C344.198 146.514 341.362 145.501 335.558 143.594C333.628 138.065 332.591 135.336 330.398 130.009Z" stroke="#1800C1" stroke-width="1.9"/>
<path d="M344.544 136.42C349.597 138.935 352.052 140.257 356.783 143.022C359.247 146.779 361.515 150.661 363.576 154.653C358.523 152.27 355.901 151.185 350.538 149.064C348.31 143.88 347.106 141.342 344.544 136.42Z" stroke="#1800C1" stroke-width="1.9"/>
<path d="M231.938 129.21C239.089 129.21 242.664 129.306 249.719 129.651C250.017 136.396 250.16 139.84 250.41 146.824C243.105 146.538 239.411 146.466 231.95 146.454C231.95 139.388 231.95 135.932 231.938 129.21Z" stroke="#1800C1" stroke-width="1.9"/>
<path d="M250.803 129.651C257.68 130.009 261.088 130.271 267.797 130.938C268.417 137.576 268.691 140.961 269.203 147.849C262.22 147.312 258.693 147.098 251.542 146.8C251.232 139.828 251.125 136.36 250.803 129.651Z" stroke="#1800C1" stroke-width="1.9"/>
<path d="M268.858 131.045C275.71 131.737 279.083 132.166 285.733 133.179C286.662 139.65 287.091 142.963 287.866 149.672C280.942 148.862 277.426 148.48 270.312 147.932C269.787 141.056 269.489 137.683 268.858 131.045Z" stroke="#1800C1" stroke-width="1.9"/>
<path d="M286.757 133.333C293.252 134.335 296.458 134.907 302.738 136.194C303.93 142.438 304.538 145.632 305.575 152.127C299.02 151.09 295.695 150.613 288.891 149.803C288.176 143.094 287.711 139.805 286.757 133.333Z" stroke="#1800C1" stroke-width="1.9"/>
<path d="M303.727 136.36C310.127 137.683 313.261 138.41 319.41 140.019C320.96 145.978 321.675 149.028 322.986 155.237C316.562 153.926 313.285 153.331 306.611 152.258C305.551 145.811 304.979 142.629 303.727 136.36Z" stroke="#1800C1" stroke-width="1.9"/>
<path d="M320.352 140.293C326.31 141.878 329.302 142.677 335.034 144.56C336.893 150.184 337.751 153.068 339.3 158.932C333.342 157.454 330.231 156.751 323.963 155.464C322.652 149.279 321.925 146.24 320.352 140.293Z" stroke="#1800C1" stroke-width="1.9"/>
<path d="M335.94 144.846C341.779 146.728 344.615 147.729 350.157 149.851C352.326 155.082 353.327 157.764 355.15 163.246C349.346 161.518 346.355 160.695 340.242 159.17C338.68 153.319 337.811 150.459 335.94 144.846Z" stroke="#1800C1" stroke-width="1.9"/>
<path d="M351.003 150.184C356.401 152.27 359.023 153.366 364.112 155.678C366.233 159.673 368.138 163.778 369.82 167.977C364.469 166.106 361.716 165.212 356.056 163.508C354.209 158.062 353.196 155.428 351.003 150.184Z" stroke="#1800C1" stroke-width="1.9"/>
<path d="M231.95 147.908C239.434 147.908 243.141 147.98 250.47 148.254C250.708 155.261 250.827 158.824 251.018 166.034C243.474 165.82 239.661 165.772 231.95 165.76C231.962 158.514 231.962 154.939 231.95 147.908Z" stroke="#1800C1" stroke-width="1.9"/>
<path d="M251.602 148.278C258.752 148.564 262.327 148.766 269.311 149.303C269.811 156.203 270.038 159.718 270.431 166.833C263.221 166.428 259.562 166.261 252.186 166.046C251.983 158.86 251.864 155.297 251.602 148.278Z" stroke="#1800C1" stroke-width="1.9"/>
<path d="M270.419 149.469C277.569 150.029 281.144 150.375 288.021 151.174C288.783 157.907 289.129 161.339 289.725 168.287C282.574 167.667 278.928 167.405 271.575 166.976C271.17 159.813 270.931 156.31 270.419 149.469Z" stroke="#1800C1" stroke-width="1.9"/>
<path d="M289.093 151.245C295.874 152.044 299.223 152.437 305.777 153.521C306.79 160.028 307.243 163.341 308.042 170.062C301.261 169.288 297.805 168.93 290.809 168.322C290.213 161.387 289.868 157.966 289.093 151.245Z" stroke="#1800C1" stroke-width="1.9"/>
<path d="M306.826 153.676C313.511 154.737 316.801 155.321 323.248 156.596C324.511 162.817 325.083 165.987 326.084 172.422C319.422 171.445 316.026 171.004 309.114 170.193C308.316 163.484 307.851 160.195 306.826 153.676Z" stroke="#1800C1" stroke-width="1.9"/>
<path d="M324.237 156.798C330.529 157.99 333.604 158.741 339.634 160.195C341.159 166.082 341.839 169.085 343.03 175.187C336.798 174.066 333.616 173.542 327.109 172.577C326.096 166.153 325.524 162.995 324.237 156.798Z" stroke="#1800C1" stroke-width="1.9"/>
<path d="M340.611 160.421C346.748 161.923 349.74 162.721 355.567 164.414C357.343 169.907 358.141 172.756 359.548 178.416C353.506 177.117 350.395 176.509 344.055 175.353C342.804 169.276 342.113 166.285 340.611 160.421Z" stroke="#1800C1" stroke-width="1.9"/>
<path d="M356.425 164.676C362.11 166.344 364.874 167.226 370.249 169.061C371.988 173.285 373.503 177.597 374.79 181.979C369.212 180.561 366.34 179.894 360.489 178.619C359.035 172.934 358.225 170.146 356.425 164.676Z" stroke="#1800C1" stroke-width="1.9"/>
<path d="M231.962 167.345C239.673 167.345 243.498 167.405 251.03 167.607C251.22 174.841 251.292 178.5 251.435 185.924C243.713 185.781 239.804 185.745 231.938 185.745C231.974 178.261 231.974 174.579 231.962 167.345Z" stroke="#1800C1" stroke-width="1.9"/>
<path d="M252.233 167.619C259.622 167.822 263.281 167.977 270.514 168.382C270.896 175.532 271.062 179.107 271.337 186.448C263.948 186.174 260.206 186.067 252.662 185.924C252.519 178.511 252.424 174.841 252.233 167.619Z" stroke="#1800C1" stroke-width="1.9"/>
<path d="M290.952 169.812C297.972 170.408 301.428 170.741 308.22 171.504C308.995 178.249 309.329 181.67 309.877 188.593C302.917 188.081 299.39 187.843 292.216 187.402C291.751 180.287 291.548 176.76 290.952 169.812Z" stroke="#1800C1" stroke-width="1.9"/>
<path d="M309.293 171.623C316.217 172.422 319.625 172.815 326.287 173.804C327.264 180.251 327.681 183.541 328.372 190.178C321.532 189.523 318.052 189.225 310.973 188.677C310.413 181.765 310.079 178.357 309.293 171.623Z" stroke="#1800C1" stroke-width="1.9"/>
<path d="M327.323 173.947C333.842 174.889 337.036 175.401 343.281 176.486C344.472 182.599 344.949 185.709 345.771 191.978C339.372 191.239 336.094 190.893 329.421 190.238C328.694 183.66 328.313 180.382 327.323 173.947Z" stroke="#1800C1" stroke-width="1.9"/>
<path d="M344.27 176.664C350.633 177.785 353.744 178.38 359.762 179.632C361.121 185.364 361.705 188.272 362.67 194.183C356.449 193.313 353.255 192.907 346.737 192.133C345.95 185.853 345.449 182.754 344.27 176.664Z" stroke="#1800C1" stroke-width="1.9"/>
<path d="M360.739 179.834C366.698 181.026 369.534 181.729 375.123 183.1C376.472 187.526 377.582 192.021 378.448 196.566C372.704 195.625 369.749 195.172 363.671 194.314C362.706 188.427 362.122 185.531 360.739 179.834Z" stroke="#1800C1" stroke-width="1.9"/>
<path d="M271.658 168.441C279.035 168.859 282.67 169.109 289.844 169.717C290.428 176.676 290.678 180.216 291.036 187.366C283.707 186.961 279.988 186.782 272.457 186.496C272.218 179.179 272.052 175.568 271.658 168.441Z" stroke="#1800C1" stroke-width="1.9"/>
<path d="M231.974 187.318C239.851 187.318 243.76 187.318 251.495 187.485C251.626 194.921 251.673 198.687 251.745 206.29C243.915 206.219 239.959 206.195 231.986 206.195C231.974 198.568 231.974 194.755 231.974 187.318Z" stroke="#1800C1" stroke-width="1.9"/>
<path d="M252.686 187.509C260.254 187.652 263.996 187.759 271.396 188.021C271.646 195.35 271.754 199.069 271.897 206.565C264.401 206.422 260.611 206.374 252.948 206.302C252.877 198.699 252.829 194.945 252.686 187.509Z" stroke="#1800C1" stroke-width="1.9"/>
<path d="M272.564 188.057C280.096 188.331 283.826 188.498 291.167 188.903C291.56 196.054 291.715 199.7 291.929 207.029C284.493 206.815 280.715 206.731 273.077 206.588C272.934 199.092 272.826 195.386 272.564 188.057Z" stroke="#1800C1" stroke-width="1.9"/>
<path d="M292.311 188.963C299.461 189.356 303.036 189.583 309.984 190.083C310.508 197.031 310.711 200.546 310.997 207.649C303.942 207.387 300.355 207.268 293.121 207.053C292.859 199.736 292.704 196.113 292.311 188.963Z" stroke="#1800C1" stroke-width="1.9"/>
<path d="M311.08 190.167C318.231 190.679 321.663 190.965 328.515 191.597C329.171 198.258 329.421 201.631 329.778 208.447C322.843 208.114 319.303 207.959 312.105 207.685C311.819 200.594 311.617 197.138 311.08 190.167Z" stroke="#1800C1" stroke-width="1.9"/>
<path d="M329.564 191.692C336.249 192.312 339.527 192.657 345.95 193.372C346.737 199.688 347.046 202.906 347.463 209.377C340.957 208.996 337.632 208.817 330.851 208.495C330.493 201.69 330.231 198.33 329.564 191.692Z" stroke="#1800C1" stroke-width="1.9"/>
<path d="M346.963 193.479C353.494 194.218 356.687 194.612 362.92 195.446C363.838 201.404 364.195 204.384 364.696 210.461C358.368 210.032 355.162 209.818 348.5 209.437C348.071 202.977 347.761 199.784 346.963 193.479Z" stroke="#1800C1" stroke-width="1.9"/>
<path d="M363.873 195.577C369.951 196.399 372.919 196.828 378.686 197.734C379.612 202.338 380.288 206.988 380.712 211.665C374.861 211.188 371.846 210.962 365.673 210.533C365.172 204.467 364.815 201.476 363.873 195.577Z" stroke="#1800C1" stroke-width="1.9"/>
<path d="M231.986 207.864C239.959 207.864 243.903 207.864 251.757 207.947C251.816 215.562 251.84 219.399 251.84 227.145H231.986V207.864Z" stroke="#1800C1" stroke-width="1.9"/>
<path d="M252.972 207.923C260.623 207.995 264.425 208.042 271.921 208.161C272.052 215.681 272.087 219.471 272.087 227.122H253.02C253.056 219.375 253.032 215.526 252.972 207.923Z" stroke="#1800C1" stroke-width="1.9"/>
<path d="M273.1 208.185C280.751 208.316 284.529 208.4 291.977 208.59C292.168 215.931 292.215 219.65 292.227 227.122H273.279C273.267 219.483 273.231 215.693 273.1 208.185Z" stroke="#1800C1" stroke-width="1.9"/>
<path d="M293.121 208.626C300.403 208.817 303.99 208.924 311.057 209.174C311.319 216.325 311.39 219.9 311.39 227.134H293.383C293.371 219.661 293.324 215.955 293.121 208.626Z" stroke="#1800C1" stroke-width="1.9"/>
<path d="M312.165 209.21C319.315 209.46 322.89 209.603 329.85 209.901C330.184 216.73 330.267 220.186 330.279 227.157H312.51C312.498 219.9 312.439 216.313 312.165 209.21Z" stroke="#1800C1" stroke-width="1.9"/>
<path d="M330.922 209.949C337.703 210.247 341.04 210.414 347.607 210.759C348 217.254 348.095 220.543 348.107 227.169H331.423C331.34 220.21 331.256 216.766 330.922 209.949Z" stroke="#1800C1" stroke-width="1.9"/>
<path d="M348.584 210.819C355.222 211.176 358.463 211.367 364.803 211.772C365.256 217.874 365.375 220.96 365.387 227.193H349.096C349.084 220.567 348.953 217.29 348.584 210.819Z" stroke="#1800C1" stroke-width="1.9"/>
<path d="M365.78 211.832C371.953 212.225 374.968 212.44 380.832 212.881C381.317 217.631 381.54 222.406 381.499 227.181H366.376C366.364 220.972 366.233 217.91 365.78 211.832Z" stroke="#1800C1" stroke-width="1.9"/>
<path d="M81.6272 227.837H97.1195C97.1195 234.057 97.2506 237.132 97.7153 243.222C91.3992 242.817 88.3127 242.602 82.3303 242.149C81.8379 237.395 81.6032 232.617 81.6272 227.837V227.837Z" stroke="#1800C1" stroke-width="1.9"/>
<path d="M98.0848 227.861H114.042C114.042 234.463 114.161 237.74 114.554 244.211C108.059 243.865 104.878 243.675 98.6687 243.281C98.2159 237.192 98.0848 234.081 98.0848 227.861Z" stroke="#1800C1" stroke-width="1.9"/>
<path d="M115.079 227.884H132.144C132.144 234.844 132.239 238.288 132.573 245.105C125.637 244.807 122.241 244.64 115.579 244.282C115.186 237.799 115.091 234.51 115.079 227.884Z" stroke="#1800C1" stroke-width="1.9"/>
<path d="M133.252 227.896H150.651C150.651 235.142 150.723 238.729 150.997 245.832C143.942 245.593 140.474 245.45 133.669 245.152C133.324 238.336 133.252 234.868 133.252 227.896Z" stroke="#1800C1" stroke-width="1.9"/>
<path d="M151.748 227.92H170.196C170.196 235.38 170.196 239.098 170.446 246.427C163.01 246.237 159.339 246.118 152.129 245.867C151.819 238.765 151.748 235.166 151.748 227.92Z" stroke="#1800C1" stroke-width="1.9"/>
<path d="M171.304 227.932H189.859C189.859 235.571 189.859 239.361 190.038 246.868C182.554 246.737 178.847 246.654 171.554 246.463C171.387 239.122 171.304 235.416 171.304 227.932Z" stroke="#1800C1" stroke-width="1.9"/>
<path d="M191.051 227.932H210.488C210.488 235.678 210.488 239.516 210.583 247.119C202.753 247.119 198.868 246.999 191.217 246.88C191.086 239.373 191.051 235.583 191.051 227.932Z" stroke="#1800C1" stroke-width="1.9"/>
<path d="M211.715 227.944H231.152V247.19C223.346 247.19 219.461 247.19 211.786 247.107C211.727 239.539 211.715 235.69 211.715 227.944Z" stroke="#1800C1" stroke-width="1.9"/>
<path d="M82.4256 243.389C88.3842 243.865 91.4827 244.104 97.7988 244.58C98.2874 250.646 98.6568 253.649 99.5864 259.56C93.3656 258.714 90.3386 258.273 84.4516 257.355C83.5252 252.74 82.8489 248.077 82.4256 243.389V243.389Z" stroke="#1800C1" stroke-width="1.9"/>
<path d="M98.776 244.604C104.973 245.033 108.155 245.236 114.638 245.617C115.067 252.076 115.377 255.27 116.175 261.574C109.787 260.847 106.641 260.466 100.552 259.644C99.6221 253.721 99.2646 250.765 98.776 244.604Z" stroke="#1800C1" stroke-width="1.9"/>
<path d="M115.675 245.677C122.324 246.07 125.721 246.249 132.645 246.57C133.002 253.375 133.264 256.748 133.932 263.386C127.091 262.754 123.742 262.42 117.248 261.681C116.401 255.365 116.092 252.16 115.675 245.677Z" stroke="#1800C1" stroke-width="1.9"/>
<path d="M133.717 246.63C140.522 246.952 143.99 247.095 151.033 247.369C151.319 254.46 151.521 257.963 152.058 264.887C145.11 264.387 141.69 264.101 134.98 263.493C134.325 256.831 134.075 253.447 133.717 246.63Z" stroke="#1800C1" stroke-width="1.9"/>
<path d="M152.141 247.405C159.351 247.679 163.01 247.798 170.446 248.012C170.66 255.329 170.815 258.952 171.209 266.115C163.879 265.709 160.257 265.483 153.154 264.923C152.63 258.023 152.427 254.507 152.141 247.405Z" stroke="#1800C1" stroke-width="1.9"/>
<path d="M171.59 248.036C178.883 248.239 182.578 248.322 190.062 248.465C190.205 255.961 190.312 259.667 190.574 266.997C183.197 266.722 179.539 266.556 172.353 266.174C171.959 259 171.804 255.377 171.59 248.036Z" stroke="#1800C1" stroke-width="1.9"/>
<path d="M191.241 248.489C198.892 248.632 202.765 248.692 210.595 248.763C210.666 256.354 210.714 260.12 210.857 267.545C203.123 267.414 199.297 267.306 191.79 267.032C191.492 259.703 191.384 255.985 191.241 248.489Z" stroke="#1800C1" stroke-width="1.9"/>
<path d="M211.798 248.775C219.473 248.775 223.346 248.859 231.152 248.859C231.152 256.486 231.152 260.263 231.152 267.735C223.442 267.735 219.604 267.735 212.084 267.569C211.906 260.132 211.906 256.366 211.798 248.775Z" stroke="#1800C1" stroke-width="1.9"/>
<path d="M84.6899 258.488C90.5531 259.453 93.5801 259.918 99.7889 260.788C100.754 266.675 101.338 269.583 102.709 275.291C96.6667 274.016 93.7231 273.348 88.0148 271.954C86.6661 267.528 85.5562 263.033 84.6899 258.488V258.488Z" stroke="#1800C1" stroke-width="1.9"/>
<path d="M100.742 260.919C106.844 261.765 109.966 262.111 116.354 262.921C117.188 269.201 117.689 272.3 118.868 278.413C112.636 277.317 109.585 276.733 103.65 275.505C102.268 269.749 101.708 266.83 100.742 260.919Z" stroke="#1800C1" stroke-width="1.9"/>
<path d="M117.367 263.04C123.909 263.803 127.246 264.148 134.051 264.816C134.742 271.442 135.159 274.707 136.136 281.154C129.475 280.189 126.209 279.676 119.834 278.568C118.69 272.455 118.189 269.344 117.367 263.04Z" stroke="#1800C1" stroke-width="1.9"/>
<path d="M135.123 264.911C141.821 265.555 145.229 265.841 152.165 266.377C152.725 273.289 153.059 276.697 153.845 283.43C147.064 282.656 143.728 282.239 137.161 281.297C136.22 274.838 135.803 271.561 135.123 264.911Z" stroke="#1800C1" stroke-width="1.9"/>
<path d="M153.261 266.46C160.412 266.985 163.987 267.223 171.304 267.652C171.709 274.802 171.971 278.377 172.496 285.289C165.345 284.682 161.77 284.336 154.858 283.561C154.143 276.804 153.809 273.408 153.261 266.46Z" stroke="#1800C1" stroke-width="1.9"/>
<path d="M172.436 267.711C179.586 268.105 183.257 268.284 190.634 268.558C190.92 275.875 191.086 279.486 191.48 286.612C184.258 286.207 180.695 285.957 173.604 285.42C173.091 278.401 172.841 274.862 172.436 267.711Z" stroke="#1800C1" stroke-width="1.9"/>
<path d="M191.801 268.641C199.345 268.915 203.17 269.022 210.869 269.177C211.012 276.59 211.095 280.26 211.286 287.482C203.73 287.28 199.988 287.113 192.612 286.708C192.242 279.545 192.075 275.923 191.801 268.641Z" stroke="#1800C1" stroke-width="1.9"/>
<path d="M212.073 269.153C219.64 269.296 223.465 269.332 231.14 269.332C231.14 276.792 231.14 280.475 231.14 287.732C223.585 287.732 219.843 287.732 212.43 287.482C212.287 280.248 212.204 276.578 212.073 269.153Z" stroke="#1800C1" stroke-width="1.9"/>
<path d="M88.3485 273.074C94.0449 274.516 96.9765 275.207 103.007 276.506C104.413 282.191 105.223 284.991 107.011 290.461C101.195 288.769 98.3708 287.875 92.8889 285.992C91.1501 281.769 89.6346 277.457 88.3485 273.074V273.074Z" stroke="#1800C1" stroke-width="1.9"/>
<path d="M103.948 276.709C109.907 277.972 112.91 278.568 119.119 279.7C120.31 285.778 121.025 288.769 122.563 294.632C116.604 293.167 113.625 292.38 107.916 290.724C106.129 285.23 105.342 282.417 103.948 276.709Z" stroke="#1800C1" stroke-width="1.9"/>
<path d="M120.143 279.867C126.507 281.059 129.761 281.547 136.41 282.525C137.411 288.948 137.995 292.058 139.271 298.327C132.847 297.04 129.737 296.348 123.54 294.859C121.979 288.972 121.335 285.969 120.143 279.867Z" stroke="#1800C1" stroke-width="1.9"/>
<path d="M137.4 282.679C143.93 283.633 147.255 284.074 154.084 284.86C154.882 291.57 155.347 294.883 156.372 301.377C149.817 300.341 146.6 299.769 140.295 298.529C138.961 292.297 138.401 289.127 137.4 282.679Z" stroke="#1800C1" stroke-width="1.9"/>
<path d="M155.085 284.991C162.008 285.79 165.536 286.183 172.686 286.767C173.282 293.703 173.628 297.123 174.402 303.856C167.467 303.046 164.058 302.581 157.349 301.532C156.336 295.026 155.895 291.713 155.085 284.991Z" stroke="#1800C1" stroke-width="1.9"/>
<path d="M173.771 286.862C180.778 287.458 184.341 287.72 191.539 288.138C191.944 295.288 192.183 298.744 192.731 305.644C185.736 305.096 182.292 304.762 175.487 303.975C174.724 297.242 174.379 293.81 173.771 286.862Z" stroke="#1800C1" stroke-width="1.9"/>
<path d="M192.707 288.197C200.072 288.614 203.802 288.781 211.346 288.996C211.548 296.205 211.667 299.721 211.918 306.764C204.6 306.478 200.978 306.275 193.827 305.727C193.327 298.827 193.1 295.312 192.707 288.197Z" stroke="#1800C1" stroke-width="1.9"/>
<path d="M212.513 289.031C219.902 289.234 223.644 289.282 231.176 289.294C231.176 296.539 231.176 300.114 231.176 307.169C223.847 307.169 220.224 307.098 213.038 306.836C212.811 299.804 212.704 296.241 212.513 289.031Z" stroke="#1800C1" stroke-width="1.9"/>
<path d="M93.3298 287.077C98.7879 288.996 101.672 289.901 107.404 291.641C109.227 297.087 110.228 299.769 112.421 304.988C106.904 302.855 104.222 301.735 99.0382 299.375C96.9174 295.381 95.0119 291.275 93.3298 287.077V287.077Z" stroke="#1800C1" stroke-width="1.9"/>
<path d="M108.298 291.903C113.982 293.584 116.914 294.382 122.896 295.884C124.457 301.735 125.28 304.595 127.198 310.184C121.49 308.337 118.701 307.36 113.279 305.286C111.098 300.067 110.109 297.385 108.298 291.903Z" stroke="#1800C1" stroke-width="1.9"/>
<path d="M123.838 296.122C129.963 297.635 133.109 298.339 139.509 299.697C140.82 305.894 141.535 308.933 143.084 314.892C136.959 313.283 133.955 312.413 128.092 310.542C126.245 304.869 125.387 302.009 123.838 296.122Z" stroke="#1800C1" stroke-width="1.9"/>
<path d="M140.498 299.852C146.79 301.127 150.032 301.711 156.538 302.76C157.587 309.243 158.159 312.425 159.411 318.657C153.154 317.358 150.067 316.643 144.049 315.082C142.5 309.159 141.797 306.061 140.498 299.852Z" stroke="#1800C1" stroke-width="1.9"/>
<path d="M157.563 302.927C164.249 303.987 167.657 304.464 174.569 305.31C175.356 312.02 175.761 315.321 176.726 321.792C170.088 320.767 166.823 320.183 160.4 318.872C159.172 312.615 158.6 309.422 157.563 302.927Z" stroke="#1800C1" stroke-width="1.9"/>
<path d="M175.642 305.417C182.423 306.216 185.855 306.609 192.826 307.122C193.351 313.998 193.649 317.37 194.28 324.008C187.571 323.329 184.27 322.912 177.751 321.935C176.833 315.452 176.404 312.139 175.642 305.417Z" stroke="#1800C1" stroke-width="1.9"/>
<path d="M193.935 307.205C201.085 307.753 204.66 307.968 211.977 308.266C212.239 315.249 212.382 318.681 212.704 325.426C205.673 325.069 202.193 324.807 195.341 324.115C194.721 317.501 194.447 314.093 193.935 307.205Z" stroke="#1800C1" stroke-width="1.9"/>
<path d="M213.097 308.313C220.248 308.576 223.823 308.647 231.176 308.659C231.176 315.666 231.176 319.122 231.176 325.903C224.145 325.903 220.653 325.808 213.765 325.474C213.491 318.693 213.36 315.297 213.097 308.313Z" stroke="#1800C1" stroke-width="1.9"/>
<path d="M99.5625 300.4C104.723 302.784 107.392 303.975 112.886 306.097C115.103 311.293 116.306 313.831 118.845 318.765C113.672 316.214 111.17 314.856 106.331 312.031C103.875 308.274 101.616 304.392 99.5625 300.4V300.4Z" stroke="#1800C1" stroke-width="1.9"/>
<path d="M113.744 306.43C119.142 308.54 121.919 309.529 127.604 311.4C129.51 316.989 130.535 319.742 132.74 325.045C127.365 322.828 124.744 321.649 119.631 319.17C117.128 314.2 115.937 311.65 113.744 306.43Z" stroke="#1800C1" stroke-width="1.9"/>
<path d="M128.485 311.698C134.313 313.593 137.304 314.474 143.418 316.107C145.003 322.066 145.801 324.95 147.684 330.622C141.904 328.68 139.068 327.643 133.562 325.391C131.417 320.052 130.392 317.311 128.485 311.698Z" stroke="#1800C1" stroke-width="1.9"/>
<path d="M144.383 316.31C150.342 317.895 153.44 318.622 159.685 319.885C160.96 326.106 161.639 329.156 163.117 335.103C157.158 333.542 154.286 332.72 148.602 330.813C146.79 325.224 145.944 322.268 144.383 316.31Z" stroke="#1800C1" stroke-width="1.9"/>
<path d="M160.662 320.195C167.049 321.529 170.303 322.125 176.917 323.15C177.87 329.609 178.383 332.767 179.479 338.952C173.187 337.761 170.1 337.034 163.987 335.461C162.604 329.49 161.925 326.427 160.662 320.195Z" stroke="#1800C1" stroke-width="1.9"/>
<path d="M177.954 323.317C184.437 324.306 187.738 324.735 194.411 325.426C195.055 332.052 195.4 335.294 196.139 341.646C189.776 340.823 186.606 340.323 180.468 339.143C179.384 332.994 178.883 329.776 177.954 323.317Z" stroke="#1800C1" stroke-width="1.9"/>
<path d="M195.472 325.546C202.3 326.237 205.768 326.499 212.764 326.868C213.086 333.59 213.264 336.891 213.634 343.35C206.948 342.909 203.647 342.599 197.14 341.777C196.413 335.377 196.092 332.16 195.472 325.546Z" stroke="#1800C1" stroke-width="1.9"/>
<path d="M213.848 326.916C220.724 327.262 224.192 327.345 231.2 327.357C231.2 334.114 231.2 337.427 231.2 343.922C224.514 343.922 221.201 343.803 214.647 343.409C214.289 336.95 214.158 333.649 213.848 326.916Z" stroke="#1800C1" stroke-width="1.9"/>
<path d="M107.035 312.997C111.801 315.857 114.328 317.227 119.464 319.825C122.05 324.735 123.433 327.119 126.34 331.742C121.574 328.751 119.274 327.178 114.84 323.865C112.048 320.383 109.442 316.755 107.035 312.997Z" stroke="#1800C1" stroke-width="1.9"/>
<path d="M120.215 320.219C125.268 322.745 127.866 323.937 133.217 326.177C135.433 331.468 136.625 334.054 139.175 339.072C134.194 336.486 131.775 335.103 127.091 332.195C124.148 327.56 122.777 325.152 120.215 320.219Z" stroke="#1800C1" stroke-width="1.9"/>
<path d="M134.063 326.535C139.533 328.811 142.345 329.871 148.101 331.826C149.948 337.475 150.937 340.228 153.011 345.59C147.636 343.326 145.003 342.099 139.902 339.489C137.435 334.448 136.255 331.862 134.063 326.535Z" stroke="#1800C1" stroke-width="1.9"/>
<path d="M148.995 332.136C154.644 334.031 157.54 334.9 163.427 336.485C164.916 342.444 165.703 345.316 167.371 350.953C161.842 349.13 159.136 348.129 153.845 345.936C151.795 340.561 150.818 337.761 148.995 332.136Z" stroke="#1800C1" stroke-width="1.9"/>
<path d="M164.356 336.736C170.398 338.321 173.473 339.036 179.729 340.311C180.838 346.472 181.433 349.487 182.685 355.362C176.798 353.932 173.902 353.11 168.241 351.275C166.62 345.578 165.822 342.683 164.356 336.736Z" stroke="#1800C1" stroke-width="1.9"/>
<path d="M180.695 340.466C186.844 341.658 189.966 342.17 196.294 343.004C197.045 349.332 197.486 352.431 198.272 358.497C192.314 357.531 189.37 356.947 183.59 355.565C182.363 349.678 181.791 346.639 180.695 340.466Z" stroke="#1800C1" stroke-width="1.9"/>
<path d="M197.295 343.135C203.766 343.97 207.055 344.327 213.705 344.72C214.087 351.156 214.277 354.314 214.694 360.451C208.426 359.95 205.327 359.581 199.202 358.628C198.404 352.574 198.022 349.475 197.295 343.135Z" stroke="#1800C1" stroke-width="1.9"/>
<path d="M214.742 344.792C221.261 345.197 224.562 345.304 231.223 345.304C231.223 351.775 231.223 354.945 231.223 361.13C224.931 361.13 221.809 360.999 215.66 360.534C215.278 354.445 215.088 351.227 214.742 344.792Z" stroke="#1800C1" stroke-width="1.9"/>
<path d="M115.496 324.771C119.893 328.108 122.181 329.705 126.912 332.732C129.856 337.332 131.393 339.548 134.635 343.838C131.02 341.019 127.555 338.011 124.255 334.829C121.168 331.625 118.245 328.268 115.496 324.771V324.771Z" stroke="#1800C1" stroke-width="1.9"/>
<path d="M127.651 333.196C132.299 336.14 134.706 337.534 139.652 340.144C142.178 345.137 143.501 347.556 146.278 352.228C142.487 349.797 138.823 347.171 135.302 344.363C132.061 340.049 130.559 337.82 127.651 333.196Z" stroke="#1800C1" stroke-width="1.9"/>
<path d="M140.403 340.561C145.467 343.207 148.077 344.446 153.428 346.734C155.526 352.061 156.634 354.659 158.934 359.676C154.821 357.561 150.824 355.23 146.957 352.693C144.24 347.998 142.929 345.566 140.403 340.561Z" stroke="#1800C1" stroke-width="1.9"/>
<path d="M154.286 347.08C159.542 349.296 162.235 350.309 167.729 352.157C169.409 357.77 170.303 360.499 172.15 365.814C167.913 364.117 163.768 362.2 159.732 360.07C157.456 355.029 156.36 352.431 154.286 347.08Z" stroke="#1800C1" stroke-width="1.9"/>
<path d="M168.599 352.443C174.224 354.302 177.096 355.136 182.899 356.578C184.163 362.429 184.83 365.277 186.212 370.819C181.697 369.501 177.257 367.938 172.913 366.135C171.125 360.82 170.255 358.079 168.599 352.443Z" stroke="#1800C1" stroke-width="1.9"/>
<path d="M183.853 356.828C189.597 358.222 192.516 358.818 198.451 359.784C199.297 365.802 199.75 368.733 200.68 374.442C196.099 373.581 191.568 372.475 187.106 371.129C185.747 365.516 185.092 362.668 183.853 356.828Z" stroke="#1800C1" stroke-width="1.9"/>
<path d="M199.393 359.915C205.459 360.88 208.545 361.261 214.79 361.762C215.207 367.887 215.433 370.878 215.898 376.682C211.096 376.251 206.321 375.551 201.597 374.585C200.644 368.876 200.215 365.945 199.393 359.915Z" stroke="#1800C1" stroke-width="1.9"/>
<path d="M215.755 361.845C221.88 362.31 224.979 362.441 231.247 362.453C231.247 368.602 231.247 371.605 231.247 377.457C226.42 377.491 221.594 377.261 216.792 376.766C216.363 370.962 216.148 367.971 215.755 361.845Z" stroke="#1800C1" stroke-width="1.9"/>
<path d="M231.986 227.944H251.84C251.84 235.69 251.84 239.527 251.757 247.142C243.915 247.142 239.959 247.226 231.986 247.226V227.944Z" stroke="#1800C1" stroke-width="1.9"/>
<path d="M253.056 227.944H272.123C272.123 235.595 272.123 239.384 271.956 246.904C264.46 247.023 260.659 247.071 253.008 247.142C253.032 239.527 253.056 235.678 253.056 227.944Z" stroke="#1800C1" stroke-width="1.9"/>
<path d="M273.279 227.932H292.227C292.227 235.404 292.227 239.122 291.977 246.463C284.529 246.654 280.751 246.737 273.1 246.868C273.231 239.361 273.267 235.571 273.279 227.932Z" stroke="#1800C1" stroke-width="1.9"/>
<path d="M293.383 227.932H311.39C311.39 235.178 311.319 238.777 311.057 245.891C303.99 246.141 300.403 246.249 293.121 246.439C293.324 239.098 293.371 235.392 293.383 227.932Z" stroke="#1800C1" stroke-width="1.9"/>
<path d="M312.51 227.908H330.279C330.279 234.88 330.184 238.336 329.85 245.164C322.902 245.462 319.363 245.605 312.165 245.855C312.439 238.741 312.498 235.154 312.51 227.908Z" stroke="#1800C1" stroke-width="1.9"/>
<path d="M331.351 227.896H348.036C348.036 234.522 347.928 237.811 347.535 244.306C341.016 244.652 337.679 244.819 330.851 245.117C331.256 238.288 331.34 234.844 331.351 227.896Z" stroke="#1800C1" stroke-width="1.9"/>
<path d="M349.096 227.884H365.387C365.387 234.117 365.256 237.204 364.803 243.305C358.463 243.71 355.269 243.901 348.584 244.258C348.953 237.764 349.084 234.486 349.096 227.884Z" stroke="#1800C1" stroke-width="1.9"/>
<path d="M366.376 227.861H381.499C381.54 232.636 381.317 237.41 380.832 242.161C374.968 242.602 371.953 242.817 365.78 243.21C366.233 237.144 366.364 234.081 366.376 227.861Z" stroke="#1800C1" stroke-width="1.9"/>
<path d="M231.986 248.859C239.959 248.859 243.903 248.859 251.745 248.763C251.673 256.366 251.626 260.132 251.495 267.568C243.76 267.7 239.851 267.735 231.974 267.735C231.974 260.299 231.974 256.485 231.986 248.859Z" stroke="#1800C1" stroke-width="1.9"/>
<path d="M252.948 248.751C260.611 248.68 264.401 248.632 271.897 248.489C271.754 255.985 271.646 259.703 271.396 267.032C263.996 267.294 260.254 267.402 252.686 267.545C252.829 260.108 252.877 256.354 252.948 248.751Z" stroke="#1800C1" stroke-width="1.9"/>
<path d="M273.077 248.465C280.715 248.322 284.493 248.239 291.929 248.024C291.715 255.353 291.56 258.988 291.167 266.15C283.826 266.556 280.096 266.722 272.564 266.996C272.826 259.667 272.934 255.961 273.077 248.465Z" stroke="#1800C1" stroke-width="1.9"/>
<path d="M293.085 248C300.355 247.786 303.942 247.667 310.961 247.405C310.675 254.555 310.473 258.023 309.948 264.97C302.989 265.471 299.449 265.697 292.275 266.091C292.704 258.94 292.859 255.318 293.085 248Z" stroke="#1800C1" stroke-width="1.9"/>
<path d="M312.105 247.369C319.256 247.095 322.831 246.94 329.778 246.606C329.421 253.423 329.171 256.795 328.515 263.457C321.663 264.089 318.183 264.375 311.08 264.887C311.617 257.916 311.819 254.46 312.105 247.369Z" stroke="#1800C1" stroke-width="1.9"/>
<path d="M330.851 246.559C337.632 246.237 340.957 246.058 347.463 245.677C347.046 252.16 346.737 255.365 345.95 261.681C339.527 262.396 336.249 262.742 329.564 263.362C330.231 256.724 330.493 253.363 330.851 246.559Z" stroke="#1800C1" stroke-width="1.9"/>
<path d="M348.5 245.617C355.126 245.236 358.368 245.021 364.696 244.592C364.195 250.67 363.838 253.685 362.92 259.608C356.687 260.442 353.494 260.8 346.963 261.574C347.761 255.27 348.071 252.076 348.5 245.617Z" stroke="#1800C1" stroke-width="1.9"/>
<path d="M365.637 244.521C371.81 244.092 374.825 243.865 380.677 243.389C380.284 248.064 379.639 252.714 378.746 257.32C372.978 258.225 370.011 258.654 363.933 259.477C364.815 253.578 365.172 250.587 365.637 244.521Z" stroke="#1800C1" stroke-width="1.9"/>
<path d="M231.974 269.332C239.84 269.332 243.748 269.332 251.471 269.153C251.328 276.578 251.256 280.236 251.066 287.47C243.498 287.685 239.673 287.732 231.998 287.732C231.974 280.475 231.974 276.792 231.974 269.332Z" stroke="#1800C1" stroke-width="1.9"/>
<path d="M252.662 269.13C260.206 268.987 263.948 268.879 271.337 268.605C271.062 275.922 270.896 279.545 270.514 286.672C263.281 287.077 259.622 287.232 252.233 287.434C252.424 280.213 252.519 276.542 252.662 269.13Z" stroke="#1800C1" stroke-width="1.9"/>
<path d="M272.505 268.558C280.036 268.272 283.754 268.093 291.083 267.688C290.678 274.838 290.428 278.413 289.892 285.337C282.741 285.945 279.083 286.195 271.706 286.612C272.052 279.486 272.219 275.875 272.505 268.558Z" stroke="#1800C1" stroke-width="1.9"/>
<path d="M292.216 267.628C299.366 267.211 302.941 266.973 309.877 266.436C309.329 273.36 308.995 276.78 308.22 283.526C301.428 284.288 297.972 284.622 290.952 285.218C291.548 278.294 291.751 274.766 292.216 267.628Z" stroke="#1800C1" stroke-width="1.9"/>
<path d="M310.973 266.377C318.052 265.829 321.532 265.531 328.372 264.875C327.681 271.513 327.264 274.802 326.287 281.249C319.625 282.203 316.217 282.632 309.293 283.43C310.079 276.697 310.413 273.289 310.973 266.377Z" stroke="#1800C1" stroke-width="1.9"/>
<path d="M329.421 264.78C336.094 264.124 339.372 263.779 345.771 263.04C344.949 269.344 344.448 272.455 343.281 278.532C337.036 279.617 333.842 280.129 327.323 281.071C328.313 274.671 328.694 271.394 329.421 264.78Z" stroke="#1800C1" stroke-width="1.9"/>
<path d="M346.784 262.921C353.303 262.146 356.497 261.729 362.717 260.871C361.752 266.83 361.168 269.69 359.81 275.422C353.744 276.673 350.633 277.269 344.317 278.389C345.449 272.3 345.95 269.201 346.784 262.921Z" stroke="#1800C1" stroke-width="1.9"/>
<path d="M363.671 260.74C369.749 259.882 372.704 259.429 378.448 258.488C377.582 263.033 376.472 267.528 375.123 271.954C369.534 273.325 366.65 273.98 360.739 275.219C362.122 269.523 362.706 266.627 363.671 260.74Z" stroke="#1800C1" stroke-width="1.9"/>
<path d="M231.962 289.293C239.661 289.293 243.474 289.234 251.03 289.019C250.839 296.17 250.72 299.745 250.482 306.8C243.153 307.074 239.446 307.145 231.962 307.145C231.962 300.114 231.962 296.539 231.962 289.293Z" stroke="#1800C1" stroke-width="1.9"/>
<path d="M252.186 288.984C259.562 288.769 263.221 288.602 270.431 288.197C270.038 295.347 269.811 298.827 269.311 305.727C262.315 306.264 258.764 306.466 251.602 306.752C251.864 299.757 251.983 296.194 252.186 288.984Z" stroke="#1800C1" stroke-width="1.9"/>
<path d="M271.575 288.138C278.928 287.709 282.563 287.446 289.725 286.827C289.129 293.774 288.783 297.207 288.021 303.94C281.085 304.738 277.557 305.131 270.419 305.644C270.931 298.744 271.17 295.24 271.575 288.138Z" stroke="#1800C1" stroke-width="1.9"/>
<path d="M290.821 286.731C297.817 286.124 301.273 285.766 308.053 284.991C307.255 291.713 306.802 295.026 305.789 301.532C299.223 302.557 295.874 303.01 289.105 303.809C289.868 297.087 290.213 293.667 290.821 286.731Z" stroke="#1800C1" stroke-width="1.9"/>
<path d="M309.114 284.86C316.026 284.05 319.422 283.609 326.084 282.632C325.083 289.067 324.511 292.237 323.248 298.458C316.801 299.733 313.511 300.317 306.826 301.378C307.851 294.859 308.316 291.57 309.114 284.86Z" stroke="#1800C1" stroke-width="1.9"/>
<path d="M327.109 282.477C333.616 281.512 336.798 280.987 343.03 279.867C341.839 285.969 341.159 288.972 339.634 294.859C333.604 296.313 330.529 297.004 324.237 298.255C325.524 292.058 326.096 288.9 327.109 282.477Z" stroke="#1800C1" stroke-width="1.9"/>
<path d="M344.019 279.7C350.359 278.508 353.47 277.936 359.512 276.637C358.105 282.346 357.307 285.146 355.531 290.64C349.704 292.332 346.713 293.131 340.575 294.632C342.113 288.769 342.804 285.778 344.019 279.7Z" stroke="#1800C1" stroke-width="1.9"/>
<path d="M360.441 276.435C366.34 275.16 369.212 274.492 374.742 273.074C373.456 277.457 371.94 281.769 370.201 285.992C364.827 287.828 362.062 288.71 356.378 290.378C358.225 284.908 359.035 282.119 360.441 276.435Z" stroke="#1800C1" stroke-width="1.9"/>
<path d="M231.95 308.659C239.411 308.659 243.105 308.575 250.41 308.289C250.16 315.273 250.017 318.717 249.719 325.462C242.676 325.808 239.124 325.903 231.938 325.903C231.95 319.122 231.95 315.666 231.95 308.659Z" stroke="#1800C1" stroke-width="1.9"/>
<path d="M251.542 308.254C258.693 307.956 262.268 307.741 269.203 307.205C268.691 314.093 268.417 317.478 267.797 324.115C261.088 324.783 257.68 325.045 250.803 325.403C251.125 318.693 251.232 315.225 251.542 308.254Z" stroke="#1800C1" stroke-width="1.9"/>
<path d="M270.3 307.122C277.45 306.55 280.93 306.192 287.854 305.382C287.079 312.091 286.662 315.404 285.721 321.875C279.071 322.888 275.698 323.317 268.846 324.008C269.489 317.37 269.787 313.998 270.3 307.122Z" stroke="#1800C1" stroke-width="1.9"/>
<path d="M288.926 305.251C295.695 304.44 299.02 303.964 305.61 302.867C304.574 309.362 304.002 312.556 302.774 318.8C296.494 320.087 293.24 320.66 286.793 321.661C287.711 315.249 288.176 311.96 288.926 305.251Z" stroke="#1800C1" stroke-width="1.9"/>
<path d="M306.6 302.76C313.273 301.687 316.55 301.092 322.974 299.781C321.675 305.989 320.96 309.04 319.399 314.999C313.249 316.608 310.115 317.382 303.716 318.657C304.979 312.425 305.551 309.243 306.6 302.76Z" stroke="#1800C1" stroke-width="1.9"/>
<path d="M323.927 299.626C330.196 298.339 333.27 297.636 339.264 296.158C337.715 302.021 336.881 304.905 334.998 310.53C329.266 312.353 326.322 313.211 320.316 314.796C321.925 308.814 322.652 305.775 323.927 299.626Z" stroke="#1800C1" stroke-width="1.9"/>
<path d="M340.242 295.884C346.355 294.358 349.346 293.5 355.15 291.808C353.327 297.29 352.326 299.971 350.157 305.203C344.615 307.324 341.815 308.325 335.94 310.208C337.811 304.595 338.68 301.735 340.242 295.884Z" stroke="#1800C1" stroke-width="1.9"/>
<path d="M356.103 291.546C361.764 289.842 364.517 288.948 369.868 287.077C368.186 291.275 366.28 295.381 364.159 299.375C359.083 301.687 356.461 302.784 351.051 304.869C353.196 299.626 354.209 296.992 356.103 291.546Z" stroke="#1800C1" stroke-width="1.9"/>
<path d="M231.938 327.357C239.089 327.357 242.664 327.25 249.647 326.904C249.349 333.625 249.183 336.926 248.825 343.386C242.14 343.803 238.755 343.91 231.927 343.922C231.927 337.427 231.938 334.114 231.938 327.357Z" stroke="#1800C1" stroke-width="1.9"/>
<path d="M250.732 326.845C257.584 326.487 260.981 326.213 267.666 325.546C267.046 332.16 266.713 335.413 265.998 341.777C259.622 342.575 256.392 342.897 249.862 343.326C250.231 336.867 250.41 333.566 250.732 326.845Z" stroke="#1800C1" stroke-width="1.9"/>
<path d="M268.727 325.426C275.543 324.723 278.916 324.235 285.53 323.257C284.588 329.716 284.088 332.886 283.003 339.083C276.699 340.275 273.47 340.811 266.999 341.646C267.738 335.294 268.083 332.052 268.727 325.426Z" stroke="#1800C1" stroke-width="1.9"/>
<path d="M286.555 323.102C293.026 322.078 296.208 321.506 302.464 320.195C301.213 326.427 300.534 329.49 299.092 335.461C293.133 336.998 290.13 337.689 283.969 338.893C285.077 332.708 285.601 329.55 286.555 323.102Z" stroke="#1800C1" stroke-width="1.9"/>
<path d="M303.453 319.992C309.829 318.645 312.987 317.907 319.077 316.274C317.504 322.233 316.693 325.14 314.834 330.813C309.043 332.732 306.075 333.613 300.021 335.21C301.499 329.264 302.178 326.213 303.453 319.992Z" stroke="#1800C1" stroke-width="1.9"/>
<path d="M320.018 316.024C325.977 314.427 328.92 313.557 334.629 311.698C332.746 317.311 331.721 320.04 329.552 325.391C324.154 327.595 321.389 328.62 315.728 330.515C317.563 324.854 318.433 321.947 320.018 316.024Z" stroke="#1800C1" stroke-width="1.9"/>
<path d="M335.534 311.4C341.338 309.493 344.174 308.48 349.68 306.323C347.475 311.531 346.284 314.081 343.721 319.027C338.538 321.577 335.868 322.793 330.374 325.045C332.591 319.718 333.628 316.989 335.534 311.4Z" stroke="#1800C1" stroke-width="1.9"/>
<path d="M350.538 305.989C355.901 303.868 358.523 302.748 363.576 300.4C361.515 304.393 359.247 308.275 356.783 312.031C352.016 314.796 349.632 316.119 344.544 318.634C347.106 313.712 348.31 311.173 350.538 305.989Z" stroke="#1800C1" stroke-width="1.9"/>
<path d="M231.915 345.304C238.719 345.304 242.092 345.185 248.742 344.768C248.384 351.203 248.193 354.361 247.8 360.511C241.508 360.987 238.266 361.118 231.903 361.13C231.915 354.945 231.915 351.775 231.915 345.304Z" stroke="#1800C1" stroke-width="1.9"/>
<path d="M249.778 344.696C256.285 344.267 259.503 343.946 265.843 343.135C265.116 349.475 264.735 352.574 263.924 358.628C257.966 359.557 254.903 359.927 248.766 360.427C249.195 354.29 249.397 351.132 249.778 344.696Z" stroke="#1800C1" stroke-width="1.9"/>
<path d="M266.844 343.004C273.315 342.158 276.497 341.634 282.765 340.406C281.669 346.579 281.085 349.594 279.857 355.47C273.899 356.888 270.955 357.495 264.866 358.473C265.7 352.431 266.093 349.332 266.844 343.004Z" stroke="#1800C1" stroke-width="1.9"/>
<path d="M283.73 340.216C289.856 339.024 292.871 338.285 298.782 336.736C297.316 342.694 296.541 345.578 294.897 351.239C289.355 353.039 286.555 353.849 280.763 355.255C282.014 349.38 282.61 346.365 283.73 340.216Z" stroke="#1800C1" stroke-width="1.9"/>
<path d="M299.711 336.485C305.73 334.865 308.685 333.971 314.441 332.028C312.606 337.689 311.629 340.454 309.567 345.817C304.18 348.057 301.416 349.094 295.767 350.953C297.435 345.316 298.222 342.408 299.711 336.485Z" stroke="#1800C1" stroke-width="1.9"/>
<path d="M315.335 331.731C320.96 329.8 323.677 328.763 329.075 326.535C326.883 331.862 325.703 334.448 323.236 339.489C318.243 342.051 315.668 343.254 310.401 345.447C312.487 340.144 313.476 337.367 315.335 331.731Z" stroke="#1800C1" stroke-width="1.9"/>
<path d="M329.886 326.189C335.344 323.889 338.001 322.614 343.161 320.087C340.587 325.021 339.217 327.417 336.321 332.005C331.554 334.984 329.075 336.39 323.987 339.036C326.513 334.066 327.705 331.48 329.886 326.189Z" stroke="#1800C1" stroke-width="1.9"/>
<path d="M343.984 319.682C349.013 317.144 351.456 315.797 356.151 312.997C353.743 316.755 351.138 320.383 348.345 323.865C344.007 327.107 341.755 328.632 337.096 331.588C340.015 327.035 341.398 324.652 343.984 319.682Z" stroke="#1800C1" stroke-width="1.9"/>
<path d="M231.903 362.453C238.29 362.453 241.436 362.31 247.705 361.821C247.3 367.947 247.085 370.926 246.644 376.742C241.739 377.251 236.81 377.489 231.879 377.457C231.891 371.605 231.891 368.602 231.903 362.453Z" stroke="#1800C1" stroke-width="1.9"/>
<path d="M248.67 361.738C254.784 361.237 257.799 360.868 263.745 359.915C262.923 365.945 262.494 368.876 261.588 374.585C256.946 375.529 252.256 376.218 247.538 376.646C248.015 370.843 248.241 367.863 248.67 361.738Z" stroke="#1800C1" stroke-width="1.9"/>
<path d="M264.687 359.76C270.741 358.771 273.732 358.163 279.583 356.733C278.392 362.584 277.688 365.444 276.318 371.033C271.763 372.425 267.136 373.571 262.458 374.466C263.388 368.745 263.841 365.778 264.687 359.76Z" stroke="#1800C1" stroke-width="1.9"/>
<path d="M280.489 356.506C286.221 355.076 289.034 354.266 294.539 352.443C292.883 358.079 292.013 360.785 290.178 366.135C285.925 367.899 281.581 369.435 277.164 370.735C278.558 365.17 279.226 362.346 280.489 356.506Z" stroke="#1800C1" stroke-width="1.9"/>
<path d="M295.409 352.157C301.022 350.274 303.751 349.237 309.126 346.961C307.04 352.311 305.944 354.909 303.656 359.938C299.541 362.122 295.313 364.083 290.988 365.814C292.835 360.51 293.729 357.769 295.409 352.157Z" stroke="#1800C1" stroke-width="1.9"/>
<path d="M309.96 346.615C315.18 344.363 317.742 343.147 322.7 340.561C320.209 345.566 318.898 347.998 316.145 352.693C312.359 355.178 308.445 357.461 304.419 359.533C306.743 354.528 307.851 351.942 309.96 346.615Z" stroke="#1800C1" stroke-width="1.9"/>
<path d="M323.486 340.144C328.539 337.475 330.994 336.057 335.737 332.994C332.817 337.606 331.28 339.834 328.062 344.136C324.474 347.015 320.735 349.7 316.86 352.18C319.637 347.557 320.96 345.137 323.486 340.144Z" stroke="#1800C1" stroke-width="1.9"/>
<path d="M336.464 332.577C341.088 329.609 343.328 328.036 347.642 324.771C344.893 328.268 341.97 331.625 338.883 334.829C335.643 337.967 332.242 340.934 328.694 343.719C331.971 339.381 333.52 337.165 336.464 332.577Z" stroke="#1800C1" stroke-width="1.9"/>



<circle  cx="231" cy="227" r="151.25" stroke="#1800C1" stroke-width="3.5"/>
	
		<path id="shadowPath0"  d="M78 227C78 141 148 74 230.446 74C261.341 74 313 136.109 313 227C313 317.891 262.353 380 230.953 380C152 380 78 318 78 227Z" fill="url(#paint0_linear)"/>
		<path id="shadowPath1"  d="M231 227C231 311.5 231 286 231 380C146.5 380 78 311.5 78 227C78 142.5 146.5 74 231 74C231 138 231 142.5 231 227Z" fill="url(#paint0_linear)"/>
		<path id="shadowPath2" d="M151.5 227C151.5 311.5 203.5 380 231 380C146.5 380 78 311.5 78 227C78 142.5 146.5 74 231 74C200 74 151.5 142.5 151.5 227Z" fill="url(#paint0_linear)"/>
		<filter id="filter0_d" x="0.0302734" y="0" width="462.219" height="462.72" filterUnits="userSpaceOnUse" color-interpolation-filters="sRGB">
		<feFlood flood-opacity="0" result="BackgroundImageFix"/>
		<feColorMatrix in="SourceAlpha" type="matrix" values="0 0 0 0 0 0 0 0 0 0 0 0 0 0 0 0 0 0 127 0"/>
		<feOffset dy="4"/>
		<feGaussianBlur stdDeviation="40"/>
		<feColorMatrix type="matrix" values="0 0 0 0 0 0 0 0 0 0 0 0 0 0 0 0 0 0 1 0"/>
		<feBlend mode="normal" in2="BackgroundImageFix" result="effect1_dropShadow"/>
		<feBlend mode="normal" in="SourceGraphic" in2="effect1_dropShadow" result="shape"/>
		</filter>
		<linearGradient id="paint0_linear" x1="78" y1="227.505" x2="231" y2="227.505" gradientUnits="userSpaceOnUse">
		<stop/>
		<stop offset="0.0001" stop-opacity="0.65"/>
		<stop offset="1" stop-opacity="0.27"/>
		</linearGradient>
	</defs>


</svg>
