<svg width="100%" height="100%" viewBox="0 0 1280 668" fill="none" xmlns="http://www.w3.org/2000/svg">
<line x1="1250" y1="637.5" x2="29.9995" y2="637.5" stroke="#fff"/>
<line x1="1250" y1="536.5" x2="29.9995" y2="536.5" stroke="#fff"/>
<line x1="1250" y1="435.5" x2="29.9995" y2="435.5" stroke="#fff"/>
<line x1="1250" y1="334.5" x2="29.9995" y2="334.5" stroke="#fff"/>
<line x1="1250" y1="233.5" x2="29.9995" y2="233.5" stroke="#fff"/>
<line x1="1250" y1="132.5" x2="29.9995" y2="132.5" stroke="#fff"/>
<line x1="1250" y1="31.5" x2="29.9995" y2="31.4999" stroke="#fff"/>
<line x1="1250.5" y1="31" x2="1250.5" y2="638" stroke="#fff"/>
<line x1="1148.5" y1="32" x2="1148.5" y2="637" stroke="#fff"/>
<line x1="1047.5" y1="32" x2="1047.5" y2="637" stroke="#fff"/>
<line x1="945.5" y1="32" x2="945.5" y2="637" stroke="#fff"/>
<line x1="843.5" y1="32" x2="843.5" y2="637" stroke="#fff"/>
<line x1="742.5" y1="32" x2="742.5" y2="637" stroke="#fff"/>
<line x1="640.5" y1="32" x2="640.5" y2="637" stroke="#fff"/>
<line x1="538.5" y1="32" x2="538.5" y2="637" stroke="#fff"/>
<line x1="437.5" y1="32" x2="437.5" y2="637" stroke="#fff"/>
<line x1="335.5" y1="32" x2="335.5" y2="637" stroke="#fff"/>
<line x1="233.5" y1="32" x2="233.5" y2="637" stroke="#fff"/>
<line x1="132.5" y1="31.9999" x2="132.5" y2="637" stroke="#fff"/>
<line x1="30.5" y1="31.9999" x2="30.5" y2="637" stroke="#fff"/>
</svg>
